<svg xmlns="http://www.w3.org/2000/svg" width="1200" height="180" viewBox="-28.008 -21.895 1200 180" overflow="visible"><path fill="#0474a2" d="M193.496 99.805l-6.904 17.5h-24.795l40.996-95h24.805l40 95h-25.801L235 99.805h-41.504zm20.899-53.399l-13.799 35.078h27.402l-13.603-35.078zm131.201 70.899h-23.398v-9.609c-5.205 6.797-12.598 10.586-22.002 10.586-20.596 0-34.199-15.195-34.199-37.891 0-22.383 13.398-37.188 33.604-37.188 9.6 0 17.393 3.789 22.5 10.586V16.602h23.496v100.703zm-23.399-36.328c0-11.289-6.504-18.984-16.299-18.984-9.805 0-16.299 7.695-16.406 18.984.107 11.328 6.602 19.102 16.406 19.102 9.698-.001 16.299-7.891 16.299-19.102zm58.994 36.328l-27.5-73.105H377.9l15.693 51.699L409.491 44.2h23.301l-27.5 73.105h-24.101zm132.403-73.399v73.398h-24.102v-9.219c-2.5 3.32-5.596 5.82-9.297 7.5-3.701 1.797-7.803 2.617-12.295 2.617-6.807 0-12.803-1.602-17.9-4.727-5.205-3.203-9.199-7.578-12.002-13.398-2.803-5.703-4.307-12.383-4.307-19.883 0-7.402 1.406-13.906 4.209-19.492 2.793-5.605 6.797-9.922 11.895-13.008 5.205-3.086 11.104-4.609 17.9-4.609 4.502 0 8.604.898 12.305 2.695 3.691 1.816 6.797 4.316 9.395 7.617v-9.492h24.199zm-29.102 50.977c2.803-2.891 4.404-6.68 4.902-11.484v-4.922c-.498-4.785-2.1-8.594-4.902-11.484-2.793-2.891-6.396-4.297-10.693-4.297-4.707 0-8.506 1.699-11.504 5.098-2.9 3.398-4.395 7.793-4.395 13.184 0 5.43 1.494 9.805 4.395 13.203s6.797 5.117 11.504 5.117c4.394-.001 7.9-1.525 10.693-4.415zm116.895-23.692v46.113h-23.301V77.695c0-8.496-5-13.789-12.891-13.789-8.496 0-14.004 6.094-14.902 14.766v38.711h-23.496V44.297h23.496v11.797c5.205-8.496 13.604-12.891 24.395-13.008 16.113 0 26.699 11.016 26.699 28.105zm79.707-11.386L664.297 70c-3.398-4.707-8.398-7.617-14.805-7.617-9.082 0-15.293 7.5-15.293 18.516 0 11.289 6.211 18.594 15.293 18.594 6.602 0 11.816-2.695 14.902-8.32l17.109 10c-6.016 10.703-17.812 17.031-33.203 17.031-22.5 0-37.695-14.922-37.695-37.227 0-22.48 15.293-37.578 37.988-37.578 14.512-.001 26.192 5.898 32.501 16.406zm77.402 27.304H707.09c2.305 8.672 8.516 13.594 17.207 13.594 6.387 0 12.598-2.617 17.5-7.5l12.285 12.07c-7.5 8.125-18.477 12.93-31.875 12.93-23.906 0-38.809-14.922-38.809-37.227 0-22.695 15.488-37.578 38.105-37.578 25.782 0 38.595 16.895 36.993 43.711zm-22.5-12.714c0-9.004-5.703-14.785-14.102-14.785-8.086 0-13.711 5.977-15.195 14.785h29.297zm107.5 42.91h-23.398v-9.609c-5.195 6.797-12.598 10.586-21.992 10.586-20.605 0-34.219-15.195-34.219-37.891 0-22.383 13.398-37.188 33.613-37.188 9.59 0 17.402 3.789 22.5 10.586V16.602h23.496v100.703zm-23.398-36.328c0-11.289-6.504-18.984-16.289-18.984-9.805 0-16.309 7.695-16.406 18.984.098 11.328 6.602 19.102 16.406 19.102 9.785-.001 16.289-7.891 16.289-19.102z"/><path d="M917.402 99.805l-6.914 17.5h-24.805l41.016-95h24.805l40 95h-25.82l-6.797-17.5h-41.485zm20.782-53.399l-13.789 35.078h27.402l-13.613-35.078zm131.211 70.899h-23.496v-9.609c-5.215 6.797-12.598 10.586-22.012 10.586-20.586 0-34.18-15.195-34.18-37.891 0-22.383 13.398-37.188 33.594-37.188 9.609 0 17.383 3.789 22.5 10.586V16.602h23.496v100.703h.098zm-23.399-36.328c0-11.289-6.504-18.984-16.289-18.984-9.805 0-16.309 7.695-16.406 18.984.098 11.328 6.602 19.102 16.406 19.102 9.785-.001 16.289-7.891 16.289-19.102zm97.813-29.571l-8.008 15.195c-8.809-4.707-16.992-7.305-23.105-7.305-4.199 0-7.207 1.602-7.207 5 0 10 38.516 5.195 38.398 30.703 0 15.078-13.203 23.281-30.781 23.281-12.207 0-24.023-3.477-32.812-10.273l7.5-14.922c8.301 5.82 17.812 9.102 25.898 9.102 4.609 0 8.008-1.602 8.008-5 0-10.703-37.891-5.195-37.695-30.781 0-15.117 12.793-23.203 29.688-23.203 10.604-.117 21.092 2.891 30.116 8.203zM91.699 54.395v45.488H28.096V36.289h45.498c-1.895-4.297-2.9-8.984-2.9-13.984s1.104-9.707 2.9-14.023H0v97.422c0 12.305 10 22.305 22.295 22.305h97.402V54.297c-4.297 1.895-9.102 3.008-14.102 3.008-4.902 0-9.599-1.114-13.896-2.91z" fill="#1b193a"/><path fill="#0474a2" d="M105.596 0C117.91 0 127.9 9.98 127.9 22.305c0 12.305-9.99 22.305-22.305 22.305S83.3 34.61 83.3 22.305A22.3 22.3 0 0 1 105.596 0z"/></svg>