<svg xmlns="http://www.w3.org/2000/svg" width="50" height="48" viewBox="-0.001 0 50 48" overflow="visible"><g fill="#66b8d9"><path d="M37.166.004c-4.181 0-8.881 3.464-11.976 8.824-1.553 2.688-2.521 5.581-2.782 8.273l-1.353.781c-.31-.071-.618-.106-.922-.106-.643 0-1.24.156-1.777.464L1.899 27.745C.69 28.442-.002 29.794 0 31.452c0 1.265.403 2.663 1.138 3.935s1.744 2.324 2.841 2.957c.781.451 1.574.68 2.354.68.645 0 1.269-.165 1.808-.476l16.447-9.5c.807-.463 1.377-1.211 1.67-2.162l.556-.321 5.014 2.893c.995.576 2.116.867 3.331.867 4.181 0 8.883-3.464 11.979-8.825 4.076-7.065 3.741-14.637-.764-17.237L40.498.87c-.995-.575-2.117-.866-3.332-.866h0z"/><path d="M19.713 0a2.09 2.09 0 0 0-1.043.279L1.044 10.456A2.09 2.09 0 0 0 0 12.263v20.354a2.09 2.09 0 0 0 1.044 1.809l22.913 13.229a2.1 2.1 0 0 0 1.043.278 2.11 2.11 0 0 0 1.043-.278l22.912-13.227c.648-.374 1.044-1.062 1.044-1.808a2.09 2.09 0 0 0-1.04-1.808l-9.533-5.503V12.267c0-.745-.396-1.434-1.041-1.807L20.756.279C20.434.093 20.074 0 19.713 0h0z"/></g><path fill="#005273" d="M19.713 42.796L25 45.849l22.914-13.228-10.573-6.107v6.103z"/><path fill="#ff6c40" d="M37.341 12.267L19.713 22.44 2.086 12.263 19.713 2.086z"/><path fill="#cc3000" d="M2.086 12.263L19.713 22.44v20.356L2.086 32.617z"/><path fill="#8c2100" d="M19.713 42.796V22.44l17.628-10.177v20.354z"/><path d="M2.94 34.346c-.571-.993-.859-2.026-.859-2.895s.286-1.572.859-1.904c1.147-.661 3.011.412 4.157 2.401s1.146 4.135-.001 4.797c-.574.332-1.325.229-2.078-.206S3.516 35.34 2.94 34.346zm30.274-9.006c.206.201.438.371.69.517 2.87 1.655 7.521-1.028 10.391-5.998s2.87-10.338.002-11.994c-.254-.145-.518-.264-.796-.343 2.172 2.072 1.945 6.945-.674 11.49s-6.734 7.172-9.613 6.328z" fill="#2f2c54"/><path fill="#33a1cc" d="M28.808 22.795a3.36 3.36 0 0 0 .692.516c2.867 1.659 7.519-1.026 10.388-5.998s2.87-10.338-.001-11.993a3.52 3.52 0 0 0-.79-.343c2.168 2.07 1.943 6.944-.679 11.487s-6.733 7.178-9.61 6.331z"/><path fill="#66b8d9" d="M43.501 7.521c2.172 2.072 1.945 6.945-.674 11.49s-6.734 7.172-9.613 6.329L29.5 23.312c2.867 1.659 7.519-1.026 10.388-5.998s2.87-10.338-.001-11.993l3.614 2.2z"/><path fill="#1b193a" d="M45.332 6.066c-3.44-1.987-9.02 1.235-12.465 7.195s-3.439 12.406 0 14.395c3.444 1.987 9.024-1.236 12.466-7.197s3.442-12.405-.001-14.393zm-1.037 13.793c-2.869 4.97-7.521 7.653-10.391 5.998a3.61 3.61 0 0 1-.688-.519c-2.155-2.079-1.926-6.944.69-11.477s6.718-7.162 9.592-6.333a3.65 3.65 0 0 1 .799.336c2.868 1.657 2.864 7.026-.002 11.995z"/><path fill="#47456d" d="M26.993 9.869c3.442-5.961 9.021-9.183 12.463-7.196l5.876 3.393c-3.44-1.987-9.02 1.235-12.465 7.195l-5.874-3.392z"/><path fill="#2f2c54" d="M32.867 13.261c-3.441 5.962-3.439 12.406 0 14.395l-5.876-3.393c-3.44-1.989-3.44-8.432.002-14.394l5.874 3.392z"/><path fill="#47456d" d="M28.9 19.356c-.859-1.488-2.254-2.294-3.117-1.799l-5.876 3.393c.861-.496 2.257.31 3.118 1.8l5.875-3.394z"/><path fill="#1b193a" d="M23.025 22.75c.859 1.489.859 3.101-.002 3.598l5.878-3.393c.859-.499.86-2.108-.001-3.6l-5.875 3.395z"/><path fill="#ff8966" d="M31.877 22.58c2.297-.833 4.763-3.032 6.541-6.114s2.455-6.316 2.026-8.724c-2.299.839-4.76 3.04-6.538 6.119s-2.452 6.31-2.029 8.719z"/><path fill="#1b193a" d="M23.549 22.447c1.145 1.991 1.147 4.136-.002 4.798l-16.45 9.5c1.146-.662 1.148-2.81.001-4.797l16.451-9.501z"/><path fill="#47456d" d="M7.098 31.948c-1.146-1.989-3.01-3.062-4.157-2.401l16.451-9.5c1.148-.659 3.01.413 4.157 2.4L7.098 31.948z"/></svg>