<svg xmlns="http://www.w3.org/2000/svg" width="50" height="52" overflow="visible"><path fill="#66b8d9" d="M20.752 4.304c-.645-.373-1.44-.372-2.085 0L1.042 14.484C.396 14.857 0 15.546 0 16.291l.002 20.351c0 .745.397 1.434 1.043 1.806l22.913 13.229c.322.187.683.279 1.043.279a2.08 2.08 0 0 0 1.042-.279l22.914-13.226A2.08 2.08 0 0 0 50 36.645c0-.745-.396-1.433-1.043-1.806l-9.529-5.505-.002-13.043c0-.744-.397-1.433-1.042-1.806L20.752 4.304z"/><path fill="#005273" d="M19.714 46.817l5.287 3.053 22.913-13.225-5.285-3.053z"/><path fill="#ff9170" d="M37.34 16.291l3.529-2.037-17.63-10.18-3.525 2.036z"/><path fill="#ffb59f" d="M40.869 14.254l3.527-2.037-17.628-10.18-3.527 2.036z"/><path fill="#ffdacf" d="M44.396 12.217l3.529-2.037L30.295 0 26.77 2.036z"/><path fill="#e2c7bf" d="M44.396 12.217l3.529-2.037.002 20.358-3.528 2.036z"/><path fill="#a95840" d="M37.342 30.538l-.002-14.247 3.529-2.037.002 18.322z"/><path fill="#70433b" d="M40.871 32.576v2.035l-3.527 2.035-.002-6.108z"/><path fill="#c59080" d="M40.872 32.576l-.003-18.322 3.527-2.037.001 20.357-1.764 1.02z"/><path fill="#987a7a" d="M42.633 33.594l-1.761 1.015v-2.033z"/><path fill="#ff6c40" d="M19.714 6.11L37.34 16.291 19.714 26.463 2.086 16.291z"/><path fill="#cc3000" d="M2.086 16.291l.002 20.351 17.626 10.175V26.463z"/><path fill="#8c2100" d="M37.34 16.291L19.714 26.463v20.354L37.34 36.642z"/></svg>