<svg xmlns="http://www.w3.org/2000/svg" width="50" height="55" overflow="visible"><path fill="#66b8d9" d="M18.582 0h0c-1.922 0-3.918 1.389-5.21 3.625L1.139 24.814C.104 26.607-.247 28.539.175 30.113c.28 1.043.908 1.891 1.77 2.387l9.862 5.692-9.26 7.681c-.967.799-1.055 1.726-1.022 2.208.055.79.487 1.49 1.185 1.92l.06.035 6.823 3.922a2.22 2.22 0 0 0 .364.168c.465.164 1.023.244 1.708.244.35 0 .735-.021 1.145-.063l19.227-1.978c1.852-.19 4.39-.848 5.586-1.841l11.351-9.415c.938-.772 1.046-1.674 1.026-2.141a2.43 2.43 0 0 0-1.063-1.906l-.16-.103-6.845-3.937a2.27 2.27 0 0 0-.361-.167c-.466-.165-1.026-.245-1.713-.245a11.34 11.34 0 0 0-1.134.062l-7.087.729 8.315-14.4c1.034-1.791 1.382-3.72.957-5.295-.281-1.043-.912-1.891-1.773-2.385L20.428.486C19.877.167 19.238 0 18.582 0h0 0z"/><path fill="#005273" d="M47.675 38.835c.186.13.164.314-.11.541l-11.352 9.416c-.679.562-2.65 1.164-4.403 1.344l-19.227 1.978c-.88.091-1.539.059-1.893-.066l-6.823-3.922c-.209-.129-.196-.32.087-.555l11.355-9.418c.676-.562 2.648-1.162 4.402-1.343l19.234-1.979c.876-.09 1.532-.058 1.884.067l6.846 3.937z"/><path fill="#145ecc" d="M9.713 29.764L21.947 8.576c1.115-1.932 2.925-2.977 4.042-2.333s1.114 2.736 0 4.667L13.751 32.105c-1.118 1.936-2.928 2.979-4.042 2.331-1.117-.642-1.117-2.73.004-4.672h0z"/><path fill="#2a8c44" d="M25.989 10.91c-1.117 1.935-2.926 2.979-4.041 2.332-1.117-.641-1.117-2.738 0-4.672s2.924-2.977 4.041-2.333 1.115 2.742 0 4.673z"/><path fill="#145ecc" d="M19.777 35.578l6.119-10.595-4.041-2.334-6.123 10.598c-1.115 1.933-1.111 4.02 0 4.666 1.12.647 2.931-.398 4.045-2.335h0z"/><path fill="#e0a600" d="M27.973 12.051l-6.118 10.597 4.041 2.333 6.116-10.591c1.109-1.934 1.114-4.025 0-4.674s-2.923.402-4.039 2.335h0z"/><path fill="#2a8c44" d="M25.881 25.006c-1.115 1.935-2.931 2.983-4.038 2.332-1.121-.641-1.124-2.729-.003-4.667 1.11-1.93 2.928-2.979 4.041-2.333s1.116 2.735 0 4.668z"/><path fill="#e0a600" d="M21.761 36.728l12.234-21.197c1.117-1.934 2.928-2.976 4.042-2.332s1.119 2.731.005 4.665l-12.24 21.195c-1.116 1.935-2.927 2.979-4.041 2.334s-1.117-2.733 0-4.665h0z"/><path fill="#2a8c44" d="M23.784 41.19c-1.58.912-2.861.173-2.861-1.65s1.281-4.045 2.861-4.956c1.571-.903 2.855-.169 2.854 1.658s-1.283 4.042-2.854 4.948z"/><path fill="#003b94" d="M15.732 37.913c-1.111-.646-1.115-2.733 0-4.666l-1.981-1.142c-1.118 1.936-2.928 2.979-4.042 2.331l6.023 3.477z"/><path fill="#0048b2" d="M19.872 21.503l-6.121 10.602 1.981 1.142 6.123-10.598-1.983-1.146z"/><path fill="#bf8e00" d="M27.973 12.051l-6.118 10.597-1.982-1.145L25.99 10.91l1.983 1.141z"/><g fill="#fcbc05"><path d="M32.012 9.716c-1.113-.644-2.923.402-4.039 2.335L25.99 10.91c1.114-1.932 1.114-4.029 0-4.674l6.022 3.48zM21.761 36.728h0l12.234-21.197"/><path d="M32.012 9.716c1.114.649 1.109 2.74 0 4.674l1.983 1.141c1.117-1.934 2.928-2.976 4.042-2.332l-6.025-3.483z"/></g><path fill="#bf8e00" d="M21.761 36.728h0l12.234-21.197-1.983-1.141-12.235 21.188 1.984 1.15z"/><path fill="#125c26" d="M21.761 41.393c-1.117-.645-1.117-2.732 0-4.665l-1.983-1.149c-1.114 1.937-2.926 2.981-4.045 2.335l6.028 3.479z"/><path fill="#2d78e8" d="M9.713 29.764L21.947 8.576l-6.665-3.848L3.049 25.917l6.664 3.847z"/><path fill="#0048b2" d="M3.049 25.917c-1.122 1.942-1.122 4.029-.004 4.672l6.664 3.848c-1.117-.643-1.117-2.73.004-4.672l-6.664-3.848z"/><path fill="#34a853" d="M21.947 8.576c.51-.883 1.165-1.582 1.832-2.018.794-.517 1.604-.665 2.21-.315l-6.664-3.848c-1.117-.645-2.928.401-4.043 2.333l6.665 3.848z"/></svg>