<svg xmlns="http://www.w3.org/2000/svg" width="50" height="48" overflow="visible"><path fill="#66b8d9" d="M19.713 0a2.07 2.07 0 0 0-1.042.279L1.043 10.456A2.09 2.09 0 0 0 0 12.263v20.356a2.09 2.09 0 0 0 1.043 1.807l22.914 13.229c.321.186.684.279 1.042.279a2.1 2.1 0 0 0 1.043-.279L48.956 34.43c.648-.375 1.044-1.063 1.044-1.809a2.09 2.09 0 0 0-1.041-1.807l-9.532-5.504V12.267c0-.745-.396-1.434-1.042-1.807L20.756.279C20.434.092 20.074 0 19.713 0h0z"/><path fill="#005273" d="M19.713 42.795L25 45.848l22.914-13.227-10.573-6.107v6.105z"/><path fill="#47456d" d="M37.341 12.267L19.713 22.44 2.086 12.263 19.713 2.086z"/><path fill="#2f2c54" d="M2.086 12.263L19.713 22.44v20.355L2.086 32.619z"/><path fill="#1b193a" d="M19.713 42.795V22.44l17.628-10.177v20.356z"/></svg>