<svg xmlns="http://www.w3.org/2000/svg" width="50" height="60" overflow="visible"><style><![CDATA[.B{fill:#1092c9}.C{fill:#0b648a}.D{fill:#752164}.E{fill:#ab3092}.F{fill:#d663bf}.G{fill:#4ec8fc}.H{fill:#2dace3}]]></style><path fill="#66b8d9" d="M38.91 39.924l2.603-1.503v.373a2.98 2.98 0 0 1-.023.365l5.693 3.288a1.95 1.95 0 0 1-.151 3.458l-29.428 13.72a1.95 1.95 0 0 1-1.8-.078l-4.663-2.692-6.782-3.915-.039-.023a2.26 2.26 0 0 1-.702-.671l1.717-.996L38.91 39.924z"/><path fill="#fff" d="M38.91 39.924l2.603-1.503V26.157c0-.583-.261-1.13-.7-1.497l2.556-4.077 2.168-3.966.228.06a1.98 1.98 0 0 0 .496.064l.102-.002c.302-.016.909-.116 1.584-.613.81-.591 1.094-1.555 1.179-1.942.015-.066.026-.133.033-.201l.808-7.3c.062-.377.09-1.077-.335-1.739a2.22 2.22 0 0 0-.993-.842L42.005.272c-.171-.099-.355-.171-.549-.214a2.34 2.34 0 0 0-.52-.058h0c-1.064 0-1.797.704-1.995.919l-4.913 5.525-.461-.267a2.3 2.3 0 0 0-1.146-.305c-.429 0-.864.12-1.259.346l-3.576 2.065c-.468.266-.877.683-1.176 1.2-.295.51-.451 1.067-.453 1.611v3.107l-.102-.059a2.3 2.3 0 0 0-1.146-.305c-.429 0-.863.119-1.259.345l-3.576 2.065c-.468.266-.877.683-1.177 1.2-.294.51-.45 1.067-.452 1.61v2.544l-.103-.059a2.29 2.29 0 0 0-1.146-.305c-.429 0-.863.119-1.259.345l-3.576 2.065c-.468.266-.877.683-1.176 1.2s-.451 1.068-.453 1.611v2.865a2.31 2.31 0 0 0-.869-.169c-.429 0-.864.12-1.259.345l-3.576 2.066c-.465.263-.876.681-1.176 1.2-.296.514-.452 1.071-.454 1.615v.139c-.373.194-.676.506-.859.891-.394.825-1.134 2.473-1.675 4.233C.224 41.072 0 42.315 0 43.337c.001 2.02.876 3.64 2.347 4.363l.899.52c-.031.14-.048.285-.048.434l.001 2.179c0 .524.149 1.015.419 1.414l1.717-.996L38.91 39.924z"/><path fill="#005273" d="M16.779 57.856L5.335 51.25l26.794-15.24 14.078 8.127z"/><path d="M37.196 29.358l-2.506 3.27v8.979c0 .415.29.585.651.377l3.568-2.06a1.45 1.45 0 0 0 .651-1.13V26.157l-2.364 3.201z" class="D"/><path d="M27.909 28.714v8.978c0 .167.047.295.127.374l6.781 3.915c-.08-.079-.127-.207-.127-.374v-8.979l-6.781-3.914z" class="E"/><path d="M32.78 22.242l-2.365 3.202-2.506 3.27 6.781 3.914 2.506-3.27 2.365-3.201-6.781-3.915z" class="F"/><path d="M29.415 38.79l-2.438 2.602v4.669c0 .414.29.582.65.376l3.57-2.06c.359-.208.649-.713.649-1.13l.003-7.175-2.434 2.718z" class="C"/><path d="M20.195 37.477v4.67c0 .178.053.31.143.387l6.781 3.915c-.09-.077-.143-.21-.143-.388v-4.669l-6.781-3.915z" class="B"/><path d="M20.195 37.477l2.438-2.601 2.435-2.718 6.781 3.914-2.435 2.718-2.438 2.602-6.781-3.915z" class="H"/><path d="M21.676 46.41l-2.412 1.927-.002 2.176c.002.417.294.585.653.377l3.569-2.062c.358-.207.651-.713.651-1.128l-.002-3.458-2.457 2.168z" class="D"/><path d="M12.482 44.422l-.002 2.176c.001.195.065.337.171.41l6.781 3.914c-.105-.073-.17-.214-.171-.409l.002-2.176-6.781-3.915z" class="E"/><path d="M12.482 44.422l2.412-1.927 2.458-2.167 6.781 3.914-2.458 2.168-2.412 1.927-6.781-3.915z" class="F"/><path d="M14.383 51.562c-1.187.664-1.998.911-2.452 1.005l.001 2.179c0 .416.291.584.649.377l3.568-2.061c.361-.206.652-.712.652-1.129v-1.835l-2.418 1.464z" class="C"/><path d="M5.149 48.652l.001 2.18c0 .204.069.348.185.418l6.781 3.914c-.115-.069-.185-.214-.185-.418l-.001-2.179-6.781-3.915z" class="B"/><g class="H"><path d="M10.021 46.184l-2.419 1.465c-1.187.663-1.997.911-2.452 1.004l6.781 3.915c.454-.094 1.266-.341 2.452-1.005l2.419-1.464-6.781-3.915z"/><path d="M36.192 10.02c.097.05.13.165.007.373 0 0-4.399 8.81-12.874 18.595-5.805 6.706-7.767 8.438-12.818 12.607-1.41 1.165-5.399 3.642-6.896 2.415l6.781 3.914c1.497 1.228 5.486-1.25 6.896-2.415 5.052-4.169 7.014-5.9 12.818-12.606 8.475-9.785 12.874-18.595 12.874-18.595.123-.208.09-.323-.007-.373l-6.781-3.915z"/></g><path d="M34.549 9.087c-.019.292.164.517.164.517l6.78 3.915s-.182-.225-.163-.517l-6.781-3.915z" class="B"/><path d="M34.549 9.087c.021-.319.326-.66.326-.66l5.5-6.186s.326-.354.652-.281l6.781 3.915c-.326-.073-.652.281-.652.281l-5.5 6.186s-.305.341-.326.66l-6.781-3.915z" class="G"/><path d="M37.196 20.845l2.365-3.601v-5.042c0-.207-.072-.352-.189-.42s-.281-.059-.462.044l-3.568 2.062c-.181.103-.344.281-.462.486s-.19.435-.191.643v9.372l2.507-3.544z" class="D"/><path d="M27.907 20.474v-9.372c.001-.208.074-.438.192-.643l6.78 3.915c-.117.204-.19.435-.191.643v9.372l-6.781-3.915z" class="E"/><path d="M28.1 10.459c.117-.205.28-.383.461-.486l3.568-2.062c.181-.103.344-.112.462-.044l6.781 3.915c-.118-.068-.281-.059-.462.044l-3.568 2.062c-.181.103-.344.281-.462.486l-6.78-3.915z" class="F"/><path d="M29.455 30.865l2.393-2.844V20.17c.002-.416-.291-.586-.65-.377l-3.57 2.062c-.36.207-.65.711-.65 1.127v10.763l2.477-2.88z" class="C"/><path d="M20.195 29.831V19.068c.001-.208.074-.438.192-.643l6.78 3.915c-.117.205-.19.435-.191.643v10.763l-6.781-3.915z" class="B"/><path d="M20.388 18.425c.117-.205.28-.383.461-.486l3.568-2.061c.181-.103.344-.113.462-.044l6.781 3.915c-.118-.068-.281-.059-.462.044l-3.568 2.061c-.181.103-.344.281-.462.486l-6.78-3.915z" class="G"/><path d="M21.699 39.09l2.437-2.359.001-9.161c-.001-.416-.294-.583-.652-.375l-3.569 2.06c-.36.208-.653.713-.651 1.13v10.931l2.434-2.226z" class="D"/><path d="M12.482 37.4V26.47c.001-.208.074-.438.192-.643l6.78 3.915c-.117.205-.19.436-.191.644v10.93L12.482 37.4z" class="E"/><path d="M12.675 25.827c.117-.205.28-.383.461-.486l3.568-2.061c.181-.103.344-.113.462-.044l6.781 3.915c-.118-.068-.281-.058-.462.045l-3.568 2.061a1.31 1.31 0 0 0-.462.485l-6.78-3.915z" class="F"/><path d="M13.607 45.142c.77-.339 1.701-.762 3.194-1.847v-7.808c0-.414-.292-.583-.65-.376l-3.57 2.062a1.45 1.45 0 0 0-.65 1.129v7.342c.353-.045.916-.168 1.676-.502z" class="C"/><path d="M5.149 41.729v-7.343c.001-.208.074-.438.192-.643l6.78 3.915c-.117.204-.19.436-.191.644v7.341l-6.781-3.914z" class="B"/><path d="M5.342 33.744c.117-.204.28-.384.461-.486l3.568-2.061c.181-.104.344-.112.462-.044l6.781 3.914c-.118-.068-.281-.058-.462.045l-3.568 2.062c-.181.103-.344.281-.462.485l-6.78-3.915z" class="G"/><path d="M44.345 14.625s.225-.317.347-.248l1.568.412s.225-.012.529-.236.429-.786.429-.786l.815-7.364s.102-.457-.225-.527-.652.281-.652.281l-5.5 6.186s-.305.341-.326.66a.82.82 0 0 0 .163.517l1.48.416c.096.05.13.165.007.373 0 0-4.399 8.81-12.874 18.595-5.805 6.706-7.767 8.438-12.818 12.606-1.41 1.165-5.399 3.643-6.896 2.415-1.075-.877.062-4.544.497-5.81l-.007-1.951c-.523 1.099-2.148 4.694-2.149 7.088.001 1.31.487 2.263 1.305 2.635.96.438 2.346.137 3.476-.346 2.092-.893 4.809-2.588 8.203-5.582s7.469-7.134 11.298-11.95 6.871-9.296 8.664-12.401 2.666-4.983 2.666-4.983z" class="C"/><path d="M1.951 43.337c.001 1.31.487 2.262 1.305 2.634l6.781 3.915c-.817-.372-1.304-1.325-1.305-2.635l-6.781-3.914z" class="B"/><path d="M9.31 44.131c-.331 1.076-.577 2.189-.577 3.12l-6.781-3.914c0-.932.246-2.044.578-3.12l6.78 3.914z" class="H"/><path d="M2.529 40.217c.52-1.692 1.251-3.297 1.571-3.968l6.781 3.914c-.32.672-1.052 2.275-1.572 3.968l-6.78-3.914z" class="G"/></svg>