<svg xmlns="http://www.w3.org/2000/svg" width="50" height="51" viewBox="0.001 0 50 51" overflow="visible"><path fill="#66b8d9" d="M19.977 0h0c-3.351-.001-7.027 3.205-8.742 7.623L.841 34.41c-1.591 4.1-.88 7.849 1.771 9.328l1.573.908c.35.883 1.051 1.663 2.041 2.238l6.321 3.601a2.04 2.04 0 0 0 .537.213 4.02 4.02 0 0 0 .939.104c.372 0 .773-.041 1.226-.123l16.608-3.03c2.624-.479 6.579-2.411 9.004-4.399.034-.027.068-.058.101-.088l7.46-6.97c1.436-1.34 1.947-3.261 1.304-4.895-.66-1.676-2.334-2.677-4.475-2.677-.065 0-.132.001-.199.003l-6.655.236 4.275-11.016c1.629-4.194.899-7.94-1.811-9.353l-7.116-4.109c-.016-.009-.03-.018-.046-.026-.556-.302-1.17-.484-1.826-.544a5.45 5.45 0 0 0-.461-.02c-.824 0-1.689.198-2.553.579L22.312.59c-.016-.009-.03-.018-.046-.026-.558-.303-1.174-.486-1.831-.543A4.9 4.9 0 0 0 19.977 0h0z"/><path fill="#005273" d="M28.086 31.307l17.024-.622c2.976-.083 3.595 2.425 1.906 4.001l-7.461 6.97c-2.162 1.772-5.772 3.547-8.067 3.966l-16.61 3.03c-.574.105-1.012.115-1.31.043l-6.307-3.593c-1.059-.614-1.538-1.527-1.122-2.423.205-.442.602-.823 1.124-1.125l16.629-9.6c1.061-.61 2.641-.888 4.194-.647z"/><path fill="#145ecc" d="M10.778 46.072c.321.191.635.277 1.05.314 2.483.223 5.662-2.594 7.099-6.294l2.7-6.957 5.779 3.337c.32.189.636.279 1.05.315 2.484.221 5.662-2.598 7.098-6.297l5.197-13.393c1.233-3.175.85-5.93-.875-6.796l-7.161-4.135a2.62 2.62 0 0 0-1.025-.302c-.914-.082-1.92.251-2.9.884-.131-.104-.197-.164-.347-.24l-7.161-4.134c-.302-.164-.645-.268-1.025-.301-2.484-.223-5.663 2.594-7.1 6.295L2.763 35.156c-1.209 3.115-.793 5.862.854 6.782l7.161 4.134z"/><path fill="#003b94" d="M27.406 36.473c-1.647-.92-2.063-3.668-.854-6.783l-7.16-4.135c-1.21 3.116-.794 5.864.854 6.784l7.16 4.134z"/><path fill="#2d78e8" d="M31.751 16.295c1.437-3.7 4.615-6.517 7.099-6.295.381.034.725.137 1.026.302l-7.161-4.135a2.62 2.62 0 0 0-1.025-.302c-2.483-.221-5.662 2.595-7.1 6.295l7.161 4.135z"/><path fill="#0048b2" d="M24.59 12.16l-5.198 13.395 7.16 4.134 5.199-13.394z"/><path fill="#145ecc" d="M40.751 17.098c1.437-3.699.583-6.875-1.9-7.099s-5.665 2.597-7.1 6.295l-5.199 13.395c-1.433 3.697-.581 6.875 1.904 7.099s5.662-2.598 7.098-6.297l5.197-13.393z"/><path fill="#e0a600" d="M20.317 12.502l-7.161-4.133L2.763 35.156l7.16 4.134z"/><path fill="#125c26" d="M9.923 39.29c-1.209 3.115-.793 5.863.855 6.782l-7.161-4.134c-1.647-.92-2.063-3.667-.854-6.782l7.16 4.134z"/><path fill="#fcbc05" d="M20.317 12.502c1.437-3.7 4.615-6.517 7.099-6.295a2.58 2.58 0 0 1 1.026.302l-7.161-4.134c-.302-.164-.645-.268-1.025-.301-2.484-.223-5.663 2.594-7.1 6.295l7.161 4.133z"/><path fill="#bf8e00" d="M18.927 40.093c-1.437 3.7-4.615 6.517-7.099 6.294s-3.34-3.4-1.905-7.097l10.395-26.788c1.437-3.7 4.615-6.517 7.099-6.295s3.34 3.402 1.904 7.097L18.927 40.093z"/><path fill="#2a8c44" d="M18.927 40.093c-1.437 3.7-4.615 6.517-7.099 6.294s-3.34-3.4-1.905-7.097 4.614-6.517 7.102-6.296 3.335 3.402 1.902 7.099z"/></svg>