<svg xmlns="http://www.w3.org/2000/svg" width="50" height="55" overflow="visible"><path fill="#66b8d9" d="M19.723 0c-1.834 0-3.59.43-4.945 1.211-1.69.975-2.66 2.455-2.66 4.06 0 .409.064.819.191 1.22l1.104 3.438-12.37 7.145A2.08 2.08 0 0 0 0 18.88l.002 20.35a2.09 2.09 0 0 0 1.043 1.807l22.913 13.229c.322.187.683.279 1.043.279a2.08 2.08 0 0 0 1.042-.279L48.957 41.04c.646-.373 1.043-1.06 1.043-1.806s-.396-1.434-1.043-1.807l-9.529-5.505-.002-13.042c0-.745-.397-1.434-1.042-1.806L26.029 9.938l1.102-3.439c.125-.375.194-.796.194-1.228 0-1.604-.97-3.083-2.657-4.059C23.312.43 21.556 0 19.723 0h0z"/><path fill="#005273" d="M37.342 33.127l.002 6.109-17.63 10.171 5.287 3.053 22.913-13.226z"/><path fill="#ff6c40" d="M19.714 8.699L37.34 18.88 19.714 29.053 2.086 18.88z"/><path fill="#cc3000" d="M2.086 18.88l.002 20.35 17.626 10.177V29.053z"/><path fill="#8c2100" d="M37.34 18.88L19.714 29.053v20.354L37.34 39.23z"/><g fill="#1b193a"><path d="M23.86 14.238v-4.37l1.284-4.006c.064-.191.095-.388.095-.591 0-.879-.618-1.677-1.614-2.252s-2.38-.933-3.902-.933-2.903.356-3.903.933-1.616 1.373-1.616 2.252c0 .203.034.4.094.591l1.286 4.006v4.37c-.66.213-4.138 2.39-4.138 4.642 0 1.32.925 2.515 2.424 3.379s3.568 1.399 5.854 1.399 4.354-.536 5.852-1.399 2.425-2.06 2.425-3.379c-.002-2.253-3.48-4.429-4.141-4.642z"/><path d="M19.723 12.258c-1.144 0-2.179-.268-2.929-.699s-1.213-1.03-1.211-1.691l-1.286-4.006c.21.643.752 1.218 1.522 1.663.996.577 2.378.933 3.903.933v3.8z"/><path d="M19.723 8.458c1.523 0 2.902-.356 3.902-.933.767-.445 1.311-1.021 1.52-1.663L23.86 9.868c0 .661-.463 1.257-1.213 1.691s-1.783.699-2.925.699v-3.8z"/></g><path fill="#47456d" d="M19.723 8.458c-1.525 0-2.907-.356-3.903-.933-.771-.445-1.312-1.021-1.522-1.663-.06-.191-.094-.388-.094-.591 0-.879.618-1.677 1.616-2.252s2.378-.933 3.903-.933 2.902.356 3.902.933 1.614 1.373 1.614 2.252a1.82 1.82 0 0 1-.095.591c-.209.643-.753 1.218-1.52 1.663-.999.577-2.378.933-3.901.933z"/><path fill="#2f2c54" d="M19.723 12.258c-1.144 0-2.179-.268-2.929-.699s-1.213-1.03-1.211-1.691v4.37c-.002.659.464 1.257 1.211 1.69s1.785.699 2.929.699v-4.369z"/><path fill="#1b193a" d="M19.723 12.258c1.142 0 2.176-.268 2.925-.699s1.213-1.03 1.213-1.691v4.37c0 .659-.463 1.257-1.213 1.69s-1.783.699-2.925.699v-4.369z"/><path fill="#2f2c54" d="M19.723 23.659c2.286 0 4.354-.536 5.852-1.399S28 20.2 28 18.881c0-2.252-3.478-4.429-4.139-4.642 0 .659-.463 1.257-1.213 1.69s-1.783.699-2.925.699v7.031z"/><path fill="#47456d" d="M19.723 16.627c-1.144 0-2.179-.268-2.929-.699s-1.213-1.031-1.211-1.69c-.66.213-4.138 2.39-4.138 4.642 0 1.32.925 2.515 2.424 3.379s3.568 1.399 5.854 1.399v-7.031z"/></svg>