<svg xmlns="http://www.w3.org/2000/svg" width="50" height="48" overflow="visible"><path fill="#66b8d9" d="M19.713 0c-.36 0-.721.093-1.043.279L1.043 10.456A2.09 2.09 0 0 0 0 12.263v20.355a2.09 2.09 0 0 0 1.043 1.808l22.914 13.229a2.09 2.09 0 0 0 1.043.279 2.1 2.1 0 0 0 1.043-.279L48.956 34.43c.648-.375 1.044-1.063 1.044-1.808a2.09 2.09 0 0 0-1.041-1.808l-9.532-5.503V12.267c0-.745-.396-1.434-1.042-1.807L20.756.279C20.434.093 20.074 0 19.713 0h0z"/><path fill="#005273" d="M19.713 42.797L25 45.85l22.914-13.228-10.573-6.107v6.103z"/><path fill="#ff6c40" d="M37.341 12.267L19.713 22.44 2.086 12.263 19.713 2.086z"/><path fill="#cc3000" d="M2.086 12.263L19.713 22.44v20.357L2.086 32.618z"/><path fill="#8c2100" d="M19.713 42.797V22.44l17.628-10.177v20.355z"/></svg>