<svg xmlns="http://www.w3.org/2000/svg" width="50" height="48" overflow="visible"><style><![CDATA[.B{fill:#2f2c54}.C{fill:#1b193a}.D{fill:#47456d}.E{fill:#66b8d9}.F{fill:#ffff40}.G{fill:#ccf1ff}]]></style><path d="M19.713 0a2.07 2.07 0 0 0-1.042.28l-4.51 2.604c-.451-.234-.961-.364-1.497-.365a3.35 3.35 0 0 0-.551.046 1.99 1.99 0 0 0-.328-.026c-.36 0-.719.093-1.042.279L7.218 4.854a2.09 2.09 0 0 0-1.043 1.807v.836l-5.133 2.964C.397 10.833 0 11.522 0 12.267l.002 20.35c0 .745.397 1.434 1.042 1.806l22.913 13.23a2.08 2.08 0 0 0 1.043.28c.36 0 .721-.093 1.043-.279l22.913-13.227C49.603 34.055 50 33.366 50 32.62s-.397-1.433-1.043-1.806l-9.531-5.505V12.267c0-.745-.397-1.434-1.042-1.806L20.757.28C20.434.093 20.073 0 19.713 0h0z" class="E"/><path fill="#005273" d="M19.713 42.794L25 45.847 47.913 32.62l-10.572-6.107v6.104z"/><path fill="#ff6c40" d="M19.713 2.086l17.628 10.181-17.628 10.172L2.087 12.267z"/><path fill="#cc3000" d="M2.087 12.267v20.35l17.626 10.177V22.439z"/><path fill="#8c2100" d="M37.341 12.267L19.713 22.439v20.355l17.628-10.177z"/><path d="M8.26 6.661v2.04l.885-.513 17.627 10.179.877 1.525.002-2.035z" class="B"/><path fill="#080619" d="M27.649 39.229l-.882-.509.002-20.354.88 1.526z"/><path d="M31.175 15.822l-3.524 2.035-.002 21.372 3.526-2.036z" class="C"/><path d="M27.651 17.857l3.526-2.036L11.785 4.625 8.26 6.661z" class="D"/><path d="M30.296 17.349c.65.375.794 1.343.323 2.161s-1.384 1.176-2.033.8c-.473-.273-.475-1.158-.002-1.976s1.237-1.259 1.712-.985z" class="B"/><ellipse transform="matrix(-.5002 .8659 -.8659 -.5002 61.6513 2.7525)" cx="30.031" cy="19.17" rx="1.175" ry=".679" class="C"/><path d="M10.95 7.14c0-.75.768-1.359 1.711-1.359s1.708.609 1.708 1.359c0 .547-.766.99-1.708.99s-1.711-.443-1.711-.99z" class="B"/><ellipse cx="12.661" cy="6.459" rx="1.175" ry=".679" class="D"/><path d="M15.96 10.033c0-.75.768-1.36 1.711-1.36s1.708.609 1.708 1.36c0 .547-.764.989-1.708.99s-1.711-.443-1.711-.99z" class="B"/><ellipse cx="17.671" cy="9.352" rx="1.176" ry=".679" class="D"/><path d="M20.972 12.926c0-.75.766-1.36 1.711-1.36s1.708.608 1.708 1.36c0 .547-.766.989-1.71.99s-1.709-.443-1.709-.99z" class="B"/><ellipse cx="22.683" cy="12.245" rx="1.176" ry=".678" class="D"/><path d="M25.983 15.819c0-.75.766-1.36 1.709-1.36s1.708.608 1.708 1.36c0 .547-.764.989-1.708.99s-1.709-.443-1.709-.99z" class="B"/><ellipse cx="27.692" cy="15.138" rx="1.176" ry=".678" class="D"/><path d="M30.296 23.135c.65.375.794 1.343.323 2.16s-1.384 1.176-2.033.8c-.473-.273-.475-1.158-.002-1.975s1.237-1.259 1.712-.985z" class="B"/><ellipse transform="matrix(-.5009 .8655 -.8655 -.5009 66.6712 11.4633)" cx="30.03" cy="24.956" rx="1.176" ry=".68" class="C"/><path d="M30.296 28.92c.65.375.794 1.343.323 2.161s-1.384 1.176-2.033.8c-.473-.273-.475-1.158-.002-1.976s1.237-1.258 1.712-.985z" class="B"/><ellipse transform="matrix(-.5003 .8658 -.8658 -.5003 71.6739 20.1207)" cx="30.031" cy="30.741" rx="1.175" ry=".679" class="C"/><path d="M30.296 34.705c.65.375.794 1.345.323 2.162s-1.384 1.176-2.033.799c-.473-.272-.475-1.158-.002-1.975s1.237-1.258 1.712-.986z" class="B"/><ellipse transform="matrix(-.4999 .8661 -.8661 -.4999 76.6787 28.7758)" cx="30.031" cy="36.526" rx="1.176" ry=".679" class="C"/><g class="F"><circle cx="30.619" cy="19.509" r="1.175"/><circle cx="12.661" cy="5.78" r="1.175"/></g><circle cx="17.671" cy="8.673" r="1.176" class="E"/><circle cx="22.683" cy="11.566" r="1.176" class="F"/><g class="E"><circle cx="27.692" cy="14.459" r="1.176"/><path d="M30.031 26.312c-.562-.324-.755-1.042-.43-1.605s1.042-.754 1.604-.431.755 1.043.432 1.606-1.044.755-1.606.43z"/></g><circle cx="30.619" cy="31.08" r="1.176" class="F"/><circle cx="30.619" cy="36.866" r="1.176" class="E"/><g fill="#fff"><circle cx="31.038" cy="19.09" r=".414"/><circle cx="13.081" cy="5.361" r=".415"/></g><circle cx="18.09" cy="8.254" r=".415" class="G"/><path fill="#fff" d="M23.516 11.146c0 .229-.187.414-.412.414-.231 0-.416-.184-.416-.414s.185-.413.414-.413.414.185.414.413z"/><g class="G"><circle cx="28.112" cy="14.039" r=".415"/><circle cx="31.038" cy="24.875" r=".414"/></g><circle fill="#fff" cx="31.038" cy="30.662" r=".414"/><circle cx="31.038" cy="36.447" r=".414" class="G"/></svg>