<svg xmlns="http://www.w3.org/2000/svg" width="50" height="54" overflow="visible"><path fill="#66b8d9" d="M48.957 36.629l-9.531-5.506V18.081c0-.745-.397-1.434-1.042-1.806L28.94 10.82c.176-.74.293-1.472.336-2.177l.02-.657c0-2.663-1.048-4.795-2.872-5.85L23.928.695C23.128.234 22.229 0 21.256 0c-1.241 0-2.53.381-3.83 1.133-1.982 1.144-3.822 3.071-5.181 5.427a16.37 16.37 0 0 0-1.723 4.239l-9.48 5.475C.397 16.647 0 17.335 0 18.081l.002 20.351c0 .744.397 1.433 1.042 1.806l22.913 13.229a2.08 2.08 0 0 0 1.043.28c.36 0 .721-.094 1.043-.28l22.913-13.226A2.08 2.08 0 0 0 50 38.435c0-.746-.397-1.433-1.043-1.806z"/><path fill="#005273" d="M19.713 48.607L25 51.66l22.913-13.225-10.572-6.108v6.105z"/><path fill="#ff6c40" d="M19.713 7.899l17.628 10.182-17.628 10.172L2.087 18.081z"/><path fill="#cc3000" d="M2.087 18.081v20.351l17.626 10.175V28.253z"/><path fill="#8c2100" d="M37.341 18.081L19.713 28.253v20.354l17.628-10.175z"/><path fill="#591500" d="M23.18 13.673c1.149-.663 3.014-.663 4.165 0s1.148 1.741 0 2.404l-11.104 6.41c-1.151.664-3.014.664-4.165 0s-1.148-1.74 0-2.404l11.104-6.41z"/><path fill="#1b193a" d="M16.548 19.24c1.132.652 2.691.559 4.417-.436s3.286-2.706 4.417-4.666c1.028-1.783 1.703-3.772 1.812-5.619l.018-.534c-.002-1.992-.701-3.391-1.831-4.043l-2.495-1.441c-1.13-.652-2.692-.559-4.417.438s-3.287 2.705-4.416 4.663-1.828 4.163-1.828 6.154.698 3.391 1.829 4.042l2.494 1.442z"/><path fill="#2f2c54" d="M14.719 15.198c0 1.991.698 3.391 1.829 4.042s2.691.56 4.417-.436 3.286-2.706 4.417-4.666c1.028-1.783 1.703-3.772 1.812-5.619l.018-.534c-.002-1.992-.701-3.391-1.831-4.043s-2.692-.558-4.415.438-3.287 2.705-4.417 4.663-1.83 4.163-1.83 6.155z"/><path fill="#1b193a" d="M15.344 14.837c0 3.583 2.517 5.037 5.619 3.245s5.623-6.152 5.623-9.737-2.517-5.037-5.621-3.244-5.621 6.152-5.621 9.736z"/><path fill="#47456d" d="M15.344 14.837c0-3.584 2.519-7.944 5.621-9.736 1.488-.86 2.838-.966 3.844-.456.944.615 1.527 1.837 1.527 3.555 0 .097 0 .195-.006.293-.13 3.526-2.595 7.7-5.617 9.444-1.486.859-2.834.965-3.842.456-.944-.615-1.527-1.837-1.527-3.556z"/><path fill="#1b193a" d="M19.134 12.672l2.553-1.472.25.144v.974l-2.534 1.463a1.2 1.2 0 0 0 .243.283 1.14 1.14 0 0 0 .583.077c.273-.036.575-.148.903-.338.355-.205.681-.47.976-.799s.561-.726.804-1.189l1.034.515.25.144c-.328.664-.74 1.26-1.236 1.793a7.07 7.07 0 0 1-1.658 1.329c-.549.317-1.057.509-1.522.573s-.868.004-1.209-.177c-.041-.022-.069-.06-.108-.084l-.142-.06c-.342-.183-.606-.475-.793-.877-.012-.026-.02-.061-.028-.09l-.979.565-.25-.144v-.974l1-.577c-.006-.103-.027-.19-.025-.299 0-.009.002-.019.004-.027l-.729.419-.251-.144v-.974l1.152-.667.104-.454c.187-.619.451-1.216.793-1.792s.745-1.102 1.209-1.575.974-.869 1.523-1.188c.609-.352 1.16-.549 1.659-.591.44-.039.813.06 1.12.28.13.059.254.128.364.223L23.16 8.675a1.24 1.24 0 0 0-.803-.249c-.295.013-.62.12-.975.324-.327.188-.631.426-.904.708a4.74 4.74 0 0 0-.712.945c-.082.139-.151.282-.215.426l2.135-1.23.25.144v.974l-2.781 1.605-.023.327c0 .009.002.015.002.023z"/><path fill="#74729e" d="M19.132 12.649c0 .11.015.201.023.299l2.781-1.604v.974l-2.534 1.463c.1.16.213.296.364.38.198.118.437.158.712.124s.575-.148.904-.337c.354-.205.678-.471.975-.799s.562-.726.803-1.189l1.035.515c-.328.664-.74 1.26-1.236 1.793a7.07 7.07 0 0 1-1.658 1.329c-.549.317-1.057.509-1.522.573s-.868.004-1.209-.177-.605-.475-.794-.877c-.044-.099-.069-.223-.103-.335l-1.153.666v-.974l1-.576c-.007-.103-.026-.19-.024-.3s.018-.219.024-.328l-1 .577v-.976l1.153-.666.103-.454a8.19 8.19 0 0 1 .794-1.792 8.23 8.23 0 0 1 1.209-1.574c.466-.473.974-.869 1.522-1.187.611-.352 1.161-.549 1.658-.592s.908.078 1.236.359L23.16 8.675a1.24 1.24 0 0 0-.803-.249c-.295.013-.62.12-.975.324-.327.188-.631.426-.904.708a4.74 4.74 0 0 0-.712.945 4.73 4.73 0 0 0-.364.802l2.534-1.462v.974l-2.781 1.605-.023.327z"/><path fill="#47456d" d="M14.053 17.798c-1.131-.651-1.829-2.051-1.829-4.042s.698-4.197 1.828-6.154l2.496 1.441c-1.131 1.957-1.829 4.163-1.829 6.155s.698 3.391 1.829 4.042l-2.495-1.442z"/><path fill="#74729e" d="M14.052 7.602c1.129-1.958 2.691-3.667 4.416-4.663s3.287-1.089 4.417-.438l2.495 1.441c-1.129-.651-2.692-.558-4.415.438s-3.287 2.705-4.417 4.663l-2.496-1.441z"/></svg>