<svg xmlns="http://www.w3.org/2000/svg" width="50" height="48" overflow="visible"><path fill="#e0e0e0" d="M20.752.279a2.08 2.08 0 0 0-2.085.001L1.042 10.46C.396 10.833 0 11.521 0 12.266l.002 20.35c0 .745.397 1.434 1.042 1.806l22.913 13.229A2.08 2.08 0 0 0 25 47.93c.36 0 .721-.093 1.043-.279l22.913-13.226A2.08 2.08 0 0 0 50 32.62c0-.745-.397-1.434-1.043-1.807l-9.529-5.505-.002-13.042c0-.744-.397-1.433-1.042-1.806L20.752.279z"/><path fill="#bdbdbd" d="M37.341 26.513l.002 6.108-17.63 10.171L25 45.845 47.913 32.62z"/><path fill="#d6d6d6" d="M19.713 2.085l17.626 10.181-17.626 10.172L2.085 12.266z"/><path fill="#cfcfcf" d="M2.085 12.266l.002 20.35 17.626 10.176V22.438z"/><path fill="#c7c7c7" d="M37.339 12.266L19.713 22.438v20.354l17.626-10.176z"/></svg>