<svg xmlns="http://www.w3.org/2000/svg" width="50" height="48" viewBox="0 0.002 50 48" overflow="visible"><path fill="#66b8d9" d="M19.714.002c-.361 0-.722.092-1.044.279L1.043 10.458A2.09 2.09 0 0 0 0 12.265v20.356a2.09 2.09 0 0 0 1.043 1.807l22.914 13.229a2.09 2.09 0 0 0 1.043.279 2.1 2.1 0 0 0 1.043-.279l22.913-13.225c.648-.375 1.044-1.063 1.044-1.809a2.09 2.09 0 0 0-1.041-1.807l-9.532-5.504V12.269c0-.745-.396-1.434-1.042-1.807L20.756.281c-.323-.187-.682-.279-1.042-.279h0z"/><path fill="#005273" d="M19.714 42.797L25 45.85l22.914-13.227-10.573-6.107v6.105z"/><path fill="#47456d" d="M37.341 12.269L19.714 22.442 2.086 12.265 19.714 2.088z"/><path fill="#2f2c54" d="M2.086 12.265l17.628 10.177v20.355L2.086 32.621z"/><path fill="#1b193a" d="M19.714 42.797V22.442l17.627-10.177v20.356z"/><path fill="#fff" d="M34.661 13.313c-3.383 0-6.135-2.752-6.135-6.135s2.752-6.134 6.135-6.134h7.446c3.382 0 6.134 2.751 6.134 6.134s-2.752 6.135-6.134 6.135h-7.446z"/><path fill="#66b8d9" d="M42.107 2.088a5.09 5.09 0 1 1 0 10.181h-7.446c-2.812 0-5.091-2.28-5.091-5.091a5.09 5.09 0 0 1 5.091-5.09h7.446m0-2.088h-7.446a7.19 7.19 0 0 0-7.179 7.178 7.19 7.19 0 0 0 7.179 7.179h7.446a7.19 7.19 0 0 0 7.178-7.179A7.19 7.19 0 0 0 42.107 0h0z"/><path d="M34.141 10.18V4.176h1.623V8.87h2.312v1.311h-3.935zm7.023 0h-1.621V5.502h-1.467V4.176h4.552v1.327h-1.464v4.677z" fill="#1b193a"/></svg>