<svg xmlns="http://www.w3.org/2000/svg" width="50" height="48" viewBox="-2.76 0 50 48" overflow="visible"><path fill="#66b8d9" d="M15.94 0h0c-1.665 0-3.189.394-4.533 1.169l-6.325 3.65c-.797.439-1.552 1.04-2.208 1.767l-.141.159C.945 8.819.001 11.787 0 15.33h0 0c0 8.802 5.91 19.392 13.489 24.212.067.053.14.102.216.146l13.854 7.999a1.85 1.85 0 0 0 1.85 0l14.146-8.166a1.85 1.85 0 0 0 0-3.205l-7.259-4.193c.577-1.579.879-3.401.879-5.371 0-4.43-1.471-9.419-4.143-14.048S26.776 4.306 22.933 2.087C20.568.722 18.15 0 15.94 0h0z"/><path fill="#005273" d="M15.368 38.046l13.116 7.572 13.338-7.7-14.669-8.473z"/><path fill="#005a94" d="M6.095 6.837c-2.372 1.372-3.839 4.311-3.841 8.493 0 8.365 5.867 18.532 13.114 22.716 3.621 2.09 6.899 2.287 9.274.917l6.437-3.717c2.373-1.371 3.842-4.309 3.842-8.494 0-4.179-1.469-8.812-3.84-12.921s-5.653-7.701-9.274-9.792-6.9-2.289-9.272-.918l-6.44 3.716z"/><path fill="#0064a3" d="M15.368 38.046c7.241 4.181 13.116.789 13.116-7.576S22.612 11.936 15.368 7.757 2.256 6.966 2.254 15.33s5.867 18.532 13.114 22.716z"/><path fill="#005a94" d="M24.643 17.545c2.373 4.111 3.842 8.744 3.842 12.925s-1.471 7.123-3.842 8.493l6.437-3.717c2.373-1.371 3.842-4.309 3.842-8.494 0-4.179-1.469-8.812-3.84-12.921l-6.439 3.714z"/><path fill="#0379c4" d="M31.081 13.831c-2.373-4.113-5.653-7.701-9.274-9.792s-6.9-2.289-9.272-.918l-6.44 3.716c2.373-1.37 5.652-1.173 9.273.919s6.9 5.678 9.274 9.789l6.439-3.714z"/><path fill="#f2f2f2" d="M16.374 14.296l.999.575-.985 6.318 3.048 1.758.047.026c.271.159.493.543.496.861.001.137-.11.303-.11.303l-5.485 7.395-1.013-.589 1.011-6.318-3.07-1.768-.048-.028c-.274-.158-.498-.544-.498-.861 0-.128.044-.217.107-.275l5.501-7.397z"/><path fill="#a6a6a6" d="M16.723 14.498l-4.976 6.69-.875.505 5.502-7.397z"/><path fill="#bfbfbf" d="M11.747 21.188c-.064.058-.107.147-.107.277a1.1 1.1 0 0 0 .497.86l-.874.504c-.274-.158-.498-.544-.498-.861 0-.128.044-.217.107-.275l.875-.505z"/><path fill="#d9d9d9" d="M12.137 22.325l3.118 1.795-.874.505-3.118-1.796z"/><path fill="#a6a6a6" d="M15.255 24.12l-1.011 6.318-.874.505 1.011-6.318z"/><path fill="#d9d9d9" d="M14.244 30.438l.664.386-.525.708-1.013-.589z"/></svg>