<svg xmlns="http://www.w3.org/2000/svg" width="103" height="103" viewBox="-11.455 -0.269 103 103" overflow="visible" fill="#0074a2">
  <path d="M65.176 11.187V7.458A7.46 7.46 0 0 0 57.718 0a7.46 7.46 0 0 0-7.457 7.458v3.729h-20.43V7.458A7.46 7.46 0 0 0 22.374 0a7.46 7.46 0 0 0-7.458 7.458v3.729H0v65.177c0 8.224 6.69 14.914 14.915 14.914l65.176-.002V26.102c0-8.225-6.691-14.915-14.915-14.915zM53.465 7.458a4.26 4.26 0 0 1 4.253-4.255 4.26 4.26 0 0 1 4.254 4.255v7.457a4.26 4.26 0 0 1-4.254 4.254 4.26 4.26 0 0 1-4.253-4.254V7.458zm-35.345 0a4.26 4.26 0 0 1 4.254-4.255 4.26 4.26 0 0 1 4.253 4.255v7.457a4.26 4.26 0 0 1-4.253 4.254 4.26 4.26 0 0 1-4.254-4.254V7.458zm58.767 80.614l-61.972.002c-6.457 0-11.711-5.253-11.711-11.71V29.306h73.683v58.766zm-36.84-52.91c-12.993 0-23.528 10.533-23.528 23.527s10.535 23.527 23.528 23.527a23.53 23.53 0 0 0 23.526-23.527 23.53 23.53 0 0 0-23.526-23.527zm8.882 26.453h-8.883a2.93 2.93 0 0 1-2.928-2.928V46.875a2.93 2.93 0 0 1 2.928-2.928 2.93 2.93 0 0 1 2.928 2.928v8.885h5.955a2.93 2.93 0 0 1 2.928 2.928 2.93 2.93 0 0 1-2.928 2.927z"/>
</svg>
