<svg xmlns="http://www.w3.org/2000/svg" width="103" height="103" viewBox="-11.455 -0.269 103 103" overflow="visible" fill="#0074a2">
  <path d="M65.176 11.187V7.458A7.46 7.46 0 0 0 57.718 0a7.46 7.46 0 0 0-7.457 7.458v3.729h-20.43V7.458A7.46 7.46 0 0 0 22.374 0a7.46 7.46 0 0 0-7.458 7.458v3.729H0v65.177c0 8.224 6.69 14.914 14.915 14.914l65.176-.002V26.102c0-8.225-6.691-14.915-14.915-14.915zM53.465 7.458a4.26 4.26 0 0 1 4.253-4.255 4.26 4.26 0 0 1 4.254 4.255v7.457a4.26 4.26 0 0 1-4.254 4.254 4.26 4.26 0 0 1-4.253-4.254V7.458zm-35.345 0a4.26 4.26 0 0 1 4.254-4.255 4.26 4.26 0 0 1 4.253 4.255v7.457a4.26 4.26 0 0 1-4.253 4.254 4.26 4.26 0 0 1-4.254-4.254V7.458zm58.767 80.614l-61.972.002c-6.457 0-11.711-5.253-11.711-11.71V29.306h73.683v58.766zm-19.164-5.853c-1.563 0-3.033-.609-4.139-1.715L40.046 66.966 26.509 80.503c-1.105 1.105-2.575 1.715-4.139 1.715a5.81 5.81 0 0 1-4.138-1.714c-2.281-2.281-2.281-5.995 0-8.277L31.77 58.691 18.233 45.155c-2.282-2.282-2.282-5.996-.001-8.278a5.81 5.81 0 0 1 4.137-1.713c1.564 0 3.033.608 4.14 1.715l13.537 13.536 13.537-13.537c1.104-1.104 2.574-1.713 4.138-1.713s3.034.608 4.14 1.714a5.81 5.81 0 0 1 1.714 4.138 5.82 5.82 0 0 1-1.715 4.139L48.322 58.691 61.86 72.228c2.281 2.281 2.28 5.995-.001 8.277-1.105 1.106-2.574 1.714-4.136 1.714h0z"/>
</svg>
