<svg width="110" height="25" viewBox="0 0 110 25" fill="none" xmlns="http://www.w3.org/2000/svg">
<g clip-path="url(#clip0)">
<path d="M0.0734863 8.97393H10.1465H16.2635V2.91182L0.0734863 8.97393Z" fill="#FF9D28"/>
<path d="M16.2629 2.91196V24.3399L23.9184 0.0549011L16.2629 2.91196Z" fill="#68C5ED"/>
<path d="M16.263 8.97377H10.146L16.263 24.3213V8.97377Z" fill="#044D80"/>
<path d="M0.0734863 8.97377L11.7215 12.9114L10.1465 8.97377H0.0734863Z" fill="#E54747"/>
<path d="M37.1784 18.6805C37.0868 18.772 36.9403 18.8819 36.7389 19.0101C36.5374 19.1383 36.2627 19.2849 35.933 19.4131C35.6034 19.5413 35.2004 19.6695 34.706 19.761C34.2298 19.8526 33.6803 19.9075 33.0577 19.9075C31.8672 19.9075 30.8233 19.7061 29.9442 19.3398C29.0651 18.9552 28.3508 18.4241 27.7831 17.7281C27.2153 17.0322 26.7941 16.2263 26.5377 15.2923C26.263 14.3582 26.1348 13.3143 26.1348 12.1971C26.1348 11.08 26.2813 10.036 26.5743 9.08367C26.8673 8.13132 27.2886 7.30716 27.8746 6.61121C28.4424 5.91526 29.175 5.36583 30.0358 4.98122C30.8965 4.59662 31.9222 4.39516 33.0943 4.39516C33.662 4.39516 34.1932 4.4501 34.651 4.54167C35.1089 4.65156 35.5301 4.76144 35.8781 4.90796C36.2261 5.05448 36.5191 5.201 36.7389 5.34751C36.977 5.49403 37.1418 5.64054 37.2517 5.73211C37.3799 5.842 37.5081 5.98852 37.5997 6.15335C37.6912 6.31818 37.7462 6.50133 37.7462 6.68447C37.7462 6.9775 37.6363 7.27053 37.4165 7.56356C37.1967 7.8566 36.9586 8.13131 36.6839 8.38772C36.5008 8.20457 36.2993 8.02143 36.0795 7.83828C35.8598 7.65514 35.6034 7.49031 35.3287 7.34379C35.0539 7.19728 34.7426 7.08739 34.3946 6.99582C34.0466 6.90425 33.662 6.8493 33.2225 6.8493C32.4716 6.8493 31.8306 6.99582 31.3178 7.30716C30.805 7.61851 30.402 8.00311 30.0907 8.49761C29.7794 8.9921 29.5596 9.54153 29.4314 10.1642C29.3032 10.7869 29.2299 11.4279 29.2299 12.0873C29.2299 12.7832 29.3032 13.4425 29.4314 14.0835C29.5596 14.7245 29.7977 15.274 30.1273 15.7685C30.457 16.263 30.8782 16.6476 31.4093 16.9406C31.9405 17.2336 32.5815 17.3801 33.369 17.3801C33.7902 17.3801 34.1565 17.3252 34.5045 17.2336C34.8525 17.1237 35.1638 16.9955 35.4202 16.849C35.6949 16.7025 35.9147 16.5377 36.1162 16.3912C36.3176 16.2263 36.4825 16.0798 36.6107 15.9699C36.7022 16.0798 36.7938 16.208 36.922 16.3545C37.0502 16.501 37.1601 16.6659 37.2517 16.8124C37.3616 16.9772 37.4348 17.1421 37.5264 17.3069C37.5996 17.4717 37.6363 17.6182 37.6363 17.7464C37.6363 17.9479 37.5996 18.0944 37.5264 18.2409C37.4531 18.3691 37.3249 18.5156 37.1784 18.6805ZM48.6067 16.9772C48.6067 18.1494 48.7715 19.0101 49.1195 19.5413C48.8448 19.6511 48.6067 19.7244 48.3686 19.761C48.1305 19.7977 47.8924 19.8343 47.636 19.8343C47.1049 19.8343 46.702 19.7244 46.4272 19.5229C46.1525 19.3215 45.9694 19.0101 45.8961 18.6255C45.5665 18.9735 45.1452 19.2665 44.5958 19.5046C44.0647 19.7427 43.4054 19.8526 42.6361 19.8526C42.2332 19.8526 41.8303 19.7977 41.4274 19.6878C41.0245 19.5779 40.6582 19.3947 40.3285 19.1383C39.9989 18.8819 39.7424 18.5523 39.5227 18.131C39.3212 17.7098 39.2113 17.197 39.2113 16.5926C39.2113 15.8417 39.3945 15.219 39.7608 14.7429C40.1271 14.2667 40.5849 13.9004 41.1344 13.6257C41.6838 13.351 42.2882 13.1678 42.9109 13.0579C43.5519 12.948 44.1379 12.8931 44.6691 12.8565C44.8522 12.8381 45.017 12.8381 45.2002 12.8381H45.6763V12.4352C45.6763 11.8675 45.5298 11.4646 45.2185 11.2082C44.9071 10.9701 44.4126 10.8419 43.735 10.8419C43.094 10.8419 42.5263 10.9517 42.0318 11.1532C41.5373 11.3547 41.0428 11.5928 40.5666 11.8675C40.3651 11.6111 40.182 11.3364 40.0721 11.025C39.9439 10.7137 39.889 10.4939 39.889 10.3474C39.889 10.1459 39.9989 9.94446 40.2369 9.743C40.475 9.54154 40.7864 9.3767 41.1893 9.21187C41.5922 9.04704 42.0501 8.93716 42.5812 8.82727C43.094 8.7357 43.6434 8.68075 44.2295 8.68075C45.0353 8.68075 45.713 8.75401 46.2624 8.91884C46.8119 9.08367 47.2697 9.34007 47.6177 9.66973C47.9657 10.0177 48.2221 10.4389 48.3686 10.9517C48.5151 11.4646 48.5884 12.0689 48.5884 12.7466L48.6067 16.9772ZM45.7496 14.3949H45.4383C45.3284 14.3949 45.2368 14.3949 45.1269 14.4132C44.7606 14.4498 44.3943 14.4865 44.028 14.5414C43.6618 14.5963 43.3321 14.7062 43.0574 14.8527C42.7827 14.9993 42.5446 15.2007 42.3614 15.4388C42.1783 15.6769 42.0867 15.9882 42.0867 16.3545C42.0867 16.7758 42.1966 17.1237 42.4347 17.4168C42.6728 17.7098 43.0757 17.8563 43.6434 17.8563C43.9182 17.8563 44.1929 17.8197 44.4493 17.7464C44.7057 17.6732 44.9255 17.5816 45.1269 17.4534C45.3284 17.3252 45.4749 17.197 45.5848 17.0688C45.6947 16.9223 45.7496 16.7941 45.7496 16.6842V14.3949ZM54.156 9.9994C54.3941 9.72468 54.7603 9.43165 55.2732 9.13861C55.786 8.84558 56.4087 8.69907 57.1779 8.69907C57.7273 8.69907 58.2584 8.79064 58.7529 8.97378C59.2474 9.15693 59.687 9.46827 60.0716 9.87119C60.4562 10.2924 60.7675 10.8419 60.9873 11.5195C61.2254 12.1971 61.3353 13.0396 61.3353 14.0469C61.3353 15.2007 61.2071 16.1714 60.9323 16.9223C60.6576 17.6732 60.328 18.2776 59.9067 18.6988C59.4855 19.1383 59.0093 19.4497 58.4965 19.6328C57.9837 19.816 57.4526 19.9075 56.9398 19.9075C56.5185 19.9075 56.1339 19.8526 55.8226 19.761C55.5112 19.6695 55.2365 19.5596 55.0168 19.4314C54.797 19.3215 54.6321 19.1933 54.5039 19.0834C54.3941 18.9735 54.3025 18.8819 54.2842 18.8453V24.3397H51.244V9.02873C51.3172 9.01041 51.4088 8.9921 51.5187 8.9921C51.6103 8.97379 51.7201 8.97378 51.83 8.95547C51.9582 8.95547 52.0864 8.93715 52.2513 8.93715C52.7458 8.93715 53.167 9.01041 53.515 9.17524C53.8446 9.34008 54.0644 9.61479 54.156 9.9994ZM58.1852 14.1202C58.1852 13.6806 58.1485 13.2594 58.0753 12.8748C58.002 12.4902 57.8738 12.1605 57.709 11.8675C57.5442 11.5928 57.3061 11.373 57.013 11.2082C56.72 11.0433 56.372 10.9701 55.9508 10.9701C55.3281 10.9701 54.8885 11.0983 54.6505 11.318C54.4124 11.5561 54.2842 11.8125 54.2842 12.1056V16.849C54.3941 16.9772 54.6138 17.1054 54.9252 17.2703C55.2365 17.4351 55.5845 17.5083 55.9874 17.5083C56.7383 17.5083 57.2877 17.2153 57.654 16.6109C58.002 16.0249 58.1852 15.2007 58.1852 14.1202ZM63.6795 17.9662C63.5696 17.6732 63.5147 17.3618 63.4781 17.0322C63.4414 16.7025 63.4414 16.3728 63.4414 16.0432V5.69549C63.5513 5.67717 63.6612 5.65886 63.7711 5.65886C63.881 5.64054 63.9909 5.64055 64.1007 5.62223C64.2106 5.62223 64.3388 5.60392 64.4487 5.60392C64.6868 5.60392 64.9249 5.62223 65.163 5.67717C65.4011 5.7138 65.6209 5.80537 65.804 5.95189C66.0055 6.08009 66.152 6.26324 66.2802 6.50133C66.3901 6.73941 66.4633 7.03244 66.4633 7.39874V8.9921H69.5951V11.2448H66.4816V16.0066C66.4816 17.0505 66.9029 17.5633 67.7453 17.5633C67.9468 17.5633 68.1483 17.5267 68.3314 17.4717C68.5145 17.3985 68.6794 17.3252 68.8259 17.2519C68.9724 17.1787 69.1006 17.0871 69.2105 16.9955C69.3204 16.904 69.3936 16.8307 69.4486 16.7941C69.6684 17.1237 69.8515 17.3985 69.9614 17.6365C70.0713 17.8746 70.1445 18.0944 70.1445 18.3142C70.1445 18.5156 70.0713 18.6988 69.9065 18.8819C69.7416 19.0651 69.5218 19.2482 69.2471 19.3947C68.9724 19.5596 68.6244 19.6878 68.2215 19.7793C67.8186 19.8709 67.379 19.9259 66.9029 19.9259C65.9871 19.9259 65.2546 19.7427 64.7418 19.3947C64.2656 19.0101 63.8993 18.5523 63.6795 17.9662ZM77.2872 17.6732C77.6535 17.6732 77.9832 17.6365 78.2762 17.545C78.5509 17.4717 78.8073 17.3618 79.0454 17.2519C79.2652 17.1421 79.4666 16.9955 79.6315 16.8673C79.7963 16.7208 79.9428 16.5926 80.071 16.4827C80.2542 16.7025 80.4373 16.9955 80.6387 17.3435C80.8402 17.6915 80.9318 17.9845 80.9318 18.2043C80.9318 18.534 80.7486 18.827 80.3824 19.1017C80.071 19.3398 79.6315 19.5413 79.0454 19.7244C78.4776 19.8892 77.8 19.9808 77.0308 19.9808C76.3348 19.9808 75.6389 19.8892 74.9613 19.7061C74.2836 19.5229 73.6792 19.2116 73.1481 18.772C72.617 18.3325 72.1958 17.7281 71.8661 16.9772C71.5364 16.2263 71.3716 15.274 71.3716 14.1385C71.3716 13.2044 71.5181 12.3986 71.8112 11.721C72.1042 11.0433 72.4888 10.4756 72.965 10.036C73.4412 9.59648 73.9906 9.26682 74.6133 9.04704C75.2177 8.84558 75.8404 8.7357 76.4814 8.7357C77.3055 8.7357 78.0198 8.86389 78.6058 9.1203C79.1919 9.3767 79.6498 9.72468 80.0161 10.1642C80.3824 10.6038 80.6388 11.0983 80.8036 11.666C80.9684 12.2338 81.0417 12.8198 81.0417 13.4425V13.7539C81.0417 13.8821 81.0417 13.992 81.0234 14.1385C81.0234 14.2667 81.005 14.3949 81.005 14.5231C81.005 14.6513 80.9867 14.7429 80.9684 14.8161H74.3935C74.4484 15.6403 74.7049 16.3179 75.1627 16.8673C75.6023 17.3985 76.3165 17.6732 77.2872 17.6732ZM78.3128 13.1495C78.3128 12.4352 78.1663 11.8492 77.8916 11.4096C77.6169 10.9701 77.1224 10.732 76.4081 10.732C75.7854 10.732 75.3092 10.9518 74.9429 11.373C74.5766 11.7942 74.3935 12.3803 74.3935 13.1495H78.3128ZM86.3346 10.0543C86.4261 9.92614 86.536 9.77962 86.6825 9.61479C86.8291 9.44996 87.0122 9.30345 87.232 9.17524C87.4517 9.04704 87.6898 8.93715 87.9462 8.84558C88.2026 8.75401 88.4774 8.71738 88.7887 8.71738C88.9719 8.71738 89.155 8.73569 89.3565 8.75401C89.5579 8.79064 89.7411 8.84558 89.9059 8.91884C90.0707 8.9921 90.2172 9.10199 90.3271 9.2485C90.437 9.39502 90.492 9.55985 90.492 9.76131C90.492 10.091 90.4187 10.4573 90.2539 10.8785C90.089 11.2997 89.9242 11.666 89.7594 11.959C89.503 11.7576 89.2466 11.5928 89.0085 11.4829C88.7521 11.373 88.4591 11.318 88.1111 11.318C87.6532 11.318 87.2686 11.4462 86.9573 11.721C86.6459 11.9957 86.4811 12.307 86.4811 12.6916V19.9075H83.4409V9.01042C83.5141 8.9921 83.6057 8.97378 83.7156 8.97378C83.8072 8.95547 83.917 8.95547 84.0269 8.93715C84.1368 8.93715 84.2833 8.91884 84.4482 8.91884C84.9244 8.91884 85.3456 9.01042 85.6936 9.19356C86.0232 9.39502 86.243 9.66973 86.3346 10.0543ZM94.9607 10.0543C95.0523 9.92614 95.1622 9.77962 95.3087 9.61479C95.4552 9.44996 95.6383 9.30345 95.8581 9.17524C96.0779 9.04704 96.316 8.93715 96.5724 8.84558C96.8288 8.75401 97.1035 8.71738 97.4148 8.71738C97.598 8.71738 97.7811 8.73569 97.9826 8.75401C98.1841 8.79064 98.3672 8.84558 98.532 8.91884C98.6969 8.9921 98.8434 9.10199 98.9533 9.2485C99.0631 9.39502 99.1181 9.55985 99.1181 9.76131C99.1181 10.091 99.0448 10.4573 98.88 10.8785C98.7152 11.2997 98.5503 11.666 98.3855 11.959C98.1291 11.7576 97.8727 11.5928 97.6346 11.4829C97.3782 11.373 97.0852 11.318 96.7372 11.318C96.2794 11.318 95.8947 11.4462 95.5834 11.721C95.272 11.9957 95.1072 12.307 95.1072 12.6916V19.9075H92.067V9.01042C92.1403 8.9921 92.2318 8.97378 92.3417 8.97378C92.4333 8.95547 92.5432 8.95547 92.6531 8.93715C92.763 8.93715 92.9095 8.91884 93.0743 8.91884C93.5505 8.91884 93.9717 9.01042 94.3197 9.19356C94.6494 9.39502 94.8691 9.66973 94.9607 10.0543ZM109.447 16.9772C109.447 18.1494 109.612 19.0101 109.96 19.5413C109.686 19.6511 109.447 19.7244 109.209 19.761C108.971 19.7977 108.733 19.8343 108.477 19.8343C107.946 19.8343 107.543 19.7244 107.268 19.5229C106.993 19.3215 106.81 19.0101 106.737 18.6255C106.407 18.9735 105.986 19.2665 105.437 19.5046C104.905 19.7427 104.246 19.8526 103.477 19.8526C103.074 19.8526 102.671 19.7977 102.268 19.6878C101.865 19.5779 101.499 19.3947 101.169 19.1383C100.84 18.8819 100.583 18.5523 100.363 18.131C100.162 17.7098 100.052 17.197 100.052 16.5926C100.052 15.8417 100.235 15.219 100.602 14.7429C100.968 14.2667 101.426 13.9004 101.975 13.6257C102.525 13.351 103.129 13.1678 103.752 13.0579C104.393 12.948 104.979 12.8931 105.51 12.8565C105.693 12.8381 105.858 12.8381 106.041 12.8381H106.517V12.4352C106.517 11.8675 106.371 11.4646 106.059 11.2082C105.748 10.9701 105.253 10.8419 104.576 10.8419C103.935 10.8419 103.367 10.9517 102.873 11.1532C102.378 11.3547 101.884 11.5928 101.407 11.8675C101.206 11.6111 101.023 11.3364 100.913 11.025C100.785 10.7137 100.73 10.4939 100.73 10.3474C100.73 10.1459 100.84 9.94446 101.078 9.743C101.316 9.54154 101.627 9.3767 102.03 9.21187C102.433 9.04704 102.891 8.93716 103.422 8.82727C103.935 8.7357 104.484 8.68075 105.07 8.68075C105.876 8.68075 106.554 8.75401 107.103 8.91884C107.653 9.08367 108.111 9.34007 108.458 9.66973C108.806 10.0177 109.063 10.4389 109.209 10.9517C109.356 11.4646 109.429 12.0689 109.429 12.7466L109.447 16.9772ZM106.59 14.3949H106.279C106.169 14.3949 106.078 14.3949 105.968 14.4132C105.601 14.4498 105.235 14.4865 104.869 14.5414C104.503 14.5963 104.173 14.7062 103.898 14.8527C103.623 14.9993 103.385 15.2007 103.202 15.4388C103.019 15.6769 102.928 15.9882 102.928 16.3545C102.928 16.7758 103.037 17.1237 103.275 17.4168C103.514 17.7098 103.916 17.8563 104.484 17.8563C104.759 17.8563 105.034 17.8197 105.29 17.7464C105.546 17.6732 105.766 17.5816 105.968 17.4534C106.169 17.3252 106.316 17.197 106.426 17.0688C106.535 16.9223 106.59 16.7941 106.59 16.6842V14.3949Z" fill="#044D80"/>
</g>
<defs>
<clipPath id="clip0">
<rect width="109.887" height="24.3583" fill="white"/>
</clipPath>
</defs>
</svg>
