<svg width="14" height="14" viewBox="0 0 14 14" fill="none" xmlns="http://www.w3.org/2000/svg">
<path fill-rule="evenodd" clip-rule="evenodd" d="M13.092 1.77817C13.4825 1.38765 13.4825 0.754486 13.092 0.363961C12.7015 -0.0265637 12.0683 -0.0265631 11.6778 0.363961L6.72803 5.31371L1.77828 0.363961C1.38776 -0.0265633 0.754591 -0.0265637 0.364066 0.363961C-0.0264582 0.754486 -0.0264575 1.38765 0.364067 1.77817L5.31381 6.72792L0.364066 11.6777C-0.0264582 12.0682 -0.0264582 12.7014 0.364066 13.0919C0.75459 13.4824 1.38776 13.4824 1.77828 13.0919L6.72803 8.14213L11.6778 13.0919C12.0683 13.4824 12.7015 13.4824 13.092 13.0919C13.4825 12.7014 13.4825 12.0682 13.092 11.6777L8.14224 6.72792L13.092 1.77817Z" fill="#707EAE"/>
</svg>
