<svg width="16" height="16" viewBox="0 0 16 16" fill="none" xmlns="http://www.w3.org/2000/svg">
<path fill-rule="evenodd" clip-rule="evenodd" d="M15.0714 2.34309C15.4619 1.95257 15.4619 1.3194 15.0714 0.928879C14.6808 0.538355 14.0477 0.538355 13.6572 0.92888L8.0003 6.58573L2.34344 0.928879C1.95292 0.538355 1.31975 0.538355 0.929229 0.928879C0.538705 1.3194 0.538706 1.95257 0.92923 2.34309L6.58608 7.99995L0.929229 13.6568C0.538705 14.0473 0.538704 14.6805 0.929229 15.071C1.31975 15.4615 1.95292 15.4615 2.34344 15.071L8.0003 9.41416L13.6572 15.071C14.0477 15.4615 14.6808 15.4615 15.0714 15.071C15.4619 14.6805 15.4619 14.0473 15.0714 13.6568L9.41451 7.99995L15.0714 2.34309Z" fill="#707EAE"/>
</svg>
