<svg width="71" height="166" viewBox="0 0 71 166" fill="none" xmlns="http://www.w3.org/2000/svg">
<path d="M23.9925 20.203C23.9925 20.203 14.8245 20.5819 6.70021 28.1441C-4.11715 38.2118 -5.73806 48.5676 -4.21969 46.7236C-2.70208 44.8772 6.36818 28.7651 16.8077 28.3699C27.2489 27.9754 23.9925 20.203 23.9925 20.203Z" fill="#3FBCCD"/>
<path d="M34.0319 20.8663C34.0319 20.8663 25.4973 17.4944 15.0037 21.1095C1.03262 25.9231 -4.65051 34.7322 -2.51426 33.6619C-0.378008 32.5917 14.4476 21.5421 24.1518 25.4165C33.8545 29.2901 34.0319 20.8663 34.0319 20.8663Z" fill="#FBAA2E"/>
<path d="M29.7239 21.4663C29.7239 21.4663 24.0128 19.1581 16.7017 21.1605C6.96872 23.8278 2.7534 29.1863 4.25339 28.5703C5.75418 27.9529 16.3068 21.4181 22.7971 24.0689C29.2866 26.7174 29.7239 21.4663 29.7239 21.4663Z" fill="#FDC164"/>
<path d="M38.376 22.1384C25.2173 15.3398 10.7352 25.2876 4.78304 32.612C-2.49611 41.5697 -12.6713 75.6365 -16.6447 83.3426C-20.6173 91.0472 -61.9 124.052 -61.9 124.052C-61.9 124.052 -49.4456 130.473 -38.558 111.651C-35.8578 121.32 -23.6244 128.438 -16.5202 130.108C1.40524 134.328 14.3131 134.389 21.5643 110.136C27.861 89.0686 21.0554 79.8169 19.5308 75.0954C19.5308 75.0954 41.5839 62.4653 47.685 49.9027C53.962 36.9835 51.5347 28.937 38.376 22.1384Z" fill="#5B4EA0"/>
<path d="M38.3856 22.1438C25.2269 15.3452 12.3862 25.9699 7.36505 33.9615C-9.32 60.5116 9.63206 72.7804 1.71351 90.9012C-6.20423 109.02 -13.8751 116.846 -9.80624 122.905C-1.06998 135.907 14.6566 131.155 21.5739 110.142C28.3317 89.6054 21.0121 79.4167 19.5405 75.1008C19.5405 75.1008 41.5936 62.4707 47.6946 49.9081C53.9716 36.9889 51.5443 28.9424 38.3856 22.1438Z" fill="#6253A3"/>
<path d="M38.3712 22.1359C25.2125 15.3373 14.3684 28.5108 9.34564 36.5016C-7.3394 63.0517 9.01574 75.3196 1.29902 93.5268C-3.03381 103.745 -5.15405 108.763 -2.09784 116.064C0.959137 123.367 12.5659 133.137 21.5595 110.134C29.2174 90.5424 20.9001 78.7535 19.5261 75.0929C19.5261 75.0929 41.5792 62.4628 47.6802 49.9002C53.9572 36.981 51.5299 28.9345 38.3712 22.1359Z" fill="#6E63AC"/>
<path d="M27.9228 90.4616C27.0115 94.075 22.4366 87.6328 22.4366 87.6328C22.4366 87.6328 23.1168 98.5365 15.8185 95.343C8.5202 92.1494 11.5572 83.2056 11.5572 83.2056C11.5572 83.2056 8.1192 85.8946 4.70302 83.6109C1.28919 81.3265 16.6035 69.91 16.6035 69.91C16.6035 69.91 29.2123 85.3464 27.9228 90.4616Z" fill="#5B4EA0"/>
<path d="M27.0052 87.5826C26.0947 91.1944 22.0894 83.8655 22.0894 83.8655C22.0894 83.8655 23.347 95.3271 17.0564 92.1132C10.7634 88.9 12.9972 80.0958 12.9972 80.0958C12.9972 80.0958 10.7987 84.4782 7.38254 82.1945C3.96716 79.9093 16.3996 68.9185 16.3996 68.9185C16.3996 68.9185 28.2939 82.4651 27.0052 87.5826Z" fill="#6E63AC"/>
<path d="M0.924606 76.4948C-1.66902 75.1575 -12.3598 78.0541 -19.5718 82.6123C-26.7822 87.1714 -29.9433 93.5544 -29.173 94.6097C-28.4019 95.6636 -22.7172 92.0264 -22.7172 92.0264C-22.7172 92.0264 -27.905 101.832 -27.5258 104.918C-27.1458 108.003 -17.0667 99.6695 -17.0667 99.6695C-17.0667 99.6695 -28.5382 115.038 -25.1541 115.863C-21.7699 116.687 -11.7362 112.007 -6.33157 101.525C-0.926942 91.0435 3.51979 77.8329 0.924606 76.4948Z" fill="#6253A3"/>
<path d="M1.68342 76.8859C-0.460294 75.7806 -9.28657 78.1723 -15.2424 81.9378C-21.1974 85.7016 -26.1393 91.0323 -25.5023 91.9027C-24.8676 92.7739 -19.9638 89.5696 -19.9638 89.5696C-19.9638 89.5696 -23.8783 97.5209 -22.6619 99.8055C-21.447 102.089 -13.1752 96.022 -13.1752 96.022C-13.1752 96.022 -22.6479 108.714 -19.8534 109.394C-17.0582 110.077 -8.77293 106.212 -4.30987 97.5563C0.153987 88.8989 3.82558 77.9904 1.68342 76.8859Z" fill="#6E63AC"/>
<path d="M57.2449 43.6828C56.7089 38.3358 54.0754 34.022 54.0754 34.022C54.0754 34.022 46.0295 33.6314 41.0327 29.307C36.0366 24.985 31.4419 20.6452 19.8877 30.059C8.33343 39.4728 -1.01135 59.3355 9.27793 67.1967C19.5688 75.0588 57.2449 43.6828 57.2449 43.6828Z" fill="#CCCCCC"/>
<path d="M57.2252 43.6724C56.6891 38.3255 54.0557 34.0116 54.0557 34.0116C54.0557 34.0116 46.0097 33.6211 41.0129 29.2967C36.0169 24.9746 34.2225 24.3766 22.6683 33.7904C11.1141 43.2042 7.33426 50.5235 17.6251 58.3855C27.9159 66.2476 57.2252 43.6724 57.2252 43.6724Z" fill="#E6E6E6"/>
<path d="M39.9979 29.7785C38.0544 27.4975 35.494 22.9848 26.6727 20.9332C14.9207 18.1983 6.54682 22.5103 2.13435 24.4406C-2.27576 26.3701 7.854 15.8434 26.5906 15.9938C44.1233 16.1362 54.062 34.0032 54.062 34.0032C54.062 34.0032 43.0115 33.3208 39.9979 29.7785Z" fill="#E15969"/>
<path d="M44.0166 29.6268C42.074 27.3442 38.4916 21.8552 31.7669 19.7201C22.2315 16.6915 16.6245 18.0453 10.8863 19.493C6.21677 20.672 10.1423 16.315 26.593 16.0257C44.1235 15.7176 54.0644 34.0351 54.0644 34.0351C54.0644 34.0351 47.031 33.1675 44.0166 29.6268Z" fill="#F16377"/>
<path d="M13.2079 68.5775C13.2079 68.5775 11.3428 73.8077 16.1362 76.6576C20.9304 79.506 28.8943 79.6887 32.1498 76.1764C35.4045 72.6658 30.3099 66.6238 24.7036 66.0309C19.0964 65.4395 13.2079 68.5775 13.2079 68.5775Z" fill="#252525"/>
<path d="M57.869 47.5697C58.208 53.4517 57.0554 62.498 51.643 70.4495C42.7061 83.5777 30.7127 81.0395 30.0523 80.6004C29.3919 80.1614 30.4698 76.63 29.7056 73.8199C28.5818 69.6932 26.7373 70.4764 26.7373 70.4764C26.7373 70.4764 21.5008 72.1513 20.1021 71.233C18.7034 70.3148 17.2674 59.3406 26.9511 49.1593C36.6347 38.978 57.3863 39.245 57.869 47.5697Z" fill="#C2C2C2"/>
<path d="M57.2152 43.6825C57.2152 43.6825 48.9204 36.1421 33.3755 42.9721C18.5041 49.5089 13.2181 68.5437 13.2181 68.5437C13.2181 68.5437 15.4122 68.4926 16.7331 69.3708C18.0539 70.2489 18.3215 73.9341 20.7613 73.0243C23.2011 72.1146 26.7531 70.4579 26.7531 70.4579C26.7531 70.4579 21.474 72.4065 20.5788 68.7918C19.6837 65.1771 19.9462 56.7755 30.1955 48.2299C39.2488 40.6816 48.4285 41.6212 52.0366 43.0244C56.9372 44.9324 57.8848 47.5513 57.8848 47.5513L57.2152 43.6825Z" fill="#404141"/>
<path d="M55.1698 47.6957C56.5741 48.9853 53.2321 63.1873 47.9092 70.1779C42.5863 77.1686 33.6263 79.7968 32.1742 79.0738C30.7206 78.3499 38.5853 67.347 33.6827 60.864C28.7808 54.3833 43.1289 38.8248 55.1698 47.6957Z" fill="#F1F2F3"/>
<path d="M41.708 66.5111C40.2518 68.9685 46.1061 70.4144 47.6787 68.0446C51.1881 62.7557 54.5141 51.0423 53.1435 49.3089C51.7737 47.5779 42.6258 48.0518 43.154 51.2546C44.785 59.0797 43.1643 64.0536 41.708 66.5111Z" fill="white"/>
<path d="M39.3982 71.0095C38.1185 72.8149 33.759 77.4172 34.0068 77.9648C34.4514 78.9448 42.5674 74.1964 44.8231 72.2754C46.2657 71.0485 40.6787 69.2063 39.3982 71.0095Z" fill="white"/>
<path d="M36.3975 40.9399C31.5263 48.0787 22.1763 51.0774 15.5156 47.6371C8.8525 44.1976 7.40161 35.6219 12.2728 28.4831C17.1439 21.3443 26.494 18.3456 33.1571 21.7851C39.8178 25.2254 41.2687 33.8011 36.3975 40.9399Z" fill="white"/>
<path d="M35.0274 40.1752C30.7116 46.5007 22.4273 49.1561 16.5239 46.1083C10.6221 43.0614 9.33614 35.4615 13.652 29.136C17.9694 22.8113 26.253 20.1534 32.1555 23.2028C38.0588 26.2506 39.3433 33.8497 35.0274 40.1752Z" fill="#B1CFD0"/>
<path d="M35.686 37.9904C31.4154 44.148 23.094 46.6307 17.1028 43.5356C11.1091 40.4412 9.71378 32.9426 13.9852 26.7873C18.2574 20.6305 26.5772 18.147 32.5708 21.2414C38.5621 24.3365 39.9575 31.8351 35.686 37.9904Z" fill="white"/>
<path d="M31.9458 36.381C29.1188 40.5221 23.695 42.2621 19.8287 40.2666C15.9648 38.2704 15.1226 33.2956 17.9487 29.1521C20.7757 25.011 26.1995 23.2711 30.0634 25.2673C33.9297 27.2628 34.7711 32.2391 31.9458 36.381Z" fill="#030404"/>
<path d="M27.7754 31.5658C26.4773 33.4682 23.9872 34.2653 22.2124 33.3502C20.4385 32.4336 20.0516 30.1491 21.349 28.2483C22.6464 26.3474 25.1373 25.5488 26.912 26.4639C28.686 27.3805 29.0728 29.665 27.7754 31.5658Z" fill="white"/>
<path d="M28.9674 28.3444C33.1137 29.3649 39.1575 27.6648 38.2211 25.9759C37.1599 24.0631 35.2593 22.3066 33.1335 21.2086C28.0755 18.5967 21.8536 19.2472 16.6952 23.3962C15.2037 24.5958 23.1388 26.9097 28.9674 28.3444Z" fill="#6253A3"/>
<path d="M27.8113 26.9003C30.6387 27.7039 34.1718 26.3745 34.9762 24.9368C35.7798 23.5006 33.5867 21.6387 32.1557 20.7984C28.7493 18.8016 22.7072 18.7289 20.2205 22.7795C19.5041 23.9472 23.8387 25.7684 27.8113 26.9003Z" fill="#6E63AC"/>
</svg>
