<svg width="115" height="22" viewBox="0 0 115 22" fill="none" xmlns="http://www.w3.org/2000/svg">
<path d="M7.28525 21.6609H2.95194V10.9836H0V7.50725H2.95182V5.03359C2.95182 2.1023 4.25741 0 8.579 0C9.49302 0 10.928 0.182097 10.928 0.182097V3.41006H9.4208C7.88509 3.41006 7.28548 3.87178 7.28548 5.14828V7.50725H10.8705L10.5513 10.9836H7.28537L7.28525 21.6609ZM17.2281 7.22944C17.165 7.22944 17.1 7.23171 17.0358 7.23331C13.0177 7.23331 11.1793 10.2207 11.1793 14.4615C11.1793 19.8037 13.5639 21.9418 17.0672 21.9418C19.0715 21.9418 20.3883 21.1079 21.1887 19.5518V21.6624H25.3103V7.50872H21.1887V9.68537C20.5352 8.28497 19.1815 7.24604 17.2281 7.22944ZM18.2761 10.5739C19.9638 10.5739 20.9767 11.7374 20.9767 13.7165L20.9806 15.7379C20.9806 17.0718 20.144 18.6323 18.2761 18.6323C15.4046 18.6323 15.4813 15.5676 15.4813 14.5469C15.4813 11.1133 17.0113 10.5739 18.2761 10.5739ZM26.9749 14.5863C26.9749 12.8664 26.8916 7.23865 34.3096 7.23865C37.2873 7.23865 38.5306 8.17448 38.5306 8.17448L37.5313 11.2382C37.5313 11.2382 36.2895 10.5623 34.6715 10.5623C32.599 10.5623 31.2767 11.7498 31.2767 13.8392L31.279 15.3373C31.279 17.3449 32.5549 18.6851 34.6757 18.6851C36.1498 18.6851 37.5084 18.0028 37.5084 18.0028L38.5052 21.0026C38.5052 21.0026 37.3683 21.9443 34.3304 21.9443C27.2673 21.9443 26.9749 16.8951 26.9749 14.5863ZM62.6971 7.23331C66.7153 7.23331 68.5827 10.2207 68.5827 14.4615C68.5827 19.8037 66.1979 21.9418 62.6947 21.9418C60.6903 21.9418 59.2087 21.108 58.4083 19.5518V21.6624L54.3385 21.6608V0.43035L58.6595 0.0578573V9.49361C59.2832 7.8428 61.3326 7.23331 62.6971 7.23331ZM61.4857 10.5739C59.7981 10.5739 58.6595 11.7374 58.6595 13.7165L58.6555 15.7379C58.653 17.0718 59.444 18.6323 61.4857 18.6323C64.3572 18.6323 64.2805 15.5676 64.2805 14.5469C64.2805 11.1133 62.7507 10.5739 61.4857 10.5739ZM46.028 7.24501C41.4705 7.24501 39.0645 9.70105 39.0645 14.0657V14.8766C39.0645 20.5415 42.4433 22 46.4715 22C50.3869 22 52.1592 20.9175 52.1592 20.9175L51.3506 18.0349C51.3506 18.0349 49.2659 18.9116 46.9896 18.9116C44.6298 18.9116 43.6149 18.3171 43.3548 16.0756H52.5046V13.763C52.5046 9.02848 49.8044 7.24501 46.028 7.24501ZM46.1378 10.1315C47.7153 10.1315 48.7376 11.0877 48.6815 13.3053H43.3627C43.4549 10.9713 44.5573 10.1315 46.1378 10.1315ZM77.1986 7.22558C72.5184 7.22558 70.0546 9.83245 70.0546 14.5041C70.0546 20.9139 74.3017 21.9457 77.2064 21.9457C81.4586 21.9457 84.2876 19.6829 84.2876 14.5623C84.2876 9.23274 81.1067 7.22558 77.1986 7.22558ZM77.1397 10.5855C79.1976 10.5855 80.0131 12.1079 80.0131 13.8408V15.3306C80.0131 17.4298 78.8721 18.644 77.1319 18.644C75.5044 18.644 74.3606 17.5083 74.3606 15.3306V13.8408C74.3606 11.5183 75.7216 10.5855 77.1397 10.5855ZM92.8959 7.22558C88.2157 7.22558 85.7518 9.83245 85.7518 14.5041C85.7518 20.9139 89.999 21.9457 92.9037 21.9457C97.1558 21.9457 99.9849 19.6829 99.9849 14.5623C99.9849 9.23274 96.8039 7.22558 92.8959 7.22558ZM92.837 10.5855C94.8949 10.5855 95.7103 12.1079 95.7103 13.8408V15.3306C95.7103 17.4298 94.5692 18.644 92.8292 18.644C91.2017 18.644 90.0579 17.5083 90.0579 15.3306V13.8408C90.0579 11.5183 91.4189 10.5855 92.837 10.5855ZM101.618 21.6609V0.43035L105.951 0.057971V14.288L110.251 7.50736H114.827L110.342 14.5301L115 21.6609H110.41L105.951 14.7369V21.6609H101.618Z" fill="#1877F2"/>
</svg>
