<svg width="95" height="27" viewBox="0 0 95 27" fill="none" xmlns="http://www.w3.org/2000/svg">
<path fill-rule="evenodd" clip-rule="evenodd" d="M20.1281 5.90889C19.8612 6.20748 19.5472 6.50607 19.2175 6.83608L17.9143 8.07758H21.6982V9.61767H15.6064V8.81619L17.7259 6.25463C18.1184 5.86175 18.4482 5.51601 18.6837 5.21743C18.9192 4.93455 19.2018 4.58882 19.3274 4.36881C19.4844 4.11737 20.2851 3.34733 20.2066 2.3887C19.8612 1.32007 18.8721 1.22578 18.2912 1.30436C17.6945 1.32007 17.0037 2.12154 16.8938 2.81301C16.8938 2.81301 15.8105 2.65586 15.575 2.54585C15.5907 2.24727 16.1088 0.942909 17.1136 0.361449C17.6003 0.141437 17.9143 0.0314322 18.4796 0.0314322C18.9192 0.0314322 19.3117 0.0942913 19.6728 0.204297C20.0339 0.314303 20.3322 0.487169 20.5834 0.707181C20.8346 0.927193 21.2586 1.19435 21.3842 1.52437C21.5883 1.94868 21.7453 2.3887 21.7453 2.82872C21.7924 3.80306 20.9602 4.76169 20.8032 5.01313C20.6148 5.32743 20.395 5.62602 20.1281 5.90889ZM13.0629 26.37C5.84061 26.37 0 20.5083 0 13.295C0 6.06604 5.85631 0.220013 13.0629 0.220013V4.84026C8.3998 4.84026 4.61596 8.62761 4.61596 13.295C4.61596 17.9624 8.3998 21.7655 13.0629 21.7655C16.7682 21.7655 19.9083 19.3768 21.0544 16.0609C18.7936 16.0609 15.5907 16.0452 15.5907 16.0452V11.2049C15.5907 11.2049 25.4663 11.2049 25.9687 11.2049C26.0786 11.8806 26.1414 12.5878 26.1414 13.295C26.1257 20.524 20.2851 26.37 13.0629 26.37ZM30.5219 0H31.4011V26.15H30.5219V0ZM43.2864 19.3139C42.5328 19.7696 41.5908 20.0054 40.4917 20.0054C39.3456 20.0054 38.3879 19.8168 37.6499 19.4239C36.8963 19.031 36.4096 18.4967 36.1584 17.8053C35.9229 17.1138 35.7973 16.0766 35.7973 14.6937V10.5606C35.7973 9.53909 35.8287 8.78476 35.9072 8.26616C35.9857 7.76328 36.2055 7.26039 36.5823 6.78894C36.9591 6.31749 37.4615 5.94032 38.121 5.67316C38.7804 5.40601 39.534 5.26457 40.3818 5.26457C41.5437 5.26457 42.5014 5.46887 43.255 5.89318C44.0087 6.31748 44.4954 6.83608 44.7466 7.46469C44.9821 8.09329 45.0292 7.90472 45.0292 9.22479V10.3248L41.8263 10.2777V9.31908C41.8263 8.59618 41.7478 8.14044 41.5751 7.95186C41.4024 7.77899 41.0413 7.6847 40.4917 7.6847C39.848 7.6847 39.4555 7.79471 39.2828 8.01472C39.1101 8.23473 39.0316 8.70618 39.0316 9.42908V15.888C39.0316 16.5795 39.1101 17.0352 39.2828 17.2552C39.4555 17.4752 39.8323 17.5695 40.4446 17.5695C41.0256 17.5695 41.3867 17.4595 41.5751 17.2552C41.7478 17.0352 41.842 16.7523 41.842 15.9666L41.8263 14.9451H45.0449V15.1651C45.0449 16.6266 44.9978 17.0981 44.778 17.6952C44.5268 18.3081 44.0401 18.8582 43.2864 19.3139ZM52.4399 9.00478C52.4399 8.56475 52.2201 8.04615 51.7961 7.90472C51.3722 7.76328 50.8227 7.70042 49.6923 7.70042V11.7078C50.7913 11.7078 51.3408 11.6449 51.7647 11.5349C52.2044 11.4249 52.4242 10.4034 52.4242 9.77482V9.00478H52.4399ZM52.4399 15.338C52.4399 14.5836 52.2829 14.1279 51.9688 13.9393C51.6548 13.7665 51.0425 13.6722 49.708 13.6722V19.7854H46.5522L46.5993 5.57887H49.4411C51.3408 5.57887 52.6283 5.64174 53.3034 5.78317C53.9785 5.92461 54.528 6.25463 54.952 6.80466C55.3759 7.35469 55.5957 8.23473 55.5957 9.4448C55.5957 10.5449 55.4073 11.5349 55.1247 11.9121C54.8263 12.2892 54.2454 12.525 53.3819 12.6035C54.1669 12.7921 54.7007 13.0279 54.9677 13.3264C55.2346 13.625 55.4073 13.9079 55.4701 14.1593C55.5329 14.4108 55.6114 14.8351 55.6114 15.9823V19.7068L52.4713 19.7854V15.338H52.4399ZM63.6815 9.22479C63.6815 8.56475 63.5716 8.15616 63.3675 7.96758C63.1633 7.77899 62.7237 7.70042 62.08 7.70042C61.5305 7.70042 61.1066 7.77899 60.8083 7.92043C60.5099 8.06186 60.3686 8.50189 60.3686 9.22479V15.7937C60.3686 16.6109 60.4628 17.1138 60.6513 17.3024C60.8397 17.4909 61.295 17.5852 61.9858 17.5852C62.708 17.5852 63.1633 17.4752 63.3675 17.2552C63.5716 17.0352 63.6658 16.5166 63.6658 15.6837V9.22479H63.6815ZM66.1464 18.481C65.7539 18.9682 65.2044 19.3453 64.5293 19.6125C63.8542 19.8796 63.0534 20.0054 62.1428 20.0054C61.2793 20.0054 60.51 19.8796 59.8191 19.6282C59.1283 19.3768 58.5788 19.0153 58.1706 18.5124C57.7467 18.0253 57.5111 17.4752 57.4326 16.8938C57.3541 16.3123 57.307 15.2908 57.307 13.8293V11.4092C57.307 9.99483 57.3384 8.98906 57.4169 8.39188C57.4954 7.79471 57.7309 7.26039 58.1392 6.77322C58.5474 6.28606 59.0812 5.90889 59.7563 5.64173C60.4314 5.37458 61.2322 5.24885 62.1428 5.24885C63.0063 5.24885 63.7757 5.37458 64.4665 5.62602C65.1573 5.87746 65.7068 6.23891 66.1151 6.74179C66.5233 7.22896 66.7745 7.77899 66.853 8.36045C66.9315 8.94191 66.9786 9.9634 66.9786 11.4092V13.845C66.9786 15.2594 66.9472 16.2652 66.8687 16.8623C66.7902 17.4595 66.5547 17.9938 66.1464 18.481ZM77.8591 19.7068C77.4037 17.5381 76.3361 12.2107 75.975 9.42908C75.818 10.6234 74.5619 15.9509 73.981 19.7068H70.5269L67.8421 5.56316H70.8723L71.7358 10.4977L72.3639 16.3595C72.5052 13.8922 73.7612 9.5548 74.3578 5.56316H77.8748C77.9219 5.97175 78.5185 7.52755 78.754 10.2306L79.6332 16.2652C79.8687 12.8393 80.6695 8.83191 81.2033 5.56316H84.0137L81.1248 19.7068H77.8591ZM91.126 9.64909C91.126 9.02049 91.0789 8.6119 90.9847 8.42331C90.8905 8.25045 90.655 8.10901 90.2939 8.03044C89.9328 7.95186 89.2734 7.90472 88.2842 7.90472V17.3495C89.5874 17.3495 90.3724 17.2395 90.6864 17.0352C90.9847 16.8309 91.1417 16.2494 91.1417 15.3065V9.64909H91.126ZM93.9992 18.0567C93.8736 18.481 93.6381 18.8267 93.3084 19.0625C92.9787 19.2982 92.5862 19.4711 92.0995 19.5653C91.6285 19.6596 91.126 19.7068 90.1526 19.7068H85.0813V5.56316H88.0958C90.0427 5.56316 91.1417 5.64173 91.8169 5.8146C92.5077 5.97175 93.0258 6.23891 93.3869 6.61607C93.748 6.99324 93.9678 7.40183 94.062 7.85757C94.1563 8.31331 94.1877 9.20907 94.1877 10.5449V15.4951C94.2034 16.7681 94.1405 17.6167 93.9992 18.0567Z" fill="#456372"/>
</svg>
