<svg width="82" height="55" viewBox="0 0 82 55" fill="none" xmlns="http://www.w3.org/2000/svg">
<g filter="url(#filter0_d)">
<path d="M71.5736 18.4147C76.7656 14.7232 72.8315 30.6525 63.3023 37.3532C78.8538 30.2591 72.4054 39.9417 61.8429 44.0414C51.2672 48.1405 44.1415 45.3972 44.1415 45.3972C53.7056 40.3625 66.835 21.7794 71.5736 18.4147Z" fill="#FFC163"/>
<path d="M71.7456 2.90934C66.356 -8.00154 52.6088 42.5922 52.6088 42.5922C52.6088 42.5922 77.1485 13.8208 71.7456 2.90934Z" fill="#51DBEE"/>
<path d="M57.5695 15.8817C59.9821 9.6339 64.8204 19.4292 56.2799 32.2443C68.6243 20.4583 64.847 34.2905 56.2876 41.3525C67.7932 37.3067 64.8003 46.8318 52.7888 50.2566C40.7236 53.6924 40.5907 48.7333 40.5907 48.7333C40.5907 48.7333 55.1437 22.1289 57.5695 15.8817Z" fill="#E15869"/>
<path d="M36.3758 46.7143C44.524 38.9955 50.656 26.1434 52.6099 21.5803C54.7116 16.6774 58.7152 25.7577 52.4912 35.7962C61.2976 25.7755 58.8495 39.9711 52.2734 44.5751C61.3297 42.3681 58.0342 49.9494 50.7611 51.8736C46.6802 52.9497 42.0658 53.7366 38.7902 53.1164C36.1619 52.6172 35.7514 47.2999 36.3758 46.7143Z" fill="#5A49AE"/>
<path d="M44.5281 46.1551C45.7994 44.4767 48.2919 40.9194 49.4881 40.9194C50.6843 40.9194 54.8114 49.2739 54.0787 53.4073C53.346 57.5407 46.457 62.2753 43.6137 63.6719C40.7642 65.0685 43.2505 47.8335 44.5281 46.1551Z" fill="#614FB7"/>
<path d="M45.4732 45.8986C46.4189 44.646 48.2789 42.0032 49.1682 42.0032C50.0575 42.0032 53.2891 47.4267 52.738 50.5079C52.1868 53.5829 46.9074 57.9105 44.7843 58.9501C42.6675 59.9834 44.5213 47.1511 45.4732 45.8986Z" fill="#453495"/>
<path d="M47.5528 44.6901C50.3084 47.3392 55.5628 60.1152 50.1205 67.8246C46.0873 73.5361 35.7977 75.7218 30.2927 75.7218C24.7815 75.7218 18.1744 73.1541 18.1744 73.1541C18.1744 73.1541 15.0556 79.398 9.91387 81.0514C4.77219 82.6922 0 79.3855 0 79.3855C0 79.3855 16.3394 72.7784 21.4811 67.8183C26.6228 62.8582 24.4183 49.2932 20.3789 41.9408C16.3394 34.5883 44.8034 42.041 47.5528 44.6901Z" fill="#5A49AE"/>
<path d="M48.2167 44.6908C51.0537 47.3399 54.3667 60.3726 50.1519 66.0404C46.1124 71.4764 40.5449 72.1716 35.0462 71.0192C31.0193 70.1738 30.7938 69.1717 31.2698 68.8461C35.0462 66.2784 33.0547 52.4378 25.4455 43.2316C21.2933 35.8729 45.3859 42.0417 48.2167 44.6908Z" fill="#614FB7"/>
<path d="M48.5797 44.6903C51.4605 47.3394 53.189 57.485 51.4731 61.7374C49.7571 65.9898 43.3378 71.4696 38.4216 67.7934C36.7995 66.5847 36.3298 64.994 35.9415 62.921C35.7724 62.0129 35.6096 61.0046 35.3779 59.9024C34.5324 55.8692 32.6787 50.4708 25.464 43.2373C21.2367 35.8724 45.7051 42.0412 48.5797 44.6903Z" fill="#7761DF"/>
<path d="M16.2453 62.6762C16.2453 61.48 16.0637 56.1693 19.552 49.7375C23.0403 43.3057 23.773 43.5812 25.0632 44.0384C26.347 44.4956 32.0398 57.3529 32.0398 63.9601C32.0398 70.5672 23.9547 71.5818 24.5559 70.6612C25.1571 69.7406 26.6351 66.8034 26.6351 66.8034C26.6351 66.8034 17.2598 68.8262 17.8986 67.5361C18.5437 66.2522 23.5914 59.5511 23.5914 59.5511C23.5914 59.5511 16.2515 63.8724 16.2453 62.6762Z" fill="#614FB7"/>
<path d="M17.9673 59.8962C17.9673 58.7001 18.462 52.4373 20.2156 49.2496C21.9692 46.0619 23.7791 43.5881 25.0629 44.0453C26.3468 44.5025 31.4572 55.0677 31.4572 61.6811C31.4572 68.2945 26.0337 70.0481 26.6349 69.1337C27.2361 68.2131 28.4699 64.3803 28.4699 64.3803C28.4699 64.3803 18.8754 66.9167 19.5142 65.6266C20.1592 64.3428 25.564 57.3974 25.564 57.3974C25.564 57.3974 17.9673 61.0861 17.9673 59.8962Z" fill="#7761DF"/>
<path d="M22.489 50.5085C22.3262 49.9824 21.2678 57.1157 22.489 56.1387C23.7102 55.1617 24.2112 54.3726 24.2112 54.3726C24.2112 54.3726 24.0296 56.5144 24.8939 56.2326C25.7581 55.957 26.5285 53.6774 26.2466 54.0407C25.9711 54.4039 25.0755 55.6878 24.8939 55.1554C24.706 54.6231 24.8187 52.3685 24.3741 52.3372C23.9294 52.3059 23.1528 54.6982 22.7708 54.0407C22.3888 53.3831 22.6518 51.0346 22.489 50.5085Z" fill="#453495"/>
<path d="M30.0424 9.68091C16.1141 9.68091 9.14998 24.3607 10.3274 22.9641C11.511 21.5738 16.2206 16.3069 24.9007 16.3256C33.5808 16.3444 43.9707 9.68091 30.0424 9.68091Z" fill="#FFAB2D"/>
<path d="M32.2971 10.6452C21.1996 8.36559 13.246 18.9245 14.4171 18.0039C15.5882 17.0833 20.2038 13.6576 27.1179 15.0917C34.0257 16.5322 43.4009 12.9248 32.2971 10.6452Z" fill="#FFC163"/>
<path d="M24.794 14.9288C11.3918 20.7782 12.4565 37.6186 13.327 35.1761C14.3478 32.3391 17.0596 26.7027 21.2556 23.0578C25.5017 19.3691 38.1962 9.08569 24.794 14.9288Z" fill="#43BBCC"/>
<path d="M24.9133 16.0248C14.6612 18.818 13.6467 31.0428 14.5297 29.3832C15.5631 27.448 18.112 23.6841 21.5126 21.5047C24.9571 19.294 35.1716 13.2379 24.9133 16.0248Z" fill="#51DBEE"/>
<path d="M49.4381 18.5742C49.4381 18.5742 46.4758 9.35545 31.4954 7.32007C15.4441 5.14065 6.58231 15.7873 12.4254 13.0317C20.5294 9.20515 29.1343 10.3199 33.512 11.704C40.4761 13.9022 48.818 19.7265 49.4381 18.5742Z" fill="#E15869"/>
<path d="M43.5824 18.2988L27.2242 13.489C27.2242 13.489 18.8634 15.3052 16.4335 29.8785C15.8636 33.2792 20.4792 42.1221 20.4792 42.1221C20.4792 42.1221 39.568 44.8464 37.3322 45.767C35.0964 46.6939 31.5454 51.4661 32.8293 51.4661C34.1131 51.4661 38.0774 47.5018 38.0774 47.5018C38.0774 47.5018 37.6516 54.1465 40.0064 54.0401C42.3611 53.9336 42.4676 47.2889 42.4676 47.2889C42.4676 47.2889 47.077 52.4306 51.6801 51.0402C56.2957 49.6436 51.2604 42.7922 40.332 38.1829C40.332 38.1829 30.6248 23.4279 43.5824 18.2988Z" fill="#5A49AE"/>
<path d="M49.4379 18.5745L30.7813 12.3682C30.7813 12.3682 26.3849 10.8714 22.6899 14.9672C20.3288 17.585 18.2559 21.4053 17.8049 26.8664C17.2601 33.5362 24.1428 43.5001 27.7439 44.7965C29.3095 45.3602 36.8498 45.9489 36.8498 45.9489C36.8498 45.9489 33.4805 49.2618 34.7644 49.2618C36.0482 49.2618 38.2527 46.6691 38.2527 46.6691C38.2527 46.6691 37.9333 51.0279 40.2881 50.9215C42.6429 50.815 42.0917 46.0177 42.0917 46.0177C42.0917 46.0177 43.9142 47.8778 48.3169 47.4582C52.7196 47.0386 51.2603 42.7862 40.3319 38.1768C40.3319 38.1831 24.2117 18.9816 49.4379 18.5745Z" fill="#7761DF"/>
<path d="M49.438 18.5738C49.438 18.5738 46.5446 9.15471 31.5705 7.10681C16.7216 5.08395 8.99969 13.9269 14.8491 11.1713C22.953 7.34479 30.7814 9.68705 30.7814 9.68705C39.7809 12.3675 45.6115 22.5193 49.438 18.5738Z" fill="#FF6376"/>
<path d="M44.2091 13.9894C44.2091 13.9894 42.0422 15.6302 36.5247 14.0771C31.0073 12.5239 25.6527 13.8641 22.7029 20.559C19.7595 27.2538 21.1623 37.9568 27.0931 39.2532C37.3138 41.4889 40.7834 38.0695 41.8856 36.1844C41.8856 36.1844 38.4912 30.6607 41.1466 25.4689C43.8083 20.2771 48.3049 19.701 48.3049 19.701C48.3049 19.701 45.8374 15.4987 44.2091 13.9894Z" fill="#5A49AE"/>
<path d="M45.3357 12.8618C45.3357 12.8618 43.2252 15.4984 37.7077 13.9453C32.1903 12.3921 26.7793 12.7303 23.8358 19.4251C20.8923 26.12 22.2827 34.9629 28.1195 36.6225C30.4054 37.2739 33.2612 37.0046 35.8915 36.4347C35.8915 36.4347 32.159 28.3808 37.6326 22.7569C43.1062 17.133 49.444 18.5734 49.444 18.5734C49.444 18.5734 46.964 14.3711 45.3357 12.8618Z" fill="#CCCCCC"/>
<path d="M45.3358 12.8622C45.3358 12.8622 43.1689 14.503 37.6514 12.9499C32.134 11.3967 26.7794 12.7369 23.8296 19.4318C20.8862 26.1266 23.7232 30.3915 29.56 32.0511C31.0693 32.477 32.6851 32.3016 34.2508 31.8069C34.2508 31.8069 34.2884 24.849 37.6264 21.9306C43.8139 16.5259 49.1498 18.4109 49.1498 18.4109C49.1498 18.4109 47.0768 14.1398 45.3358 12.8622Z" fill="#E6E6E6"/>
<path d="M35.167 20.7521C36.6308 16.6251 34.8075 12.2118 31.0944 10.8948C27.3814 9.57781 23.1847 11.8558 21.7208 15.9829C20.257 20.1099 22.0803 24.5232 25.7934 25.8402C29.5064 27.1572 33.7031 24.8792 35.167 20.7521Z" fill="white"/>
<path d="M34.4325 20.2297C35.6975 16.6633 34.1252 12.8508 30.9207 11.7142C27.7162 10.5776 24.093 12.5472 22.828 16.1136C21.5631 19.6799 23.1354 23.4925 26.3399 24.6291C29.5444 25.7657 33.1676 23.796 34.4325 20.2297Z" fill="#B2CFD1"/>
<path d="M32.7442 18.8659C33.5285 15.4758 31.8067 12.1822 28.8985 11.5094C25.9902 10.8365 22.9969 13.0394 22.2126 16.4295C21.4283 19.8196 23.1501 23.1133 26.0583 23.7861C28.9665 24.4589 31.9599 22.2561 32.7442 18.8659Z" fill="white"/>
<path d="M30.656 17.1528C30.5307 19.1694 29.0089 20.7977 27.2553 20.7851C25.5018 20.7789 24.1803 19.1381 24.3056 17.1215C24.4308 15.1049 25.9527 13.4766 27.7062 13.4891C29.4598 13.4953 30.7812 15.1362 30.656 17.1528Z" fill="black"/>
<path d="M28.6019 15.7812C28.5518 16.6016 27.9317 17.2655 27.2115 17.2655C26.4976 17.2592 25.959 16.5954 26.0091 15.7687C26.0592 14.9483 26.6792 14.2844 27.3994 14.2844C28.1196 14.2907 28.6582 14.9608 28.6019 15.7812Z" fill="white"/>
<path d="M43.8144 35.4211C39.6434 33.3231 40.5077 24.9436 40.5077 24.9436L32.8358 24.4551C32.8296 24.4613 29.3913 37.9074 43.8144 35.4211Z" fill="black"/>
<path d="M43.8146 35.4211C43.8146 35.4211 37.3765 40.3624 33.3747 37.0056C29.3728 33.6487 32.8361 24.4551 32.8361 24.4551C32.8361 24.4551 31.928 35.728 43.8146 35.4211Z" fill="#212121"/>
<path d="M46.4511 13.9524C46.6828 14.1779 46.8957 14.4033 47.1087 14.6288C51.7431 23.4905 46.1254 34.6882 46.0127 32.7969C45.8937 30.868 43.8708 30.0664 39.155 30.4296C34.4392 30.7866 32.8359 24.4612 32.8359 24.4612C32.8359 24.4612 36.5372 15.7748 46.4511 13.9524Z" fill="#404040"/>
<path d="M47.1021 14.6296C42.142 15.5189 38.2278 18.4311 36.23 22.3265C33.8565 26.9547 37.6579 29.5537 39.424 30.4117C43.9645 30.2488 46.3381 34.8895 46.4508 36.7808C46.5635 38.6785 56.4836 24.9193 47.1021 14.6296Z" fill="#C2C2C2"/>
<path d="M46.376 16.3701C45.6182 16.3701 43.4451 17.3283 41.3659 21.1861C39.8879 23.9355 41.6289 25.7517 43.395 26.6097C46.852 29.1962 46.614 34.0811 46.733 35.9724C46.8457 37.8575 55.7638 26.6598 46.376 16.3701Z" fill="#F0F0F0"/>
<path d="M46.3569 18.4181C45.4301 18.368 42.9312 20.6163 43.7329 21.4179C43.7329 21.4179 45.9624 23.3907 46.9331 26.6974C47.2024 27.6117 47.2901 28.6451 47.4592 29.4467C47.6345 30.2483 49.5822 29.8663 49.6574 29.4404C49.7325 29.0146 49.9705 27.3737 49.9329 26.3592C49.7889 22.1005 47.2901 18.4682 46.3569 18.4181Z" fill="white"/>
<path d="M47.5971 31.5257C47.6034 31.9515 47.5345 34.1247 47.5658 34.6007C47.5971 35.158 48.9875 31.9453 49.144 31.5194C49.3006 31.0935 47.5909 31.0998 47.5971 31.5257Z" fill="white"/>
<path d="M42.1357 43.4746C42.1357 43.4746 46.4883 47.1383 48.9308 46.6435C51.3732 46.1488 47.1584 42.2972 46.2942 41.7524C45.4299 41.2075 49.1375 44.6019 47.0457 44.5267C44.9602 44.4641 42.1357 43.4746 42.1357 43.4746Z" fill="#8776DC"/>
</g>
<defs>
<filter id="filter0_d" x="0" y="0.698242" width="81.9582" height="95.3667" filterUnits="userSpaceOnUse" color-interpolation-filters="sRGB">
<feFlood flood-opacity="0" result="BackgroundImageFix"/>
<feColorMatrix in="SourceAlpha" type="matrix" values="0 0 0 0 0 0 0 0 0 0 0 0 0 0 0 0 0 0 127 0" result="hardAlpha"/>
<feOffset dx="4" dy="4"/>
<feGaussianBlur stdDeviation="2"/>
<feColorMatrix type="matrix" values="0 0 0 0 0 0 0 0 0 0 0 0 0 0 0 0 0 0 0.15 0"/>
<feBlend mode="normal" in2="BackgroundImageFix" result="effect1_dropShadow"/>
<feBlend mode="normal" in="SourceGraphic" in2="effect1_dropShadow" result="shape"/>
</filter>
</defs>
</svg>
