<svg width="82" height="97" viewBox="0 0 82 97" fill="none" xmlns="http://www.w3.org/2000/svg">
<g filter="url(#filter0_d)">
<path d="M71.5736 18.4147C76.7656 14.7232 72.8315 30.6525 63.3023 37.3532C78.8538 30.2591 72.4054 39.9417 61.8429 44.0414C51.2672 48.1405 44.1415 45.3972 44.1415 45.3972C53.7056 40.3625 66.835 21.7794 71.5736 18.4147Z" fill="#FFC163"/>
<path d="M71.7459 2.9093C66.3563 -8.00158 52.6091 42.5922 52.6091 42.5922C52.6091 42.5922 77.1487 13.8208 71.7459 2.9093Z" fill="#51DBEE"/>
<path d="M57.5693 15.8816C59.9818 9.63383 64.8202 19.4291 56.2797 32.2442C68.6241 20.4582 64.8468 34.2904 56.2874 41.3524C67.7929 37.3066 64.8001 46.8317 52.7886 50.2565C40.7234 53.6923 40.5905 48.7332 40.5905 48.7332C40.5905 48.7332 55.1435 22.1288 57.5693 15.8816Z" fill="#E15869"/>
<path d="M36.3758 46.7142C44.524 38.9954 50.656 26.1433 52.6099 21.5802C54.7116 16.6773 58.7152 25.7576 52.4912 35.7962C61.2976 25.7755 58.8495 39.9711 52.2734 44.5751C61.3297 42.368 58.0342 49.9493 50.7611 51.8735C46.6802 52.9497 42.0658 53.7366 38.7902 53.1163C36.1619 52.6171 35.7514 47.2999 36.3758 46.7142Z" fill="#5A49AE"/>
<path opacity="0.1" d="M31.871 88.0649C46.7265 88.0649 58.7693 87.0863 58.7693 85.8792C58.7693 84.6721 46.7265 83.6935 31.871 83.6935C17.0155 83.6935 4.97266 84.6721 4.97266 85.8792C4.97266 87.0863 17.0155 88.0649 31.871 88.0649Z" fill="black" fill-opacity="0.5"/>
<path opacity="0.2" d="M32.61 87.8461C46.5524 87.8461 57.855 86.9993 57.855 85.9547C57.855 84.9102 46.5524 84.0634 32.61 84.0634C18.6676 84.0634 7.36499 84.9102 7.36499 85.9547C7.36499 86.9993 18.6676 87.8461 32.61 87.8461Z" fill="black" fill-opacity="0.5"/>
<path opacity="0.3" d="M33.3553 87.6134C46.3846 87.6134 56.9469 86.9012 56.9469 86.0227C56.9469 85.1442 46.3846 84.432 33.3553 84.432C20.326 84.432 9.76367 85.1442 9.76367 86.0227C9.76367 86.9012 20.326 87.6134 33.3553 87.6134Z" fill="black" fill-opacity="0.5"/>
<path opacity="0.4" d="M56.0389 86.0925C56.0389 86.8065 46.219 87.3889 34.1006 87.3889C21.9823 87.3889 12.1624 86.8127 12.1624 86.0925C12.1624 85.3786 21.9823 84.7962 34.1006 84.7962C46.219 84.7962 56.0389 85.3786 56.0389 86.0925Z" fill="black" fill-opacity="0.5"/>
<path opacity="0.5" d="M55.1306 86.1605C55.1306 86.7116 46.0497 87.1563 34.8457 87.1563C23.6417 87.1563 14.5608 86.7116 14.5608 86.1605C14.5608 85.6094 23.6417 85.1647 34.8457 85.1647C46.0497 85.1647 55.1306 85.6094 55.1306 86.1605Z" fill="black" fill-opacity="0.5"/>
<path d="M23.7479 72.5277C24.9253 73.68 27.4366 78.6213 26.4221 80.5126C25.4075 82.404 23.1905 82.8048 23.1905 82.8048L21.5935 72.1394C21.5873 72.1331 22.5643 71.3753 23.7479 72.5277Z" fill="#43BBCC"/>
<path d="M25.0883 77.1434C25.6018 77.538 26.5663 79.2164 25.9713 79.8552C25.3764 80.494 24.2679 80.6255 24.2679 80.6255L24.0549 77.0119C24.0549 77.0119 24.5747 76.7551 25.0883 77.1434Z" fill="#51DBEE"/>
<path d="M21.5001 72.5404C22.5209 73.7679 24.1617 78.991 22.6837 80.97C21.2057 82.949 18.7507 83.3373 18.7507 83.3373L19.2768 72.102C19.2768 72.102 20.4855 71.3192 21.5001 72.5404Z" fill="#FFAB2D"/>
<path d="M20.197 79.2853L20.0842 81.6776C20.0842 81.6776 21.581 81.4396 22.4828 80.2309C22.8837 79.6986 22.9087 78.778 22.7584 77.8511C22.0632 78.54 21.1739 79.0034 20.197 79.2853Z" fill="#FFC163"/>
<path d="M17.9052 81.5019C15.9513 84.1134 10.2334 82.5603 10.2334 82.5603C10.2334 82.5603 16.7905 75.1327 19.2768 70.6674C19.2768 70.6674 21.0679 77.2808 17.9052 81.5019Z" fill="#E15869"/>
<path d="M16.8964 80.5508C15.6 82.2793 12.5 81.9224 12.5 81.9224C12.5 81.9224 16.8338 77.0124 18.4809 74.0564C18.4809 74.0564 18.9882 77.7576 16.8964 80.5508Z" fill="#FF6376"/>
<path d="M44.5281 46.1549C45.7994 44.4765 48.2919 40.9193 49.4881 40.9193C50.6843 40.9193 54.8114 49.2737 54.0787 53.4071C53.346 57.5405 46.457 62.2751 43.6137 63.6717C40.7642 65.0683 43.2505 47.8333 44.5281 46.1549Z" fill="#614FB7"/>
<path d="M45.4735 45.8984C46.4191 44.6459 48.2792 42.003 49.1685 42.003C50.0578 42.003 53.2893 47.4265 52.7382 50.5078C52.1871 53.5828 46.9076 57.9103 44.7846 58.9499C42.6678 59.9833 44.5215 47.151 45.4735 45.8984Z" fill="#453495"/>
<path d="M47.741 83.4877C47.741 83.4877 48.1668 83.0868 48.7493 82.7862C49.3317 82.4794 50.0957 82.4731 50.7032 82.8426C51.9245 83.5753 52.6885 85.4228 52.7574 86.3059C52.1437 86.7318 48.9622 86.3059 48.9622 86.3059L47.741 83.4877Z" fill="#BB7C1D"/>
<path d="M52.757 86.3058C53.3707 85.8799 51.899 83.3686 50.6778 82.6358C50.0703 82.2726 49.3376 82.4793 48.7551 82.7861C50.0578 85.9676 52.4814 86.4999 52.757 86.3058Z" fill="#FFAB2D"/>
<path d="M49.375 83.1114C49.375 83.1114 49.9887 82.4663 50.7152 82.9047C51.4417 83.3431 52.3122 84.8336 51.949 85.0841C51.5857 85.3409 50.7027 84.9714 50.1578 84.4641C49.6568 84.0007 49.375 83.1114 49.375 83.1114Z" fill="#FFC163"/>
<path d="M33.1736 78.1015L35.8164 80.45L40.3945 84.527C40.3945 84.527 38.9916 85.1408 38.6221 85.9988C38.2526 86.8568 41.9226 86.5499 43.5133 86.5499C45.104 86.5499 48.655 86.6 49.7572 86.6C50.8595 86.6 48.655 82.7046 47.1833 82.5605C45.7115 82.4102 41.6095 84.0824 41.6095 84.0824L37.1567 80.2997L33.9063 77.7946L33.1736 78.1015Z" fill="#BB7C1D"/>
<path d="M47.1896 82.3544C45.7179 82.2041 41.6158 83.7385 41.6158 83.7385L37.163 80.3065C36.7121 80.3128 36.5242 80.6447 36.7058 80.8201C36.8812 81.0017 40.9958 84.6716 40.9958 84.6716C40.9958 84.6716 39.643 84.634 39.2735 85.492C38.904 86.35 41.8162 86.3438 43.4069 86.3438C44.9977 86.3438 47.866 86.3939 48.9682 86.3062C50.8282 86.1621 48.6551 82.5047 47.1896 82.3544Z" fill="#FFAB2D"/>
<path d="M46.6261 82.8489C45.6742 82.7424 44.6534 83.6756 44.6158 84.1891C44.5594 84.9031 45.4112 85.8487 45.0104 85.6483C44.6033 85.4479 43.7829 84.7966 43.9833 83.8259C44.1211 83.1746 42.0481 84.5837 42.0481 85.4792C42.0481 86.118 44.2275 86.0178 45.8496 86.0178C47.4716 86.0178 48.9308 85.8988 48.9308 85.26C48.9308 84.6212 48.2419 83.0243 46.6261 82.8489Z" fill="#FFC163"/>
<path d="M19.8275 77.7744L21.5247 84.488C21.5247 84.488 20.0529 83.5486 19.2764 84.7135C18.4935 85.8721 19.2764 86.5296 20.4036 86.5296C21.5309 86.5296 28.5514 86.5296 29.7476 86.5296C30.9438 86.5296 28.1193 81.8389 26.6413 81.9391C25.157 82.033 23.3221 84.2563 23.3221 84.2563L20.5226 77.7994L19.8275 77.7744Z" fill="#BB7C1D"/>
<path d="M21.1365 81.3127C21.174 81.6071 22.6333 86.5922 22.1635 85.9346C21.6625 85.2332 20.0593 83.5986 19.2827 84.7698C18.4999 85.9409 19.2827 86.6047 20.41 86.6047C20.8045 86.6047 22.5268 86.0975 23.0716 86.1413C23.6228 86.1789 25.2448 86.7049 26.2531 86.7049C27.8376 86.7049 27.9879 86.2102 28.1507 85.609C28.3135 85.0077 28.1194 81.8827 26.6414 81.9766C25.1571 82.0768 23.1531 85.3021 24.249 85.9221C22.6834 86.0724 21.506 80.7741 21.506 80.7741C21.506 80.7741 21.0989 81.0184 21.1365 81.3127Z" fill="#FFAB2D"/>
<path d="M27.368 84.0993C27.2177 85.0073 26.6416 85.7401 26.0779 85.7401C25.5205 85.7401 25.1886 85.0073 25.3452 84.0993C25.4955 83.1912 26.0717 82.4584 26.6353 82.4584C27.1927 82.4584 27.5246 83.1974 27.368 84.0993Z" fill="#FFC163"/>
<path d="M20.0286 85.6528C20.4437 85.6528 20.7802 85.364 20.7802 85.0078C20.7802 84.6515 20.4437 84.3627 20.0286 84.3627C19.6136 84.3627 19.2771 84.6515 19.2771 85.0078C19.2771 85.364 19.6136 85.6528 20.0286 85.6528Z" fill="#F5B52C"/>
<path d="M34.1317 73.0227C33.2799 73.5926 31.47 78.4337 33.067 78.6529C34.664 78.8721 38.3151 75.4652 38.6032 73.2983C38.8913 71.1377 34.9896 72.4528 34.1317 73.0227Z" fill="#5A49AE"/>
<path d="M33.9251 76.2857C33.5493 76.4736 32.7101 78.0205 33.3928 78.0706C34.0754 78.1144 35.6849 76.9934 35.8352 76.3108C35.9855 75.6281 34.3008 76.0978 33.9251 76.2857Z" fill="#7761DF"/>
<path d="M47.5528 44.6899C50.3084 47.3391 55.5628 60.115 50.1205 67.8244C46.0873 73.536 35.7977 75.7217 30.2927 75.7217C24.7815 75.7217 18.1744 73.1539 18.1744 73.1539C18.1744 73.1539 15.0556 79.3979 9.91387 81.0512C4.77219 82.6921 0 79.3853 0 79.3853C0 79.3853 16.3394 72.7782 21.4811 67.8181C26.6228 62.8581 24.4183 49.293 20.3789 41.9406C16.3394 34.5882 44.8034 42.0408 47.5528 44.6899Z" fill="#5A49AE"/>
<path d="M48.2167 44.6905C51.0537 47.3397 54.3667 60.3724 50.1519 66.0401C46.1124 71.4761 40.5449 72.1713 35.0462 71.019C31.0193 70.1735 30.7938 69.1715 31.2698 68.8458C35.0462 66.2781 33.0547 52.4375 25.4455 43.2313C21.2933 35.8726 45.3859 42.0414 48.2167 44.6905Z" fill="#614FB7"/>
<path d="M48.5797 44.6901C51.4605 47.3392 53.189 57.4848 51.4731 61.7372C49.7571 65.9895 43.3378 71.4694 38.4216 67.7932C36.7995 66.5845 36.3298 64.9938 35.9415 62.9208C35.7724 62.0127 35.6096 61.0044 35.3779 59.9022C34.5324 55.869 32.6787 50.4705 25.464 43.2371C21.2367 35.8722 45.7051 42.0409 48.5797 44.6901Z" fill="#7761DF"/>
<path d="M20.2351 71.488C19.6026 72.6466 17.8991 77.5503 19.2769 78.5586C20.6547 79.5669 25.6085 74.6131 26.5291 72.8658C27.4497 71.1248 20.8739 70.3294 20.2351 71.488Z" fill="#5A49AE"/>
<path d="M21.1179 73.6924C20.5167 74.2999 18.7757 76.5858 19.6587 77.2371C20.548 77.8884 22.9028 74.7758 23.4978 73.6548C24.0865 72.5338 21.8381 72.9659 21.1179 73.6924Z" fill="#7761DF"/>
<path d="M2.59273 79.3543C2.91839 78.6967 14.8614 72.8098 15.6755 72.9726C16.4834 73.1354 13.1892 77.4003 9.51302 78.6967C5.83681 79.9931 2.26707 80.0119 2.59273 79.3543Z" fill="#7761DF"/>
<path d="M13.4963 69.8404C10.5591 69.3832 8.72413 66.3521 9.36292 66.0765C10.008 65.801 27.8379 66.9658 26.6355 68.0618C23.7922 70.6483 16.4335 70.2976 13.4963 69.8404Z" fill="#43BBCC"/>
<path d="M19.6022 69.872C18.0991 69.8406 17.0908 68.9388 17.4102 68.8261C17.7296 68.7134 26.8168 68.394 26.2344 68.7948C24.8566 69.7342 21.1052 69.9033 19.6022 69.872Z" fill="#51DBEE"/>
<path d="M21.3936 66.033C18.9135 67.4484 1.92907 67.7991 5.14185 66.033C8.59886 64.1354 18.2935 59.6826 20.0158 60.1398C21.738 60.6032 23.8736 64.6176 21.3936 66.033Z" fill="#FFAB2D"/>
<path d="M19.7087 65.8322C17.8048 67.2726 4.79091 67.6234 7.25215 65.8322C9.90128 63.9033 13.0452 64.7864 15.4939 64.636C17.9426 64.4857 21.6125 64.3918 19.7087 65.8322Z" fill="#FFC163"/>
<path d="M18.9635 57.3962C17.8237 57.916 11.7488 60.5714 10.6466 62.3124C9.54436 64.0597 18.9635 63.233 18.9635 63.233C18.9635 63.233 13.4586 69.0198 14.7612 69.2014C16.0638 69.383 23.3161 68.2808 23.3161 68.2808C23.3161 68.2808 18.4499 71.6188 18.5439 72.1073C18.6378 72.5958 26.6228 70.2097 27.725 68.0052C28.8272 65.8007 28.8899 58.9305 26.6353 57.3962C24.3807 55.8618 20.1033 56.8701 18.9635 57.3962Z" fill="#E15869"/>
<path d="M18.9635 57.3962C17.8237 57.916 14.2539 59.6633 13.1517 61.4106C12.0495 63.1579 19.5271 62.1684 21.7253 60.1142C21.2181 61.6987 15.519 67.642 16.8216 67.8236C18.1243 68.0052 25.5393 66.4896 25.5393 66.4896C25.5393 66.4896 21.3997 69.6711 21.4936 70.1596C21.5876 70.6481 26.3472 68.4749 27.4495 66.2704C28.5517 64.066 28.8836 58.9305 26.6291 57.3962C24.3807 55.8618 20.1033 56.8701 18.9635 57.3962Z" fill="#FF6376"/>
<path d="M16.2455 62.6761C16.2455 61.4799 16.0639 56.1691 19.5522 49.7373C23.0406 43.3055 23.7733 43.5811 25.0634 44.0383C26.3473 44.4954 32.0401 57.3528 32.0401 63.9599C32.0401 70.5671 23.9549 71.5817 24.5561 70.661C25.1574 69.7404 26.6353 66.8032 26.6353 66.8032C26.6353 66.8032 17.2601 68.8261 17.8989 67.536C18.5439 66.2521 23.5917 59.551 23.5917 59.551C23.5917 59.551 16.2518 63.8723 16.2455 62.6761Z" fill="#614FB7"/>
<path d="M17.9675 59.8961C17.9675 58.7 18.4623 52.4373 20.2158 49.2495C21.9694 46.0618 23.7793 43.588 25.0632 44.0452C26.347 44.5024 31.4574 55.0676 31.4574 61.681C31.4574 68.2944 26.0339 70.048 26.6351 69.1336C27.2363 68.213 28.4701 64.3802 28.4701 64.3802C28.4701 64.3802 18.8756 66.9166 19.5144 65.6265C20.1595 64.3427 25.5642 57.3973 25.5642 57.3973C25.5642 57.3973 17.9675 61.0861 17.9675 59.8961Z" fill="#7761DF"/>
<path d="M22.4892 50.5083C22.3264 49.9823 21.268 57.1155 22.4892 56.1385C23.7105 55.1615 24.2115 54.3724 24.2115 54.3724C24.2115 54.3724 24.0299 56.5143 24.8941 56.2325C25.7584 55.9569 26.5287 53.6773 26.2469 54.0405C25.9713 54.4038 25.0757 55.6876 24.8941 55.1553C24.7062 54.623 24.819 52.3684 24.3743 52.3371C23.9297 52.3057 23.1531 54.6981 22.7711 54.0405C22.389 53.3829 22.6521 51.0344 22.4892 50.5083Z" fill="#453495"/>
<path d="M30.0424 9.68102C16.1141 9.68102 9.14998 24.3608 10.3274 22.9642C11.511 21.5739 16.2206 16.307 24.9007 16.3258C33.5808 16.3445 43.9707 9.68102 30.0424 9.68102Z" fill="#FFAB2D"/>
<path d="M32.2969 10.6453C21.1994 8.36567 13.2457 18.9246 14.4169 18.004C15.588 17.0834 20.2036 13.6577 27.1176 15.0918C34.0254 16.5322 43.4007 12.9249 32.2969 10.6453Z" fill="#FFC163"/>
<path d="M24.7943 14.9287C11.3921 20.7781 12.4567 37.6185 13.3272 35.1761C14.3481 32.3391 17.0598 26.7026 21.2558 23.0577C25.5019 19.369 38.1965 9.08561 24.7943 14.9287Z" fill="#43BBCC"/>
<path d="M24.9133 16.0248C14.6612 18.818 13.6467 31.0428 14.5297 29.3832C15.5631 27.448 18.112 23.6841 21.5126 21.5047C24.9571 19.294 35.1716 13.2379 24.9133 16.0248Z" fill="#51DBEE"/>
<path d="M49.4381 18.5742C49.4381 18.5742 46.4758 9.35548 31.4954 7.3201C15.4441 5.14068 6.58231 15.7873 12.4254 13.0317C20.5294 9.20518 29.1343 10.3199 33.512 11.704C40.4761 13.9022 48.818 19.7265 49.4381 18.5742Z" fill="#E15869"/>
<path d="M43.5824 18.2987L27.2242 13.489C27.2242 13.489 18.8634 15.3052 16.4335 29.8785C15.8636 33.2792 20.4792 42.1221 20.4792 42.1221C20.4792 42.1221 39.568 44.8464 37.3322 45.767C35.0964 46.6939 31.5454 51.4661 32.8293 51.4661C34.1131 51.4661 38.0774 47.5018 38.0774 47.5018C38.0774 47.5018 37.6516 54.1465 40.0064 54.04C42.3611 53.9336 42.4676 47.2888 42.4676 47.2888C42.4676 47.2888 47.077 52.4305 51.6801 51.0402C56.2957 49.6436 51.2604 42.7922 40.332 38.1829C40.332 38.1829 30.6248 23.4279 43.5824 18.2987Z" fill="#5A49AE"/>
<path d="M49.4379 18.5745L30.7813 12.3681C30.7813 12.3681 26.3849 10.8713 22.6899 14.9671C20.3288 17.5849 18.2559 21.4052 17.8049 26.8663C17.2601 33.5361 24.1428 43.5 27.7439 44.7964C29.3095 45.3601 36.8498 45.9488 36.8498 45.9488C36.8498 45.9488 33.4805 49.2617 34.7644 49.2617C36.0482 49.2617 38.2527 46.669 38.2527 46.669C38.2527 46.669 37.9333 51.0278 40.2881 50.9214C42.6429 50.8149 42.0917 46.0177 42.0917 46.0177C42.0917 46.0177 43.9142 47.8777 48.3169 47.4581C52.7196 47.0385 51.2603 42.7861 40.3319 38.1767C40.3319 38.183 24.2117 18.9815 49.4379 18.5745Z" fill="#7761DF"/>
<path d="M49.438 18.5739C49.438 18.5739 46.5446 9.15479 31.5705 7.10688C16.7216 5.08403 8.99969 13.927 14.8491 11.1714C22.953 7.34487 30.7814 9.68712 30.7814 9.68712C39.7809 12.3676 45.6115 22.5194 49.438 18.5739Z" fill="#FF6376"/>
<path d="M44.2091 13.9895C44.2091 13.9895 42.0422 15.6303 36.5247 14.0772C31.0073 12.524 25.6527 13.8642 22.7029 20.5591C19.7595 27.2539 21.1623 37.9569 27.0931 39.2533C37.3138 41.4891 40.7834 38.0696 41.8856 36.1845C41.8856 36.1845 38.4912 30.6608 41.1466 25.469C43.8083 20.2772 48.3049 19.7011 48.3049 19.7011C48.3049 19.7011 45.8374 15.4988 44.2091 13.9895Z" fill="#5A49AE"/>
<path d="M45.3357 12.8618C45.3357 12.8618 43.2252 15.4984 37.7077 13.9453C32.1903 12.3921 26.7793 12.7303 23.8358 19.4251C20.8923 26.12 22.2827 34.9629 28.1195 36.6225C30.4054 37.2739 33.2612 37.0046 35.8915 36.4346C35.8915 36.4346 32.159 28.3808 37.6326 22.7569C43.1062 17.133 49.444 18.5734 49.444 18.5734C49.444 18.5734 46.964 14.3711 45.3357 12.8618Z" fill="#CCCCCC"/>
<path d="M45.3358 12.8622C45.3358 12.8622 43.1689 14.503 37.6514 12.9499C32.134 11.3967 26.7794 12.7369 23.8296 19.4318C20.8862 26.1266 23.7232 30.3915 29.56 32.0511C31.0693 32.477 32.6851 32.3017 34.2508 31.8069C34.2508 31.8069 34.2884 24.849 37.6264 21.9306C43.8139 16.5259 49.1498 18.411 49.1498 18.411C49.1498 18.411 47.0768 14.1398 45.3358 12.8622Z" fill="#E6E6E6"/>
<path d="M35.1667 20.7523C36.6306 16.6252 34.8072 12.2119 31.0942 10.8949C27.3811 9.57793 23.1844 11.8559 21.7206 15.983C20.2568 20.11 22.0801 24.5233 25.7931 25.8403C29.5062 27.1573 33.7029 24.8793 35.1667 20.7523Z" fill="white"/>
<path d="M34.4321 20.2298C35.697 16.6635 34.1247 12.8509 30.9202 11.7143C27.7157 10.5777 24.0925 12.5474 22.8275 16.1137C21.5626 19.6801 23.1349 23.4926 26.3394 24.6292C29.5439 25.7659 33.1671 23.7962 34.4321 20.2298Z" fill="#B2CFD1"/>
<path d="M32.744 18.8661C33.5283 15.476 31.8065 12.1823 28.8982 11.5095C25.99 10.8367 22.9966 13.0395 22.2123 16.4297C21.428 19.8198 23.1498 23.1134 26.0581 23.7862C28.9663 24.4591 31.9597 22.2562 32.744 18.8661Z" fill="white"/>
<path d="M30.6557 17.1528C30.5305 19.1694 29.0086 20.7977 27.2551 20.7852C25.5015 20.7789 24.1801 19.1381 24.3053 17.1215C24.4306 15.1049 25.9524 13.4766 27.706 13.4891C29.4595 13.4954 30.781 15.1362 30.6557 17.1528Z" fill="black"/>
<path d="M28.6016 15.7812C28.5515 16.6016 27.9315 17.2655 27.2113 17.2655C26.4973 17.2592 25.9587 16.5954 26.0088 15.7687C26.0589 14.9483 26.679 14.2844 27.3992 14.2844C28.1194 14.2907 28.658 14.9608 28.6016 15.7812Z" fill="white"/>
<path d="M43.8144 35.4212C39.6434 33.3232 40.5077 24.9437 40.5077 24.9437L32.8358 24.4552C32.8296 24.4615 29.3913 37.9075 43.8144 35.4212Z" fill="black"/>
<path d="M43.8146 35.4212C43.8146 35.4212 37.3765 40.3625 33.3747 37.0057C29.3728 33.6489 32.8361 24.4552 32.8361 24.4552C32.8361 24.4552 31.928 35.7281 43.8146 35.4212Z" fill="#212121"/>
<path d="M46.4511 13.9525C46.6828 14.1779 46.8957 14.4034 47.1087 14.6288C51.7431 23.4906 46.1254 34.6883 46.0127 32.797C45.8937 30.868 43.8708 30.0664 39.155 30.4296C34.4392 30.7866 32.8359 24.4613 32.8359 24.4613C32.8359 24.4613 36.5372 15.7749 46.4511 13.9525Z" fill="#404040"/>
<path d="M47.1021 14.6296C42.142 15.5189 38.2278 18.431 36.23 22.3264C33.8565 26.9546 37.6579 29.5536 39.424 30.4116C43.9645 30.2488 46.3381 34.8895 46.4508 36.7808C46.5635 38.6784 56.4836 24.9192 47.1021 14.6296Z" fill="#C2C2C2"/>
<path d="M46.376 16.3701C45.6182 16.3701 43.4451 17.3283 41.3659 21.1862C39.8879 23.9355 41.6289 25.7517 43.395 26.6097C46.852 29.1962 46.614 34.0811 46.733 35.9724C46.8457 37.8575 55.7638 26.6598 46.376 16.3701Z" fill="#F0F0F0"/>
<path d="M46.3569 18.4182C45.4301 18.3681 42.9312 20.6164 43.7329 21.418C43.7329 21.418 45.9624 23.3907 46.9331 26.6975C47.2024 27.6118 47.2901 28.6452 47.4592 29.4468C47.6345 30.2484 49.5822 29.8664 49.6574 29.4405C49.7325 29.0147 49.9705 27.3738 49.9329 26.3593C49.7889 22.1006 47.2901 18.4683 46.3569 18.4182Z" fill="white"/>
<path d="M47.5971 31.5256C47.6034 31.9515 47.5345 34.1247 47.5658 34.6006C47.5971 35.158 48.9875 31.9452 49.144 31.5194C49.3006 31.0935 47.5909 31.0998 47.5971 31.5256Z" fill="white"/>
<path d="M42.1355 43.4747C42.1355 43.4747 46.4881 47.1384 48.9305 46.6436C51.373 46.1488 47.1582 42.2973 46.2939 41.7524C45.4297 41.2076 49.1372 44.602 47.0455 44.5268C44.96 44.4642 42.1355 43.4747 42.1355 43.4747Z" fill="#8776DC"/>
</g>
<defs>
<filter id="filter0_d" x="0" y="1.368" width="81.8779" height="94.6969" filterUnits="userSpaceOnUse" color-interpolation-filters="sRGB">
<feFlood flood-opacity="0" result="BackgroundImageFix"/>
<feColorMatrix in="SourceAlpha" type="matrix" values="0 0 0 0 0 0 0 0 0 0 0 0 0 0 0 0 0 0 127 0" result="hardAlpha"/>
<feOffset dx="4" dy="4"/>
<feGaussianBlur stdDeviation="2"/>
<feColorMatrix type="matrix" values="0 0 0 0 0 0 0 0 0 0 0 0 0 0 0 0 0 0 0.15 0"/>
<feBlend mode="normal" in2="BackgroundImageFix" result="effect1_dropShadow"/>
<feBlend mode="normal" in="SourceGraphic" in2="effect1_dropShadow" result="shape"/>
</filter>
</defs>
</svg>
