<svg width="293" height="332" viewBox="0 0 293 332" fill="none" xmlns="http://www.w3.org/2000/svg">
<path d="M99.051 256.192C106.087 260.547 123.762 282.117 120.83 292.504C117.898 302.89 107.427 307.246 107.427 307.246L87.9941 256.611C88.036 256.611 92.0148 251.836 99.051 256.192Z" fill="#43BBCC"/>
<path d="M110.651 277.426C113.625 278.808 120.159 285.97 117.939 289.781C115.719 293.551 110.4 295.435 110.4 295.435L105.416 277.929C105.416 277.887 107.72 276.044 110.651 277.426Z" fill="#51DBEE"/>
<path d="M85.9827 258.705C92.3069 263.605 106.044 287.52 100.935 298.828C95.825 310.136 84.1817 314.701 84.1817 314.701L74.5488 258.956C74.5907 258.998 79.6166 253.804 85.9827 258.705Z" fill="#DB9600"/>
<path d="M86.8652 293.216L88.9175 305.068C88.9175 305.068 95.9956 302.262 99.1367 295.393C100.519 292.336 99.6393 287.771 97.9221 283.415C95.2417 287.561 91.3466 290.786 86.8652 293.216Z" fill="#FFC163"/>
<path d="M79.1588 306.199C71.9132 321.277 40.7109 320.146 40.7109 320.146C40.7109 320.146 60.9819 276.044 69.0233 251.291C68.9814 251.25 90.8858 281.865 79.1588 306.199Z" fill="#E15869"/>
<path d="M72.4973 302.178C67.262 312.23 49.8809 314.24 49.8809 314.24C49.8809 314.24 68.309 284.881 74.1307 268.379C74.1307 268.379 80.9156 285.928 72.4973 302.178Z" fill="#FF6376"/>
<path d="M82.4214 272.442L84.6411 318.512C84.6411 318.512 81.5837 314.827 77.3955 315.706C73.2073 316.586 56.4544 330.114 69.3122 330.993C82.1701 331.873 85.3531 329.611 90.1277 329.611C94.8604 329.611 98.923 332.082 116.513 331.077C134.104 330.072 124.764 309.215 115.55 306.576C106.336 303.937 93.6458 317.13 93.6458 317.13L87.2797 273.866L82.4214 272.442Z" fill="#946500"/>
<path d="M85.3928 290.828C84.8483 293.886 88.7434 321.528 86.3561 322.366C83.9688 323.203 81.5815 314.827 77.3933 315.706C73.2051 316.586 60.5148 330.114 73.3726 330.993C86.2304 331.873 84.5133 324.083 89.2879 324.083C94.0205 324.083 95.4864 332.334 113.077 331.328C130.667 330.323 125.725 310.806 116.511 308.167C107.297 305.529 97.8318 316.837 99.2558 323.915C99.2558 323.915 94.4812 322.701 93.8949 319.057C93.3085 315.413 89.0784 292.839 88.7015 290.703C88.2827 288.609 85.9373 287.729 85.3928 290.828Z" fill="#BA7F00"/>
<path d="M115.086 321.745C116.756 317.011 115.67 312.313 112.66 311.251C109.65 310.189 105.856 313.166 104.186 317.899C102.516 322.632 103.602 327.33 106.612 328.392C109.623 329.454 113.416 326.478 115.086 321.745Z" fill="#F9B217"/>
<path d="M84.5564 323.999C83.8444 326.428 81.5828 328.397 79.5305 328.355C77.4364 328.313 76.3475 326.302 77.0595 323.873C77.7715 321.444 80.0331 319.476 82.0854 319.518C84.1376 319.518 85.2684 321.528 84.5564 323.999Z" fill="#F9B217"/>
<path d="M263.775 148.471C276.675 132.262 289.742 111.614 291.417 106.295C293.092 100.976 269.638 78.653 263.775 79.1975C257.911 79.7419 266.832 107.552 270.183 109.855C262.937 119.069 257.074 128.66 263.775 148.471Z" fill="#43BBCC"/>
<path d="M278.559 128.2C291.459 111.991 290.454 110.609 292.129 105.332C293.804 100.013 273.114 83.972 268.633 82.7575C263.942 81.4591 272.025 110.777 285.721 107.468C278.433 116.598 277.428 119.195 278.559 128.2Z" fill="#51DBEE"/>
<path d="M265.493 143.445L273.66 190.772L252.76 193.703C252.76 193.703 228.804 164.972 228.008 162.124C227.212 159.276 232.615 151.612 232.615 151.612C232.615 151.612 228.888 148.471 227.966 145.958C227.003 143.445 237.222 125.1 240.028 124.346C240.028 124.346 244.845 107.971 248.447 107.468C252.048 106.965 272.152 116.975 273.953 120.451C275.67 123.928 265.493 143.445 265.493 143.445Z" fill="#FFA41B"/>
<path d="M260.005 135.99C254.812 131.592 240.865 123.928 237.389 126.901C233.913 129.875 229.515 139.298 235.169 146.418C240.823 153.538 245.095 156.889 245.095 156.889L234.332 153.329C234.332 153.329 230.353 158.355 232.447 162.334C234.541 166.312 241.242 163.716 247.943 158.104C254.644 152.491 271.984 125.77 271.984 123.634C271.984 121.499 258.498 109.939 253.43 108.683C248.362 107.426 243.252 123.341 245.053 123.634C253.849 125.142 261.346 134.356 260.005 135.99Z" fill="#FFC163"/>
<path d="M262.014 185.662C256.611 173.391 257.616 146 261.511 142.314C265.406 138.67 280.233 167.15 278.809 183.317C277.427 199.567 267.417 197.975 262.014 185.662Z" fill="#E15869"/>
<path d="M263.479 163.8C260.757 156.554 260.757 145.204 262.726 143.068C264.694 140.932 269.887 152.156 269.217 161.705C268.505 171.255 266.202 171.045 263.479 163.8Z" fill="#FF6376"/>
<path d="M202.459 190.479C222.562 211.294 275.125 212.969 284.632 209.032C294.139 205.137 278.517 149.895 274.622 142.314C270.727 134.733 268.13 166.983 272.905 188.217C265.073 165.307 253.178 158.48 248.697 160.449C244.216 162.417 247.189 178.165 247.189 178.165C247.189 178.165 241.577 170.961 237.263 168.532C232.949 166.103 232.907 171.464 233.284 174.103C224.657 173.977 202.501 166.271 202.501 166.271V190.479H202.459Z" fill="#5A49AE"/>
<path d="M223.15 193.703C240.741 212.048 276.634 212.718 285.01 209.242C293.387 205.807 282.791 165.81 279.356 159.109C275.922 152.449 274.163 180.552 275.126 198.394C270.561 169.244 253.641 158.439 249.704 160.198C245.767 161.915 251.044 189.557 251.044 189.557C251.044 189.557 242.374 170.333 238.186 169.119C231.443 167.15 238.647 186.29 241.495 193.117C239.107 192.028 235.296 188.217 233.747 182.018C230.187 178.249 225.705 178.039 223.611 179.422C219.632 182.102 223.15 193.703 223.15 193.703Z" fill="#614FB7"/>
<path d="M144.746 247.355C144.076 253.888 150.61 278.18 161.667 279.646C172.724 281.112 174.273 267.626 173.226 252.841C172.179 238.099 145.458 240.863 144.746 247.355Z" fill="#483795"/>
<path d="M215.903 67.0516C212.929 29.8602 181.266 -5.11142 146.211 6.6156C111.155 18.3426 103.617 53.4818 102.36 80.0351C101.104 106.588 106.339 132.22 106.339 132.22C106.339 132.22 86.026 174.94 75.388 201.326C64.7499 227.712 60.7292 254.265 60.7292 254.265L0 313.319C0 313.319 31.8724 321.025 42.8874 310.136C56.9598 296.231 68.7287 261.05 68.7287 261.05C68.7287 261.05 114.464 280.525 148.221 275.499C182.02 270.474 209.579 239.439 214.353 209.619C217.201 191.777 210.039 159.863 200.951 140.471C200.993 140.471 219.211 108.892 215.903 67.0516Z" fill="#5A49AE"/>
<path d="M211.421 75.3024C212.259 35.64 177.832 -9.71845 148.305 9.12854C118.778 27.9755 106.59 59.6804 106.171 86.1918C105.752 112.703 114.171 134.44 121.458 141.476C128.746 148.513 150.776 164.302 139.468 190.688C128.159 217.074 118.945 256.275 152.87 251.25C186.795 246.224 208.908 239.397 214.437 209.619C218.583 187.17 208.992 158.941 197.307 136.576C192.449 127.362 210.584 114.965 211.421 75.3024Z" fill="#614FB7"/>
<path d="M144.91 149.601C144.91 149.601 153.496 161.957 150.271 190.478C147.172 217.995 133.895 235.753 168.197 236.256C191.818 236.591 209.451 235.502 214.979 205.682C218.79 185.159 208.99 150.732 187.421 135.068C172.05 140.932 151.318 139.382 144.91 149.601Z" fill="#7761DF"/>
<path d="M62.6563 258.872C66.6351 258.914 44.3957 302.639 36.6475 306.408C28.8993 310.178 9.13086 310.094 9.13086 310.094L62.6563 258.872Z" fill="#7761DF"/>
<path d="M187.381 135.068C187.381 135.068 219.463 153.622 217.369 168.072C215.233 182.521 194.041 159.151 194.041 159.151C194.041 159.151 196.177 186.918 176.366 185.662C156.556 184.406 162.922 151.109 162.922 151.109C162.922 151.109 151.614 169.328 138.17 164.302C124.725 159.276 148.766 141.686 148.766 141.686C167.571 142.314 187.381 135.068 187.381 135.068Z" fill="#614FB7"/>
<path d="M117.604 118.315C119.949 83.0087 166.145 39.4094 209.535 57.2512C209.535 57.2512 222.644 88.3278 200.991 123.132C200.991 123.132 219 148.136 215.775 160.365C212.048 174.479 194.08 150.732 194.08 150.732C194.08 150.732 197.222 180.469 179.422 174.396C161.622 168.323 166.731 145.79 166.731 145.79C166.731 145.79 156.303 158.69 144.869 158.062C137.498 157.643 138.922 150.523 145.413 142.9C145.455 142.9 123.593 143.487 117.604 118.315Z" fill="#7761DF"/>
<path d="M74.5497 247.773C72.0787 254.056 72.2043 277.51 83.2612 278.976C94.3181 280.441 99.5953 267.458 102.527 253.218C105.543 238.978 77.0627 241.491 74.5497 247.773Z" fill="#5A49AE"/>
<path d="M82.0469 257.406C80.4554 261.72 78.4451 270.641 85.4394 271.646C92.4337 272.651 96.2869 265.238 98.1716 255.48C100.056 245.763 83.6385 253.134 82.0469 257.406Z" fill="#614FB7"/>
<path d="M171.551 141.309C171.551 141.309 170.42 160.365 179.216 165.81C188.011 171.296 190.273 152.198 189.812 148.806C189.351 145.413 187.383 162.166 181.687 156.47C175.949 150.816 171.551 141.309 171.551 141.309Z" fill="#8673E1"/>
<path d="M205.811 82.6737C205.811 109.897 183.99 131.09 160.159 131.969C105.503 133.979 110.068 111.279 110.068 84.0558C110.068 56.8324 138.841 33.4202 162.672 33.4202C186.503 33.4202 205.811 55.4503 205.811 82.6737Z" fill="#614FB7"/>
<path d="M206.689 310.01C206.689 310.01 208.742 307.916 211.548 306.283C214.354 304.691 218.04 304.649 220.971 306.576C226.877 310.429 230.562 320.188 230.855 324.837C227.924 327.098 212.553 324.837 212.553 324.837L206.689 310.01Z" fill="#946500"/>
<path d="M230.899 324.837C233.831 322.575 226.753 309.382 220.848 305.487C217.916 303.56 214.398 304.691 211.592 306.283C217.874 323.078 229.559 325.842 230.899 324.837Z" fill="#BA7F00"/>
<path d="M214.562 308C214.562 308 217.536 304.607 221.012 306.911C224.53 309.215 228.719 317.047 226.96 318.387C225.201 319.727 220.97 317.8 218.332 315.12C215.945 312.691 214.562 308 214.562 308Z" fill="#F9B217"/>
<path d="M164.097 279.771L171.301 315.455C171.301 315.455 164.558 318.68 162.757 323.203C160.956 327.726 178.672 326.093 186.336 326.093C194.001 326.093 211.131 326.386 216.45 326.386C221.769 326.386 211.131 305.864 204.052 305.11C196.974 304.314 177.206 313.151 177.206 313.151L168.62 277.97C165.437 277.217 164.097 279.771 164.097 279.771Z" fill="#946500"/>
<path d="M204.053 304.021C196.974 303.225 177.164 311.309 177.164 311.309L170.337 288.106C168.159 288.148 174.19 316.209 174.19 316.209C174.19 316.209 167.657 315.999 165.898 320.523C164.097 325.046 178.169 325.004 185.834 325.004C193.498 325.004 207.319 325.255 212.638 324.837C221.601 324.083 211.131 304.817 204.053 304.021Z" fill="#BA7F00"/>
<path d="M201.329 306.618C196.722 306.073 191.822 310.974 191.654 313.696C191.403 317.465 195.507 322.449 193.539 321.402C191.57 320.355 187.591 316.921 188.597 311.811C189.267 308.377 179.299 315.79 179.299 320.523C179.299 323.873 189.811 323.371 197.643 323.371C205.475 323.371 212.511 322.742 212.511 319.392C212.47 315.999 209.119 307.539 201.329 306.618Z" fill="#F9B217"/>
<path d="M158.065 1.9248C184.241 -0.0436652 214.48 22.2377 219.255 32.2894C224.029 42.3411 184.66 27.2635 159.321 28.3106C133.983 29.3576 112.539 28.3106 112.539 28.3106C112.539 28.3106 126.444 4.31208 158.065 1.9248Z" fill="#E15869"/>
<path d="M158.273 0.417036C178.921 -1.13261 203.296 15.4527 206.354 26.5096C208.699 34.9699 179.088 22.5308 159.111 23.3685C139.133 24.2061 131.552 15.704 130.589 13.9031C129.584 12.1022 133.353 2.30174 158.273 0.417036Z" fill="#FF6376"/>
<path d="M110.064 45.9849C118.482 26.1746 133.56 6.19678 148.428 6.02925C163.338 5.86173 166.186 21.9445 183.818 20.5624C201.451 19.1803 212.969 77.8154 201.786 105.164C190.603 132.514 163.883 118.022 146.669 118.022C129.455 118.022 120.241 126.692 110.064 114.127C99.8447 101.563 101.646 65.7952 110.064 45.9849Z" fill="#CCCCCC"/>
<path d="M115.343 44.7284C123.762 24.4156 133.562 3.26504 148.43 3.01375C172.052 2.63681 174.062 19.3059 183.863 17.9238C201.411 15.4528 206.186 64.1618 195.003 92.181C183.821 120.2 163.927 95.1127 146.713 95.1127C129.499 95.1127 125.646 112.578 115.469 99.7198C105.208 86.8619 106.925 64.9994 115.343 44.7284Z" fill="#E6E6E6"/>
<path d="M96.705 38.1529C91.9304 52.9373 97.9196 67.5542 105.835 67.8055C113.751 68.0568 118.777 54.9895 123.551 40.2051C128.326 25.4207 130.797 14.1544 122.881 13.9031C114.966 13.6518 101.48 23.3685 96.705 38.1529Z" fill="white"/>
<path d="M97.5849 36.8964C93.3548 50.0893 98.6738 63.1147 105.71 63.3241C112.746 63.5335 117.27 51.8903 121.5 38.6974C125.73 25.5045 127.949 15.4946 120.913 15.2433C113.835 15.0339 101.815 23.7035 97.5849 36.8964Z" fill="#B2CFD1"/>
<path d="M97.9189 35.3887C94.0238 47.2413 98.924 58.9265 105.374 59.094C111.866 59.3034 119.614 45.4823 123.509 33.6715C127.404 21.8188 127.278 15.0339 120.787 14.8245C114.295 14.6151 101.814 23.536 97.9189 35.3887Z" fill="white"/>
<path d="M208.129 72.4892C219.059 68.0513 222.529 51.1806 215.881 34.8075C209.233 18.4344 194.983 8.759 184.054 13.1969C173.124 17.6349 169.653 34.5056 176.301 50.8787C182.95 67.2518 197.199 76.9272 208.129 72.4892Z" fill="white"/>
<path d="M206.915 69.5013C216.73 65.5158 219.841 50.3497 213.863 35.6267C207.885 20.9038 195.082 12.1993 185.266 16.1848C175.451 20.1702 172.34 35.3364 178.319 50.0593C184.297 64.7823 197.1 73.4867 206.915 69.5013Z" fill="#B2CFD1"/>
<path d="M204.938 62.8008C214.003 59.12 216.879 45.1215 211.362 31.5344C205.845 17.9473 194.024 9.91666 184.959 13.5975C175.894 17.2784 173.017 31.2769 178.534 44.864C184.051 58.4511 195.872 66.4817 204.938 62.8008Z" fill="white"/>
<path d="M200.361 51.0074C206.371 49.3099 209.338 41.1845 206.986 32.8588C204.635 24.5332 197.856 19.1599 191.846 20.8574C185.835 22.5549 182.869 30.6803 185.22 39.006C187.572 47.3317 194.35 52.7049 200.361 51.0074Z" fill="black"/>
<path d="M198.574 35.8064C201.179 35.0709 202.464 31.5511 201.446 27.9448C200.428 24.3384 197.49 22.0112 194.886 22.7468C192.281 23.4824 190.996 27.0022 192.014 30.6085C193.033 34.2148 195.97 36.542 198.574 35.8064Z" fill="white"/>
<path d="M116.098 39.9323C120.174 32.0921 120.249 24.0587 116.268 21.9891C112.286 19.9195 105.755 24.5975 101.68 32.4377C97.6044 40.2779 97.5286 48.3113 101.51 50.3809C105.492 52.4505 112.023 47.7725 116.098 39.9323Z" fill="black"/>
<path d="M113.196 31.4324C114.967 28.0254 115.005 24.537 113.281 23.6409C111.557 22.7448 108.723 24.7803 106.953 28.1873C105.182 31.5943 105.144 35.0826 106.868 35.9787C108.592 36.8748 111.425 34.8394 113.196 31.4324Z" fill="white"/>
<path d="M179.629 195.002C181.807 198.604 176.069 242.831 169.159 260.966C166.436 268.086 153.495 257.616 159.107 216.11C161.913 195.672 177.493 191.358 179.629 195.002Z" fill="#43BBCC"/>
<path d="M164.299 216.864C163.587 218.958 163.042 221.388 162.749 224.194C159.189 257.113 167.398 265.448 169.115 259.794C172.717 247.983 175.774 222.183 176.026 211.797C172.172 213.639 168.194 215.147 164.299 216.864Z" fill="#51DBEE"/>
<path d="M161.828 202.876C163.712 205.682 151.106 248.527 140.3 261.469C136.74 265.783 125.139 246.643 137.243 220.424C144.07 205.765 159.943 200.111 161.828 202.876Z" fill="#FFA41B"/>
<path d="M116.387 234.078C116.387 234.078 102.566 236.716 102.357 257.281C102.273 267.081 142.689 228.633 140.595 222.686C138.501 216.739 97.959 223.942 97.959 223.942L116.387 234.078Z" fill="#FFA41B"/>
<path d="M169.244 191.023C163.171 192.07 192.698 186.835 196.048 191.735C199.399 196.635 166.312 217.157 136.575 209.451C106.839 201.787 175.317 189.976 169.244 191.023Z" fill="#E15869"/>
<path d="M185.827 192.908C185.827 192.908 192.235 192.614 194.329 194.499C196.423 196.384 177.45 210.708 151.902 210.624C170.498 205.891 189.094 195.546 185.827 192.908Z" fill="#FF6376"/>
<path d="M117.643 145.748C109.979 147.591 93.6446 161.999 86.8178 180.929C79.991 199.818 85.3938 223.147 87.4461 225.701C89.4983 228.214 101.854 236.004 119.235 237.47C130.794 238.434 118.565 226.12 112.659 222.937C125.391 226.874 147.798 225.576 151.861 218.916C155.463 212.969 138.375 206.687 138.375 206.687C138.375 206.687 172.09 206.854 185.953 187.84C191.984 179.589 143.61 186.458 127.276 194.038C133.098 180.008 125.308 143.905 117.643 145.748Z" fill="#614FB7"/>
<path d="M118.857 148.931C111.737 150.648 100.555 163.59 94.8167 181.432C87.0685 205.514 98.1254 233.45 114.334 234.79C125.098 235.669 111.611 219.796 106.125 216.822C117.978 220.466 138.165 220.382 144.028 217.032C149.64 213.849 128.197 201.535 128.197 201.535C128.197 201.535 160.279 202.373 174.393 189.641C181.429 183.275 132.888 189.976 117.642 197.054C134.982 182.018 125.977 147.172 118.857 148.931Z" fill="#7761DF"/>
<path d="M103.4 177.495C100.887 182.94 106.458 199.776 109.306 195.379C112.154 190.981 112.907 187.966 112.907 187.966C112.907 187.966 114.583 194.96 117.012 193.159C119.483 191.358 119.525 183.317 119.022 184.782C118.52 186.248 117.054 191.232 115.881 189.725C114.75 188.217 112.74 180.971 111.274 181.306C109.85 181.683 110.395 189.18 107.965 188.384C103.484 186.96 104.028 176.155 103.4 177.495Z" fill="#614FB7"/>
<path d="M106.125 256.778C99.9683 256.652 116.721 238.643 116.721 238.643C116.721 238.643 121.203 239.732 123.925 236.046C126.647 232.361 122.878 228.424 122.878 228.424C122.878 228.424 146.122 230.979 151.902 224.948C154.08 222.686 156.551 216.864 156.551 216.864C156.551 216.864 148.049 255.396 140.72 258.034C133.39 260.673 137.453 231.23 137.453 231.23C137.453 231.23 112.282 256.946 106.125 256.778Z" fill="#FFC163"/>
<path d="M147.717 4.43771C174.983 4.43771 188.343 70.6116 181.893 104.787C175.695 137.456 130.336 133.561 114.924 111.154C99.9297 89.4167 120.452 4.43771 147.717 4.43771Z" fill="#262626"/>
<path d="M111.488 75.4699C111.488 75.4699 111.069 79.1137 113.792 87.5739C116.514 96.0341 129.162 107.384 149.936 104.787C170.709 102.191 174.06 95.3221 174.06 95.3221L168.029 87.532C168.029 87.532 165.851 58.3401 144.784 57.3349C111.991 55.7853 111.488 75.4699 111.488 75.4699Z" fill="black"/>
<path d="M147.718 5.98735C168.45 6.36429 179.088 62.5702 177.957 76.852C176.826 91.1758 168.031 88.0346 168.031 88.0346C168.031 88.0346 158.273 83.1762 146.671 84.4746C135.07 85.7729 129.583 95.9922 127.112 95.9922C124.641 95.9922 120.579 86.7781 118.736 84.1814C116.935 81.5847 111.49 77.3127 111.49 77.3127C112.202 47.1576 126.987 5.61041 147.718 5.98735Z" fill="#C2C2C2"/>
<path d="M144.283 11.0132C162.711 11.3483 168.616 46.3199 167.611 59.0521C166.606 71.7843 161.12 68.2243 150.817 69.3551C140.514 70.4859 128.703 92.8929 126.483 92.8929C124.263 92.8929 115.845 78.1923 115.259 64.4968C114.756 52.3928 125.855 10.6781 144.283 11.0132Z" fill="#F0F0F0"/>
<path d="M143.739 13.7356C134.023 18.217 128.787 34.8861 126.4 50.9688C126.191 52.3928 125.981 55.2408 128.285 55.4502C130.588 55.6597 132.724 55.9528 134.651 56.3716C136.578 56.7905 138.462 53.9006 139.174 52.3928C143.153 44.1002 148.682 35.3468 156.555 27.5986C160.785 24.248 148.221 11.6414 143.739 13.7356Z" fill="white"/>
<path d="M125.059 63.2403C123.886 75.3024 124.975 84.8934 126.483 85.2285C128.493 85.6892 129.499 76.5589 134.189 64.4549C135.111 62.0676 134.525 60.7693 133.226 60.5599C131.593 60.3086 129.331 59.9735 127.446 59.806C126.651 59.7222 125.31 60.6855 125.059 63.2403Z" fill="white"/>
</svg>
