<svg width="276" height="54" viewBox="0 0 276 54" fill="none" xmlns="http://www.w3.org/2000/svg">
<g clip-path="url(#clip0_60764_81257)">
<mask id="path-1-inside-1_60764_81257" fill="white">
<path d="M0 0H276V54H0V0Z"/>
</mask>
<path d="M0 0H276V54H0V0Z" fill="url(#paint0_linear_60764_81257)"/>
<path d="M153.855 41.6826C153.855 41.6826 153.63 39.6351 157.574 40.8091C157.574 40.8091 156.739 37.8131 159.434 38.1887C159.434 38.1887 159.453 36.1601 161.707 35.8783C161.707 35.8783 163.144 35.7468 163.36 36.5263C163.36 36.5263 163.726 35.512 164.59 35.8501C164.919 35.9816 165.173 36.254 165.304 36.5827C165.473 36.9959 165.586 37.6534 165.069 38.2733C165.069 38.2733 168.807 38.2357 169.164 40.3771C169.164 40.3771 170.15 40.1517 171.043 40.3771C170.78 39.9544 170.188 39.8136 170.188 39.8136C169.709 37.6628 166.75 37.5876 166.75 37.5876C166.75 37.5876 168.366 34.7325 167.079 33.3894C165.792 32.0463 163.895 33.9435 163.895 33.9435C163.895 33.9435 161.895 31.5486 159.49 32.5629C157.086 33.5772 157.142 36.4043 157.142 36.4043C153.48 36.1976 155.752 39.5412 155.752 39.5412C153.226 39.3158 153.404 41.1378 153.404 41.1378C153.404 41.1378 151.235 40.5837 151 41.5135C151 41.5041 153.442 41.2693 153.855 41.6826Z" fill="white"/>
<path opacity="0.8" d="M151.898 42.4449C163.601 43.2056 168.917 42.1913 168.917 42.1913C168.917 42.1913 176.045 42.2664 175.998 41.7592C175.951 41.2521 171.096 41.2051 171.096 41.2051V41.1957C171.237 40.7825 170.945 40.3316 170.504 40.2941C169.79 40.2283 169.152 40.3786 169.152 40.3786C168.795 38.2372 165.057 38.2748 165.057 38.2748C165.573 37.6643 165.46 37.0163 165.301 36.5936C165.169 36.2649 164.916 35.9925 164.587 35.861C163.714 35.5135 163.357 36.5373 163.357 36.5373C163.15 35.7577 161.704 35.8892 161.704 35.8892C159.45 36.171 159.431 38.1997 159.431 38.1997C156.735 37.824 157.571 40.82 157.571 40.82C153.627 39.646 153.852 41.6935 153.852 41.6935C153.561 41.4023 152.265 41.4305 151.523 41.4775C151.063 41.5057 150.931 42.1349 151.354 42.3322C151.607 42.4449 151.898 42.4449 151.898 42.4449Z" fill="#F7F7F7"/>
<path d="M151.34 42.321C151.603 42.4431 151.894 42.4431 151.894 42.4431C163.597 43.2039 168.913 42.1895 168.913 42.1895C168.913 42.1895 176.041 42.2646 175.994 41.7575C175.947 41.2503 171.092 41.2033 171.092 41.2033V41.194C171.233 40.7807 170.941 40.3299 170.5 40.2923C169.946 40.2454 169.448 40.3205 169.241 40.3581C169.176 40.7337 168.96 41.2033 168.368 41.4288C166.997 41.9547 154.571 42.9784 151.152 42.1332C151.181 42.2083 151.246 42.274 151.34 42.321Z" fill="#B1C8ED"/>
<path d="M173.84 12.1107C173.84 12.1107 170.48 10.4361 171.819 9.13959C173.159 7.84311 176.26 7.69186 176.26 7.69186C176.26 7.69186 175.115 5.58508 176.033 4.64513C176.951 3.70518 179.447 3.84563 179.447 3.84563C179.447 3.84563 181.532 -2.4639 187.701 -2.96088C193.87 -3.46867 200.461 0.982576 198.873 9.50693C198.873 9.50693 202.319 9.77703 199.856 12.1107C199.856 12.1107 202.362 12.2079 202.308 12.6401C202.265 13.0722 190.737 13.9906 182.645 13.9906C174.553 13.9906 173.84 12.1107 173.84 12.1107Z" fill="white"/>
<path opacity="0.8" d="M171.5 9.78744C171.37 9.6902 171.262 9.60377 171.176 9.54975C171.316 9.49573 171.467 9.43091 171.63 9.36608C173.553 8.63141 176.805 7.86433 179.354 9.72262C179.354 9.72262 178.166 5.0985 183.287 6.00604C183.287 6.00604 187.825 -4.20374 197.818 1.96535C197.916 2.01937 198.002 2.08419 198.099 2.13821C198.175 2.19223 198.251 2.23545 198.337 2.28947L198.013 2.31107C199.007 4.22338 199.407 6.63267 198.866 9.51734C198.866 9.51734 202.313 9.78744 199.85 12.1211C199.85 12.1211 202.356 12.2183 202.302 12.6505C202.259 13.0827 190.731 14.001 182.639 14.001C174.557 14.001 173.834 12.1211 173.834 12.1211C173.834 12.1211 171.478 10.9327 171.5 9.78744Z" fill="#F7F7F7"/>
<path d="M199.862 12.1069C202.314 9.77324 198.879 9.50314 198.879 9.50314C199.419 6.62928 199.019 4.20918 198.025 2.29688C196.394 16.126 184.606 10.3891 184.606 10.3891C177.811 13.8139 172.992 10.8644 171.512 9.77324C171.48 10.9185 173.846 12.0961 173.846 12.0961C173.846 12.0961 174.57 13.976 182.651 13.976C190.743 13.976 202.271 13.0577 202.314 12.6255C202.357 12.2041 199.862 12.1069 199.862 12.1069Z" fill="#B1C8ED"/>
<path d="M186.035 11.8654C189.266 13.1835 193.025 12.9782 195.932 11.0119C196.126 10.8822 196.331 10.7634 196.537 10.6445C196.191 10.9687 195.856 11.3144 195.478 11.5845C192.798 13.6372 188.833 13.7453 186.035 11.8654Z" fill="white"/>
<path d="M176.543 10.1773C177.634 8.89161 179.935 8.77276 180.983 10.1773C179.514 9.45342 178.034 9.58306 176.543 10.1773Z" fill="white"/>
<path d="M180.406 8.15651C182.891 5.72561 187.051 5.63918 189.503 8.15651C186.532 6.31983 183.377 6.39546 180.406 8.15651Z" fill="white"/>
<path d="M17.7078 25.4322C17.7078 25.4322 20.9769 23.8029 19.6735 22.5415C18.3701 21.2801 15.3532 21.1329 15.3532 21.1329C15.3532 21.1329 16.4675 19.0832 15.574 18.1687C14.6805 17.2542 12.2523 17.3908 12.2523 17.3908C12.2523 17.3908 10.2236 11.2521 4.22149 10.7685C-1.78061 10.2745 -8.19266 14.6052 -6.64746 22.8989C-6.64746 22.8989 -10.0006 23.1617 -7.60401 25.4322C-7.60401 25.4322 -10.0427 25.5268 -9.99014 25.9472C-9.94809 26.3677 1.26774 27.2612 9.1409 27.2612C17.0141 27.2612 17.7078 25.4322 17.7078 25.4322Z" fill="white"/>
<path opacity="0.8" d="M19.9815 23.1705C20.1077 23.0759 20.2128 22.9918 20.2969 22.9393C20.1602 22.8867 20.0131 22.8237 19.8554 22.7606C17.9843 22.0458 14.8204 21.2995 12.3396 23.1075C12.3396 23.1075 13.4959 18.6085 8.51341 19.4915C8.51341 19.4915 4.09856 9.55806 -5.62464 15.5602C-5.71924 15.6127 -5.80333 15.6758 -5.89794 15.7283C-5.97152 15.7809 -6.0451 15.823 -6.12919 15.8755L-5.81384 15.8965C-6.78091 17.7571 -7.16983 20.1012 -6.64426 22.9077C-6.64426 22.9077 -9.99744 23.1705 -7.60081 25.441C-7.60081 25.441 -10.0395 25.5356 -9.98693 25.9561C-9.94489 26.3766 1.27095 27.27 9.14411 27.27C17.0068 27.27 17.711 25.441 17.711 25.441C17.711 25.441 20.0026 24.2848 19.9815 23.1705Z" fill="#F7F7F7"/>
<path d="M-7.6139 25.4273C-10 23.1568 -6.65735 22.894 -6.65735 22.894C-7.18293 20.098 -6.794 17.7434 -5.82694 15.8828C-4.2397 29.3376 7.22842 23.756 7.22842 23.756C13.8402 27.0881 18.5283 24.2185 19.9684 23.1568C20 24.271 17.6979 25.4168 17.6979 25.4168C17.6979 25.4168 16.9937 27.2458 9.13101 27.2458C1.25785 27.2458 -9.95798 26.3523 -10 25.9319C-10.0421 25.5219 -7.6139 25.4273 -7.6139 25.4273Z" fill="#B1C8ED"/>
<path d="M5.83984 25.1917C2.69689 26.4741 -0.961138 26.2744 -3.78875 24.3613C-3.97796 24.2352 -4.17767 24.1195 -4.37739 24.0039C-4.04102 24.3193 -3.71517 24.6556 -3.34726 24.9184C-0.740394 26.9156 3.11735 27.0207 5.83984 25.1917Z" fill="white"/>
<path d="M15.0742 23.5523C14.0126 22.3014 11.7736 22.1858 10.754 23.5523C12.1835 22.848 13.6236 22.9742 15.0742 23.5523Z" fill="white"/>
<path d="M11.3164 21.5867C8.89875 19.2216 4.8518 19.1376 2.46567 21.5867C5.35635 19.7998 8.42573 19.8734 11.3164 21.5867Z" fill="white"/>
</g>
<path d="M276 53H0V55H276V53Z" fill="#F7F6FB" mask="url(#path-1-inside-1_60764_81257)"/>
<defs>
<linearGradient id="paint0_linear_60764_81257" x1="273.549" y1="54" x2="14.6647" y2="-39.6928" gradientUnits="userSpaceOnUse">
<stop stop-color="#E1F2FE"/>
<stop offset="1" stop-color="white"/>
</linearGradient>
<clipPath id="clip0_60764_81257">
<path d="M0 0H276V54H0V0Z" fill="white"/>
</clipPath>
</defs>
</svg>
