<svg width="24" height="24" viewBox="0 0 24 24" fill="none" xmlns="http://www.w3.org/2000/svg">
<path d="M1 12C1 16.5563 1.56251 18.8696 2.96997 20.1598C3.67341 20.8046 4.67359 21.2733 6.15565 21.5752C7.64457 21.8786 9.55023 22 12 22C14.4498 22 16.3554 21.8786 17.8443 21.5752C19.3264 21.2733 20.3266 20.8046 21.03 20.1598C22.4375 18.8696 23 16.5563 23 12C23 7.44371 22.4375 5.13039 21.03 3.84022C20.3266 3.1954 19.3264 2.7267 17.8443 2.42477C16.3554 2.12145 14.4498 2 12 2C8.76038 2 6.49183 2.21386 4.88769 2.76179C3.35463 3.28545 2.4532 4.10344 1.88302 5.40203C1.25285 6.83723 1 8.91967 1 12Z" stroke="#707EAE" stroke-width="2" stroke-linecap="round" stroke-linejoin="round"/>
<path fill-rule="evenodd" clip-rule="evenodd" d="M14.8285 16.2426C15.219 16.6332 15.8522 16.6332 16.2427 16.2426C16.6332 15.8521 16.6332 15.219 16.2427 14.8284L13.4143 12L16.2427 9.17157C16.6332 8.78105 16.6332 8.14788 16.2427 7.75736C15.8522 7.36684 15.219 7.36683 14.8285 7.75736L12.0001 10.5858L9.17164 7.75736C8.78112 7.36684 8.14795 7.36683 7.75743 7.75736C7.36691 8.14788 7.36691 8.78105 7.75743 9.17157L10.5859 12L7.75743 14.8284C7.36691 15.219 7.36691 15.8521 7.75743 16.2426C8.14795 16.6332 8.78112 16.6332 9.17164 16.2426L12.0001 13.4142L14.8285 16.2426Z" fill="#707EAE"/>
</svg>
