<svg width="116" height="21" viewBox="0 0 116 21" fill="none" xmlns="http://www.w3.org/2000/svg">
<path d="M9.14319 2.32265C9.53185 1.67683 10.4681 1.67683 10.8568 2.32265L13.0731 6.00544C13.2128 6.23745 13.4405 6.40292 13.7043 6.46402L17.8918 7.43384C18.6261 7.60391 18.9154 8.49438 18.4213 9.06358L15.6036 12.3095C15.4261 12.514 15.3391 12.7817 15.3625 13.0515L15.7342 17.3337C15.7994 18.0846 15.0419 18.6349 14.3478 18.3409L10.3901 16.6642C10.1408 16.5586 9.85924 16.5586 9.60991 16.6642L5.65216 18.3409C4.95813 18.6349 4.20065 18.0846 4.26582 17.3337L4.63745 13.0515C4.66087 12.7817 4.57387 12.514 4.39637 12.3095L1.57871 9.06358C1.0846 8.49438 1.37393 7.60391 2.10824 7.43384L6.29567 6.46402C6.55948 6.40292 6.78723 6.23745 6.92685 6.00544L9.14319 2.32265Z" fill="#F7C824"/>
<path d="M33.1432 2.32265C33.5319 1.67683 34.4681 1.67683 34.8568 2.32265L37.0731 6.00544C37.2128 6.23745 37.4405 6.40292 37.7043 6.46402L41.8918 7.43384C42.6261 7.60391 42.9154 8.49438 42.4213 9.06358L39.6036 12.3095C39.4261 12.514 39.3391 12.7817 39.3625 13.0515L39.7342 17.3337C39.7994 18.0846 39.0419 18.6349 38.3478 18.3409L34.3901 16.6642C34.1408 16.5586 33.8592 16.5586 33.6099 16.6642L29.6522 18.3409C28.9581 18.6349 28.2006 18.0846 28.2658 17.3337L28.6375 13.0515C28.6609 12.7817 28.5739 12.514 28.3964 12.3095L25.5787 9.06358C25.0846 8.49438 25.3739 7.60391 26.1082 7.43384L30.2957 6.46402C30.5595 6.40292 30.7872 6.23745 30.9269 6.00544L33.1432 2.32265Z" fill="#F7C824"/>
<path d="M57.1432 2.32265C57.5319 1.67683 58.4681 1.67683 58.8568 2.32265L61.0731 6.00544C61.2128 6.23745 61.4405 6.40292 61.7043 6.46402L65.8918 7.43384C66.6261 7.60391 66.9154 8.49438 66.4213 9.06358L63.6036 12.3095C63.4261 12.514 63.3391 12.7817 63.3625 13.0515L63.7342 17.3337C63.7994 18.0846 63.0419 18.6349 62.3478 18.3409L58.3901 16.6642C58.1408 16.5586 57.8592 16.5586 57.6099 16.6642L53.6522 18.3409C52.9581 18.6349 52.2006 18.0846 52.2658 17.3337L52.6375 13.0515C52.6609 12.7817 52.5739 12.514 52.3964 12.3095L49.5787 9.06358C49.0846 8.49438 49.3739 7.60391 50.1082 7.43384L54.2957 6.46402C54.5595 6.40292 54.7872 6.23745 54.9269 6.00544L57.1432 2.32265Z" fill="#F7C824"/>
<path d="M81.1432 2.32265C81.5319 1.67683 82.4681 1.67683 82.8568 2.32265L85.0731 6.00544C85.2128 6.23745 85.4405 6.40292 85.7043 6.46402L89.8918 7.43384C90.6261 7.60391 90.9154 8.49438 90.4213 9.06358L87.6036 12.3095C87.4261 12.514 87.3391 12.7817 87.3625 13.0515L87.7342 17.3337C87.7994 18.0846 87.0419 18.6349 86.3478 18.3409L82.3901 16.6642C82.1408 16.5586 81.8592 16.5586 81.6099 16.6642L77.6522 18.3409C76.9581 18.6349 76.2006 18.0846 76.2658 17.3337L76.6375 13.0515C76.6609 12.7817 76.5739 12.514 76.3964 12.3095L73.5787 9.06358C73.0846 8.49438 73.3739 7.60391 74.1082 7.43384L78.2957 6.46402C78.5595 6.40292 78.7872 6.23745 78.9269 6.00544L81.1432 2.32265Z" fill="#F7C824"/>
<path d="M105.143 2.32265C105.532 1.67683 106.468 1.67683 106.857 2.32265L109.073 6.00544C109.213 6.23745 109.441 6.40292 109.704 6.46402L113.892 7.43384C114.626 7.60391 114.915 8.49438 114.421 9.06358L111.604 12.3095C111.426 12.514 111.339 12.7817 111.363 13.0515L111.734 17.3337C111.799 18.0846 111.042 18.6349 110.348 18.3409L106.39 16.6642C106.141 16.5586 105.859 16.5586 105.61 16.6642L101.652 18.3409C100.958 18.6349 100.201 18.0846 100.266 17.3337L100.637 13.0515C100.661 12.7817 100.574 12.514 100.396 12.3095L97.5787 9.06358C97.0846 8.49438 97.3739 7.60391 98.1082 7.43384L102.296 6.46402C102.559 6.40292 102.787 6.23745 102.927 6.00544L105.143 2.32265Z" fill="#F7C824"/>
</svg>
