<svg xmlns="http://www.w3.org/2000/svg" width="240" height="328" overflow="visible"><style><![CDATA[.B{opacity:.6}.C{opacity:.4}.D{fill:#33a1cc}.E{fill:#66b8d9}.F{fill:#e54717}.G{fill:#005273}.H{fill:#0089bf}.I{fill:#cc3000}.J{fill:#ff6333}]]></style><path d="M159.789 27.809c-1.355-2.486-3.075-4.214-5.088-5.323L118.567 1.623c-3.915-2.148-8.934-1.984-14.55-.557-10.571 2.667-21.243 9.036-31.783 18.432-6.467 5.772-12 12.141-16.355 19.192a71.45 71.45 0 0 0-9.861 26.462c-.284 1.679.006 2.843.755 3.318l15.763 9.1c-3.655 3.979-7 8.313-9.894 13.144a74.82 74.82 0 0 0-3.753 7.098c-6.231 13.498-7.35 25.255-5.181 35.687 1.163 5.541 3.498 9.364 7.049 11.255l29.359 16.952c-10.066 5.308-20.036 9.531-29.932 12.75-15.228 4.957-29.755 7.279-43.546 6.832-1.504-.016-2.972-.094-4.514-.055-.499.012-1.059.313-1.5.913a3.57 3.57 0 0 0-.393.702c-.452.988-.171 1.553.213 1.937l36.134 20.863c.276.283.627.443.978.608 3.989 1.776 8.189 3.071 12.603 3.917 21.665 4.185 45.641-1.737 72.352-16.953 8.716-5.114 18.096-11.702 27.333-19.463 12.416-10.356 24.221-22.113 35.15-35.811l9.519 5.496c.665.262 1.436-.667 2.063-1.557a19.02 19.02 0 0 0 .808-1.231c7.032-12.023 10.287-23.687 10.499-35.043.024-1.385-.352-2.17-1.106-2.428L170.644 82.32c-.4-.133-.908-.118-1.522.023-2.133.486-4.287 1.34-6.456 2.428.19-6.306.026-12.387.026-18.588l-.031-22.777c-.074-5.856-.596-11.452-2.872-15.597z" class="F"/><path d="M227.798 144.274l-46.414-26.797L0 221.453l55.903 32.538c9.65-5.656 22.9-23.933 64.081-48.783a302.02 302.02 0 0 1 12.19-6.407l58.137-28.072 6.326 3.653s9.392-3.993 16.101-10.58c18.168-17.839 15.06-19.528 15.06-19.528z" class="G"/><path d="M.625 182.147a3.57 3.57 0 0 0-.393.702c-.452.988-.171 1.553.213 1.937l36.134 20.863c-.385-.384-.665-.949-.214-1.941a3.63 3.63 0 0 1 .394-.702L.625 182.147z" class="I"/><path fill="#661800" d="M158.381 122.582c-.633-.243-.283-1.333 0-2.22 2.063-7.136 4.163-14.25 5.179-21.176.139-.895.176-1.718.208-2.511.02-1.466-.217-2.329-.817-2.69l36.133 20.86c.6.365.837 1.223.818 2.693-.032.789-.069 1.616-.208 2.506-1.016 6.93-3.116 14.044-5.179 21.177-.282.89-.633 1.98 0 2.224l-36.134-20.863z"/><path d="M140.164 103.993c-.414.667-.69 1.365-.407 1.938l36.134 20.863c-.285-.577-.008-1.271.406-1.941l-36.133-20.86z"/><path fill="#4c1200" d="M110.525 113.947c-2.512-1.392-4.62-3.412-6.543-5.71-.291-.345-.512-.471-.75-.361l36.134 20.859c.237-.106.458.015.749.36 1.923 2.302 4.031 4.318 6.543 5.714l-36.133-20.862z"/><path d="M155.83 103.46c-.685-.263-1.639.243-2.596.996-.947.785-1.894 1.781-2.798 2.753-18.729 19.498-38.19 35.419-58.389 47.726-14.14 8.612-28.071 15.036-41.861 19.522-15.228 4.957-29.755 7.279-43.546 6.832-1.504-.016-2.972-.094-4.514-.055-.499.012-1.059.313-1.5.913l36.134 20.86c.441-.601 1.002-.902 1.5-.914 1.542-.04 3.01.039 4.514.058 13.79.448 28.318-1.878 43.545-6.831 13.791-4.487 27.722-10.91 41.861-19.522 20.199-12.306 39.659-28.231 58.39-47.729.904-.973 1.851-1.965 2.798-2.75.957-.756 1.912-1.262 2.596-1L155.83 103.46z" class="F"/><path d="M170.644 82.323c-.4-.133-.908-.118-1.522.023-3.919.894-7.908 2.996-11.933 5.6-5.849 3.741-11.412 8.448-16.383 15.114-.215.298-.443.612-.643.933l36.133 20.859c.2-.318.428-.635.644-.93 4.97-6.666 10.533-11.376 16.382-15.114 4.025-2.607 8.014-4.71 11.934-5.6.614-.145 1.121-.156 1.521-.023l-36.133-20.862z" class="J"/><path fill="#801e00" d="M91.951 103.216c-1.478 2.37-3.219 4.589-5.294 6.613-4.635 4.549-9.081 5.875-12.027 4.195l36.133 20.86c2.947 1.683 7.392.356 12.028-4.192 2.075-2.028 3.816-4.247 5.294-6.616l-36.134-20.86z"/><path d="M99.096 66.428c.224.122.302.503.269 1.149l-.037 6.079h0c0 5.867-.174 11.828-2.414 18.573-1.257 3.89-2.841 7.592-4.963 10.987l36.134 20.86c2.122-3.392 3.706-7.094 4.963-10.984 2.239-6.75 2.414-12.709 2.414-18.573h0c0-2.019-.069-4 .037-6.082.033-.647-.045-1.023-.269-1.149l-36.134-20.86zm-.051-17.847c.188-.24.302-.538.282-.949-.068-4.243.314-8.831-.559-12.533-.561-2.361-1.602-3.894-3.086-4.644l36.134 20.859c1.484.75 2.525 2.283 3.086 4.647.873 3.698.49 8.286.559 12.53.019.412-.094.71-.283.953L99.045 48.581z" fill="#661800"/><path d="M99.045 48.581c-.188.243-.452.424-.733.604l-6.791 4.691c-8.051 5.576-16.065 11.255-23.833 18.486-5.699 5.341-10.838 11.334-15.045 18.354l36.134 20.863c4.208-7.024 9.347-13.012 15.045-18.353 7.769-7.231 15.783-12.915 23.834-18.491l6.79-4.686c.282-.18.545-.361.733-.604L99.045 48.581z" class="J"/><path d="M52.643 90.715a74.82 74.82 0 0 0-3.753 7.098c-6.231 13.498-7.35 25.255-5.181 35.687 1.163 5.541 3.498 9.364 7.049 11.255l36.134 20.863c-3.551-1.89-5.887-5.717-7.049-11.259-2.168-10.427-1.051-22.188 5.181-35.687 1.147-2.482 2.402-4.843 3.753-7.094L52.643 90.715z" class="F"/><path d="M118.567 1.623c-3.915-2.148-8.934-1.984-14.55-.557-10.571 2.667-21.243 9.036-31.783 18.432-6.467 5.772-12 12.141-16.355 19.192l36.134 20.858c4.354-7.05 9.888-13.416 16.355-19.192 10.539-9.396 21.212-15.761 31.783-18.428 5.616-1.427 10.636-1.596 14.549.556L118.567 1.623z" class="J"/><path d="M55.88 38.691a71.45 71.45 0 0 0-9.861 26.462c-.284 1.679.006 2.843.755 3.318L82.908 89.33c-.749-.475-1.039-1.635-.755-3.317a71.53 71.53 0 0 1 9.861-26.464L55.88 38.691z" class="F"/><path d="M162.693 66.186c0 6.749.213 13.341-.069 20.251-.28 7.838 1.75 13.255 5.951 16.65.488.405.945.829 1.367 1.315 1.504 1.756 1.224 3.737-.841 6.952l-13.198 20.51c-2.622 4.063-4.271 4.973-6.93 4.004-3.573-1.294-6.371-3.801-8.857-6.773-.592-.706-.906-.482-1.645.75-4.408 7.518-9.067 14.812-14.98 20.529-9.136 8.875-18.411 14.796-27.583 16.333-8.822 1.451-14.106-3.011-16.065-12.349-2.168-10.427-1.051-22.188 5.181-35.687 4.723-10.208 11.272-18.392 18.798-25.447 7.769-7.231 15.783-12.915 23.834-18.491l6.79-4.686c.562-.365 1.053-.729 1.016-1.557-.069-4.244.313-8.832-.559-12.53-1.122-4.729-4.167-6.125-8.822-4.607-3.324 1.07-6.616 3.211-9.833 6.325-4.902 4.769-7.949 10.448-9.173 16.973-.665 3.581-1.96 5.459-4.653 6.69l-17.187 7.864c-2.349 1.07-3.572-.283-3.082-3.192 2.977-18.495 12.497-33.405 26.216-45.656 10.539-9.396 21.212-15.761 31.783-18.428 8.508-2.161 15.649-1.436 19.638 5.879 2.276 4.145 2.798 9.741 2.873 15.6l.03 22.778c-.031.019 0 0 0 0h0zm-27.232 28.333c0-2.019-.069-4 .037-6.082.068-1.294-.318-1.514-1.404-.769-2.66 1.819-5.355 3.416-8.014 5.357-4.653 3.377-9.204 7.334-12.984 12.915-5.494 8.145-6.653 15.6-5.739 22.714 1.084 8.345 8.014 9.318 15.434 2.039 5.041-4.93 8.124-10.992 10.257-17.6 2.239-6.751 2.413-12.711 2.413-18.574h0zm-12.949 98.704c-26.711 15.215-50.687 21.138-72.352 16.953-4.414-.847-8.614-2.141-12.603-3.917-.351-.166-.702-.326-.978-.608-.385-.384-.665-.949-.214-1.941.457-1.07 1.229-1.596 1.894-1.615 1.542-.04 3.01.039 4.514.058 13.79.448 28.318-1.878 43.545-6.831 13.791-4.487 27.722-10.91 41.861-19.522 20.199-12.306 39.659-28.231 58.39-47.729.904-.973 1.851-1.965 2.798-2.75 1.33-1.051 2.659-1.619 3.253-.305.563 1.215-.174 2.851-1.152 4.388-.703 1.09-1.506 2.122-2.314 3.192-12.071 16.024-25.302 29.483-39.308 41.166-9.238 7.759-18.618 14.346-27.334 19.461zm67.381-74.92c-4.025 2.287-8.014 5.197-12.008 7.985-.771.525-1.643 1.274-1.994.506-.419-.851.384-1.961 1.049-2.871 4.97-6.666 10.533-11.376 16.382-15.114 4.025-2.607 8.014-4.71 11.934-5.6 1.786-.423 2.665.283 2.627 2.404-.212 11.357-3.467 23.02-10.499 35.043-.249.423-.525.828-.808 1.231-.627.89-1.398 1.819-2.063 1.557-.633-.244-.282-1.334 0-2.224 2.063-7.133 4.163-14.247 5.179-21.177.139-.89.176-1.717.208-2.506.038-2.651-.771-3.318-3.01-2.671-2.344.63-4.689 2.104-6.997 3.437z" fill="#992400"/><path d="M214.865 313.489c-33.511 19.348-87.848 19.348-121.361 0s-33.512-50.721 0-70.068 87.851-19.349 121.361 0 33.513 50.717 0 70.068z" class="G"/><path fill="#8c2100" d="M141.289 313.134c19.797 0 39.596-4.36 54.701-13.08.679 1.745 1.079 3.562 1.079 5.238 0 2.329-.749 4.018-1.983 4.925-14.162 8.216-33.053 13.23-53.797 13.23s-39.638-5.015-53.799-13.23c-1.235-.907-1.981-2.596-1.981-4.925 0-1.676.398-3.493 1.077-5.238 15.106 8.719 34.904 13.08 54.703 13.08z"/><g class="I"><path d="M87.49 310.217c-1.235-.907-1.981-2.596-1.981-4.925 0-1.676.398-3.493 1.077-5.238-25.59-14.776-29.511-37.338-11.742-54.492-8.286 7.931-13.11 17.43-13.11 27.642-.001 14.645 9.923 27.829 25.756 37.013z"/><path d="M141.289 313.134c19.797 0 39.594-4.36 54.699-13.08l-16.999-43.295c-10.41 6.01-24.057 9.014-37.702 9.014s-27.29-3.004-37.702-9.014l-16.999 43.295c15.106 8.719 34.904 13.08 54.703 13.08z"/></g><path fill="#ff6c40" d="M74.843 245.562c-17.769 17.154-13.848 39.716 11.742 54.492l16.999-43.295c-16.012-9.246-19.712-22.911-11.095-34.198l-17.646 23.001z"/><path d="M126.887 196.006c.274-.924.455-1.815.54-2.663v-1.008c-3.787-2.188-5.67-5.048-5.701-7.914-1.993 3.979-.272 8.448 5.161 11.585z" class="B D"/><path d="M127.427 192.335l-.003-13.252-.537.298c-2.518 1.452-4.237 3.195-5.161 5.04.031 2.866 1.914 5.725 5.701 7.914z" class="B E"/><path d="M121.726 184.421c.924-1.845 2.644-3.588 5.161-5.04l.537-.298.026-2.724c-3.851 2.226-5.755 5.146-5.724 8.062z" class="B D"/><path fill="#ff9d80" d="M103.584 256.759c-16.012-9.246-19.712-22.911-11.095-34.198 2.589-3.387 6.288-6.558 11.095-9.333 5.697-3.291 12.363-5.68 19.469-7.167l-19.469 50.698z"/><path fill="#ff6c40" d="M141.287 265.772c13.646 0 27.287-3.004 37.697-9.014l-19.468-50.698c-5.877-1.233-12.054-1.849-18.232-1.849s-12.354.615-18.23 1.849l-19.469 50.698c10.412 6.011 24.057 9.014 37.702 9.014z"/><g class="E"><path d="M126.887 196.006l-.469 1.385-3.365 8.67c-7.105 1.487-13.771 3.876-19.469 7.167-4.807 2.775-8.506 5.946-11.095 9.333l29.236-38.14c-1.992 3.979-.271 8.448 5.162 11.585z" class="B"/><path d="M121.726 164.142v20.279c-.031-2.916 1.873-5.836 5.725-8.062l-.026-8.816c-1.094-.477-2.129-1.008-3.098-1.588-.929-.558-1.801-1.171-2.601-1.813z" class="B"/></g><path d="M141.287 170.293c5.112 0 9.875-1.011 13.863-2.75 1.094-.477 2.129-1.008 3.097-1.588.579-.478.885-1.373.885-2.513 0-2.541-1.783-5.631-3.983-6.902-3.821 2.207-8.854 3.354-13.861 3.354s-10.04-1.147-13.86-3.354c-2.201 1.271-3.983 4.361-3.983 6.902 0 1.14.306 2.035.884 2.513.969.58 2.004 1.111 3.098 1.588 3.986 1.739 8.746 2.75 13.86 2.75z" class="C H"/><g class="D"><path d="M124.474 140.336c-5.313 3.134-8.666 7.729-8.666 12.853 0 4.172 2.219 7.984 5.918 10.953a23.24 23.24 0 0 0 2.601 1.813c-.578-.478-.884-1.373-.884-2.513 0-2.541 1.782-5.631 3.983-6.902-7.635-4.408-7.608-11.514.026-15.924-1.168-.675-2.248-.785-2.978-.28z" class="B"/><path d="M141.287 159.09c3.512.002 7.024-.702 9.848-2.111.278-.14.55-.286.813-.438.226-.131.444-.276.654-.409.689-.263 1.577-.149 2.544.409-3.821 2.207-8.853 3.354-13.859 3.354s-10.04-1.147-13.86-3.354c.967-.559 1.854-.672 2.543-.409l.654.409a16.21 16.21 0 0 0 .815.438c2.821 1.409 6.335 2.113 9.848 2.111z" class="C"/></g><path d="M127.453 140.616c-7.635 4.41-7.661 11.516-.026 15.924.967-.559 1.854-.672 2.543-.409-.874-.55-1.62-1.119-2.129-1.804-.19-.255-.313-.542-.433-.816.094-1.979 1.39-3.941 4.005-5.45v-.622c0-2.541-1.76-5.554-3.96-6.823z" class="B H"/><path d="M129.969 156.131l.654.409.815.438-.026-8.918c-2.615 1.509-3.911 3.471-4.005 5.45.119.274.242.562.433.816.509.686 1.255 1.255 2.129 1.805z" class="C D"/><path fill="#591500" d="M195.08 310.217c1.234-.907 1.982-2.596 1.982-4.925 0-1.676-.399-3.493-1.079-5.238 25.589-14.776 29.512-37.338 11.743-54.492 8.286 7.931 13.11 17.43 13.11 27.642 0 14.645-9.923 27.829-25.756 37.013z"/><path fill="#8c2100" d="M207.726 245.562c17.769 17.154 13.846 39.716-11.743 54.492l-16.999-43.295c16.014-9.246 19.714-22.911 11.096-34.198l17.646 23.001z"/><path d="M155.682 196.006c-.274-.924-.454-1.815-.54-2.663v-1.008c3.788-2.188 5.67-5.048 5.701-7.914 1.994 3.979.273 8.448-5.161 11.585z" class="B D"/><path d="M155.142 192.335l.004-13.252.536.298c2.517 1.452 4.238 3.195 5.161 5.04-.031 2.866-1.913 5.725-5.701 7.914z" class="B H"/><path d="M160.843 184.421c-.923-1.845-2.645-3.588-5.161-5.04l-.536-.298-.026-2.724c3.85 2.226 5.755 5.146 5.723 8.062z" class="B G"/><path d="M178.984 256.759c16.014-9.246 19.714-22.911 11.096-34.198-2.588-3.387-6.288-6.558-11.096-9.333-5.696-3.291-12.362-5.68-19.468-7.167l19.468 50.698z" class="I"/><g class="H"><path d="M155.682 196.006l.469 1.385 3.365 8.67c7.105 1.487 13.771 3.876 19.468 7.167 4.808 2.775 8.508 5.946 11.096 9.333l-29.236-38.14c1.993 3.979.272 8.448-5.162 11.585z" class="B"/><path d="M160.843 164.142v20.279c.031-2.916-1.873-5.836-5.724-8.062l.026-8.816a27.18 27.18 0 0 0 3.097-1.588c.929-.558 1.802-1.171 2.601-1.813z" class="B"/></g><path d="M158.095 140.336c5.312 3.134 8.666 7.729 8.666 12.853 0 4.172-2.219 7.984-5.918 10.953a23.15 23.15 0 0 1-2.601 1.813c.579-.478.884-1.373.884-2.513 0-2.541-1.782-5.631-3.983-6.902 7.635-4.408 7.608-11.514-.025-15.924 1.168-.675 2.249-.785 2.977-.28z" class="B G"/><path d="M155.118 140.616c7.634 4.41 7.66 11.516.025 15.924-.967-.559-1.854-.672-2.543-.409.874-.55 1.62-1.119 2.129-1.804.189-.255.314-.542.433-.816-.094-1.979-1.39-3.941-4.005-5.45v-.622c0-2.541 1.759-5.554 3.961-6.823z" class="B E"/><path fill="#ccf1ff" d="M152.6 156.131l-.654.409-.815.438.026-8.918c2.615 1.509 3.911 3.471 4.005 5.45-.118.274-.243.562-.433.816-.509.686-1.255 1.255-2.129 1.805z" class="C"/><path d="M141.287 159.09c3.512.002 7.027-.702 9.85-2.111l.025-8.918c-2.715-1.568-6.319-2.354-9.875-2.354s-7.159.786-9.874 2.354l.026 8.918c2.821 1.409 6.335 2.113 9.848 2.111z" class="C E"/><path d="M141.287 145.706c3.556 0 7.155.786 9.87 2.354v-.622c0-2.54 1.759-5.554 3.961-6.822-3.821-2.206-8.828-3.311-13.834-3.312s-10.011 1.105-13.831 3.312c2.2 1.269 3.96 4.282 3.96 6.822v.622c2.714-1.568 6.318-2.354 9.874-2.354z" class="C D"/><path d="M141.284 137.305c5.006.001 10.015 1.105 13.836 3.312 1.169-.675 2.25-.785 2.978-.28-4.487-2.646-10.37-4.252-16.811-4.252s-12.325 1.605-16.812 4.252c.729-.505 1.81-.395 2.979.28 3.819-2.207 8.826-3.311 13.83-3.312z" class="C E"/><path d="M155.686 196.006c-.274-.924-.454-1.815-.54-2.663v-1.008c-.002 0 .002-13.252.002-13.252s-.028-2.724-.028-2.724.028-8.816.028-8.816c-3.989 1.739-8.749 2.75-13.861 2.75s-9.874-1.011-13.862-2.75l.026 8.816-.026 2.724.003 13.252v1.008c-.085.848-.266 1.739-.54 2.663-.134.454-.287.918-.469 1.385l-3.365 8.67c5.877-1.233 12.055-1.849 18.23-1.849s12.359.615 18.237 1.849l-3.366-8.67c-.18-.467-.335-.931-.469-1.385z" class="C D"/></svg>